{"glyphs":{"0":{"ha":864,"x_min":65,"x_max":799,"o":"m 65 486 q 94 706 65 613 q 174 863 124 800 q 290 956 224 925 q 432 986 357 986 q 574 956 507 986 q 690 863 640 925 q 769 706 740 800 q 799 486 799 613 q 769 266 799 360 q 690 110 740 172 q 574 17 640 47 q 432 -14 507 -14 q 290 17 357 -14 q 174 110 224 47 q 94 266 124 172 q 65 486 65 360 m 182 486 q 201 303 182 378 q 254 182 221 228 q 333 115 288 136 q 432 94 379 94 q 531 115 485 94 q 610 182 576 136 q 663 303 643 228 q 682 486 682 378 q 663 669 682 594 q 610 790 643 744 q 531 857 576 836 q 432 878 485 878 q 333 857 379 878 q 254 790 288 836 q 201 669 221 744 q 182 486 182 594 z "},"1":{"ha":547,"x_min":92,"x_max":417,"o":"m 303 818 l 117 717 q 101 713 108 713 q 92 725 92 713 l 92 821 q 107 842 92 833 l 332 965 q 353 972 343 972 l 403 972 q 417 958 417 972 l 417 14 q 403 0 417 0 l 317 0 q 303 14 303 0 l 303 818 z "},"2":{"ha":843,"x_min":97,"x_max":738,"o":"m 97 72 q 113 104 97 92 l 506 483 q 577 588 560 536 q 594 701 594 639 q 545 827 594 776 q 407 878 496 878 q 322 863 358 878 q 262 822 286 847 q 225 762 238 796 q 213 690 213 728 q 208 674 213 678 q 194 669 204 669 l 115 669 q 99 690 99 669 q 121 806 100 751 q 181 900 142 860 q 278 963 221 940 q 407 986 335 986 q 531 965 475 986 q 626 906 588 943 q 687 817 665 868 q 708 704 708 765 q 677 539 708 608 q 583 411 646 469 l 265 108 l 724 108 q 738 94 738 108 l 738 14 q 724 0 738 0 l 111 0 q 97 14 97 0 l 97 72 z "},"3":{"ha":836,"x_min":79,"x_max":744,"o":"m 324 557 q 339 572 324 572 l 410 572 q 543 611 494 572 q 592 732 592 650 q 576 794 592 767 q 536 840 561 821 q 478 868 511 858 q 408 878 444 878 q 283 836 333 878 q 225 719 232 794 q 219 706 224 708 q 207 703 215 703 l 131 703 q 113 726 113 703 q 141 833 117 785 q 205 915 165 881 q 297 967 244 949 q 408 986 350 986 q 526 968 472 986 q 619 918 581 950 q 678 842 657 886 q 700 746 700 797 q 669 612 700 663 q 581 525 639 561 q 642 493 613 513 q 694 444 671 474 q 731 376 717 415 q 744 283 744 336 q 719 158 744 214 q 651 65 694 103 q 545 6 607 26 q 411 -14 483 -14 q 281 8 340 -14 q 179 70 222 31 q 110 165 136 110 q 79 286 85 219 q 97 310 79 310 l 172 310 q 185 306 181 310 q 192 292 190 303 q 260 148 201 201 q 411 94 319 94 q 569 142 507 94 q 631 288 631 189 q 576 418 631 372 q 421 464 521 464 l 339 464 q 324 479 324 468 l 324 557 z "},"4":{"ha":831,"x_min":58,"x_max":764,"o":"m 499 200 l 72 200 q 58 214 58 200 l 58 265 q 61 283 58 276 q 69 297 64 290 l 514 961 q 532 972 521 972 l 599 972 q 613 958 613 972 l 613 308 l 750 308 q 764 294 764 308 l 764 214 q 750 200 764 200 l 613 200 l 613 14 q 597 0 613 0 l 513 0 q 499 14 499 0 l 499 200 m 201 308 l 499 308 l 499 749 l 201 308 z "},"5":{"ha":844,"x_min":97,"x_max":754,"o":"m 164 958 q 178 972 165 972 l 689 972 q 703 958 703 972 l 703 878 q 689 864 703 864 l 263 864 l 222 571 q 323 624 268 603 q 446 644 378 644 q 672 558 589 644 q 754 318 754 471 q 728 176 754 238 q 658 72 703 114 q 553 8 614 29 q 424 -14 493 -14 q 294 8 353 -14 q 194 67 236 29 q 126 158 151 106 q 97 271 101 210 q 114 292 97 292 l 193 292 q 205 288 201 292 q 211 271 208 283 q 235 201 217 233 q 281 145 253 169 q 344 108 308 121 q 424 94 381 94 q 584 153 528 94 q 640 315 640 211 q 583 476 640 417 q 425 536 526 536 q 313 514 363 536 q 222 451 264 492 q 212 442 217 446 q 199 439 207 439 l 118 439 q 104 453 104 439 l 164 958 z "},"6":{"ha":868,"x_min":103,"x_max":779,"o":"m 103 443 q 128 685 103 582 q 201 854 154 788 q 312 953 247 921 q 454 986 376 986 q 656 922 576 986 q 754 744 736 857 q 750 733 754 735 q 739 731 746 731 l 656 731 q 640 744 644 731 q 567 851 619 819 q 454 883 515 883 q 366 863 407 883 q 294 798 325 842 q 245 686 264 754 q 225 524 226 618 q 335 603 269 578 q 464 628 401 628 q 590 606 532 628 q 690 544 647 585 q 756 444 732 504 q 779 307 779 383 q 752 171 779 231 q 679 70 725 111 q 574 8 633 29 q 451 -14 515 -14 q 317 9 381 -14 q 206 85 253 32 q 131 226 158 139 q 103 443 103 314 m 238 307 q 294 153 238 213 q 451 94 351 94 q 608 153 551 94 q 665 307 665 213 q 608 460 665 401 q 451 519 551 519 q 294 460 351 519 q 238 307 238 401 z "},"7":{"ha":708,"x_min":57,"x_max":679,"o":"m 57 958 q 71 972 57 972 l 665 972 q 679 958 679 972 l 679 906 q 672 871 679 890 l 342 10 q 326 0 338 0 l 240 0 q 226 11 226 0 q 229 21 226 15 l 550 864 l 71 864 q 57 878 57 864 l 57 958 z "},"8":{"ha":836,"x_min":97,"x_max":739,"o":"m 128 729 q 151 838 128 790 q 215 919 175 886 q 308 969 256 951 q 418 986 360 986 q 528 969 476 986 q 621 919 581 951 q 685 838 661 886 q 708 729 708 790 q 676 601 708 651 q 592 517 644 550 q 696 428 653 485 q 739 275 739 371 q 715 159 739 213 q 649 67 692 106 q 547 8 606 29 q 418 -14 489 -14 q 289 8 347 -14 q 188 67 231 29 q 121 159 144 106 q 97 275 97 213 q 140 428 97 371 q 244 517 183 485 q 160 601 192 550 q 128 729 128 651 m 211 275 q 267 141 211 188 q 418 94 324 94 q 569 141 513 94 q 625 275 625 188 q 569 410 625 363 q 418 458 513 458 q 267 410 324 458 q 211 275 211 363 m 236 722 q 285 608 236 653 q 418 564 333 564 q 551 608 503 564 q 600 722 600 653 q 549 838 600 797 q 418 878 497 878 q 288 838 339 878 q 236 722 236 797 z "},"9":{"ha":868,"x_min":89,"x_max":765,"o":"m 765 529 q 740 287 765 389 q 667 118 714 185 q 556 19 621 51 q 414 -14 492 -14 q 212 51 292 -14 q 114 228 132 115 q 118 240 114 238 q 129 242 122 242 l 213 242 q 228 228 224 242 q 301 121 249 153 q 414 89 353 89 q 502 110 461 89 q 574 174 543 131 q 623 286 604 218 q 643 449 642 354 q 533 369 599 394 q 404 344 467 344 q 278 366 336 344 q 178 428 221 388 q 113 528 136 468 q 89 665 89 588 q 116 801 89 742 q 189 902 143 861 q 294 965 235 943 q 417 986 353 986 q 551 963 488 986 q 663 887 615 940 q 738 746 710 833 q 765 529 765 658 m 631 665 q 574 819 631 760 q 417 878 517 878 q 260 819 317 878 q 203 665 203 760 q 260 512 203 571 q 417 453 317 453 q 574 512 517 453 q 631 665 631 571 z "},"\u0000":{"ha":0,"x_min":0,"x_max":0,"o":""},"\r":{"ha":0,"x_min":0,"x_max":0,"o":""}," ":{"ha":354,"x_min":0,"x_max":0,"o":""},"!":{"ha":419,"x_min":140,"x_max":279,"o":"m 254 972 q 268 958 268 972 l 268 282 q 254 268 268 268 l 165 268 q 151 282 151 268 l 151 958 q 165 972 151 972 l 254 972 m 265 139 q 279 125 279 139 l 279 14 q 265 0 279 0 l 154 0 q 140 14 140 0 l 140 125 q 154 139 140 139 l 265 139 z "},"\"":{"ha":578,"x_min":103,"x_max":475,"o":"m 103 958 q 117 972 103 972 l 197 972 q 211 958 211 972 l 211 667 q 197 653 211 653 l 117 653 q 103 667 103 653 l 103 958 m 367 958 q 381 972 367 972 l 461 972 q 475 958 475 972 l 475 667 q 461 653 475 653 l 381 653 q 367 667 367 653 l 367 958 z "},"#":{"ha":1079,"x_min":97,"x_max":981,"o":"m 621 275 l 383 275 l 339 14 q 324 0 338 0 l 235 0 q 222 14 221 0 l 267 275 l 111 275 q 97 289 97 275 l 97 372 q 111 386 97 386 l 286 386 l 321 586 l 167 586 q 153 600 153 586 l 153 683 q 167 697 153 697 l 339 697 l 385 958 q 400 972 386 972 l 489 972 q 501 958 503 972 l 456 697 l 693 697 l 739 958 q 754 972 740 972 l 843 972 q 856 958 857 972 l 810 697 l 967 697 q 981 683 981 697 l 981 600 q 967 586 981 586 l 792 586 l 757 386 l 911 386 q 925 372 925 386 l 925 289 q 911 275 925 275 l 738 275 l 693 14 q 678 0 692 0 l 589 0 q 576 14 575 0 l 621 275 m 403 386 l 640 386 l 675 586 l 438 586 l 403 386 z "},"$":{"ha":819,"x_min":50,"x_max":767,"o":"m 349 -10 q 229 24 283 -1 q 135 88 175 49 q 72 180 94 128 q 50 294 50 232 q 64 308 50 308 l 153 308 q 167 294 167 308 q 217 169 169 222 q 349 101 265 117 l 349 458 q 235 499 286 476 q 148 554 185 522 q 91 628 111 586 q 71 726 71 669 q 93 828 71 783 q 153 906 115 874 q 241 957 190 938 q 349 983 292 976 l 349 1097 q 363 1111 349 1111 l 451 1111 q 465 1097 465 1111 l 465 983 q 578 949 529 975 q 662 888 628 924 q 715 807 696 851 q 735 715 733 763 q 721 701 735 701 l 632 701 q 618 715 618 701 q 571 817 614 776 q 465 872 528 857 l 465 546 q 584 506 529 528 q 679 453 639 483 q 743 381 719 422 q 767 283 767 339 q 744 163 767 215 q 683 74 722 110 q 588 16 643 38 q 465 -11 532 -6 l 465 -125 q 451 -139 465 -139 l 363 -139 q 349 -125 349 -139 l 349 -10 m 650 276 q 635 328 650 306 q 596 369 621 351 q 538 401 571 388 q 465 426 504 415 l 465 100 q 601 153 553 110 q 650 276 650 196 m 188 732 q 232 638 188 672 q 349 579 276 603 l 349 872 q 233 826 278 863 q 188 732 188 790 z "},"%":{"ha":1231,"x_min":81,"x_max":1150,"o":"m 1150 249 q 1129 140 1150 186 q 1075 62 1108 93 q 999 15 1042 31 q 911 0 956 0 q 824 15 867 0 q 747 62 781 31 q 693 140 714 93 q 672 249 672 186 q 693 358 672 311 q 747 435 714 404 q 824 482 781 467 q 911 497 867 497 q 999 482 956 497 q 1075 435 1042 467 q 1129 358 1108 404 q 1150 249 1150 311 m 1063 249 q 1049 323 1063 292 q 1015 374 1036 354 q 966 403 993 393 q 911 413 939 413 q 856 403 883 413 q 808 374 829 393 q 773 323 786 354 q 760 249 760 292 q 773 174 760 206 q 808 124 786 143 q 856 94 829 104 q 911 85 883 85 q 966 94 939 85 q 1015 124 993 104 q 1049 174 1036 143 q 1063 249 1063 206 m 558 724 q 538 615 558 661 q 483 537 517 568 q 407 490 450 506 q 319 475 364 475 q 232 490 275 475 q 156 537 189 506 q 101 615 122 568 q 81 724 81 661 q 101 833 81 786 q 156 910 122 879 q 232 957 189 942 q 319 972 275 972 q 407 957 364 972 q 483 910 450 942 q 538 833 517 879 q 558 724 558 786 m 471 724 q 458 798 471 767 q 423 849 444 829 q 374 878 401 868 q 319 888 347 888 q 265 878 292 888 q 216 849 238 868 q 181 798 194 829 q 168 724 168 767 q 181 649 168 681 q 216 599 194 618 q 265 569 238 579 q 319 560 292 560 q 374 569 347 560 q 423 599 401 579 q 458 649 444 618 q 471 724 471 681 m 969 968 q 989 968 978 979 l 1026 936 q 1029 917 1036 926 l 261 4 q 242 4 253 -7 l 204 36 q 201 56 194 46 l 969 968 z "},"&":{"ha":942,"x_min":81,"x_max":875,"o":"m 750 388 q 731 278 744 328 q 699 188 718 229 l 818 22 q 821 17 819 19 q 822 10 822 15 q 811 0 822 0 l 706 0 q 688 13 696 0 l 632 89 q 517 11 583 36 q 371 -14 450 -14 q 253 5 306 -14 q 161 60 200 24 q 101 149 122 96 q 81 269 81 201 q 95 367 81 322 q 136 448 110 411 q 198 514 163 485 q 274 565 233 543 q 221 652 243 606 q 199 764 199 699 q 215 847 199 807 q 261 918 231 888 q 335 967 292 949 q 432 986 378 986 q 526 971 483 986 q 599 928 568 956 q 646 863 629 901 q 663 781 663 825 q 625 649 663 699 q 524 568 588 600 l 444 528 l 626 285 q 650 486 650 371 q 664 499 650 499 l 861 499 q 875 485 875 499 l 875 401 q 861 388 875 388 l 750 388 m 371 94 q 568 174 501 94 l 342 475 q 234 385 271 435 q 197 265 197 336 q 248 138 197 181 q 371 94 299 94 m 310 768 q 324 701 310 731 q 367 632 338 672 l 379 614 l 464 651 q 531 701 511 672 q 551 774 551 731 q 518 853 551 822 q 432 883 485 883 q 344 853 378 883 q 310 768 310 822 z "},"'":{"ha":314,"x_min":103,"x_max":211,"o":"m 103 958 q 117 972 103 972 l 197 972 q 211 958 211 972 l 211 667 q 197 653 211 653 l 117 653 q 103 667 103 653 l 103 958 z "},"(":{"ha":496,"x_min":121,"x_max":450,"o":"m 238 254 q 244 100 238 161 q 274 -8 251 39 q 335 -97 296 -54 q 440 -194 375 -139 q 442 -214 450 -203 l 389 -279 q 379 -285 383 -285 q 369 -281 375 -285 q 247 -167 296 -221 q 171 -57 199 -114 q 132 65 143 0 q 121 211 121 129 l 121 488 q 132 634 121 569 q 171 756 143 699 q 247 866 199 813 q 369 979 296 919 q 379 983 375 983 q 389 978 383 983 l 442 913 q 440 893 450 901 q 335 795 375 838 q 274 706 296 753 q 244 599 251 660 q 238 444 238 538 l 238 254 l 238 254 z "},")":{"ha":503,"x_min":53,"x_max":382,"o":"m 265 444 q 258 599 265 538 q 229 706 251 660 q 167 795 207 753 q 63 893 128 838 q 61 913 53 901 l 114 978 q 124 983 119 983 q 133 979 126 983 q 255 866 207 919 q 331 756 303 813 q 371 634 360 699 q 382 488 382 569 l 382 211 q 371 65 382 129 q 331 -57 360 0 q 255 -167 303 -114 q 133 -281 207 -221 q 124 -285 126 -285 q 114 -279 119 -285 l 61 -214 q 63 -194 53 -203 q 167 -97 128 -139 q 229 -8 207 -54 q 258 100 251 39 q 265 254 265 161 l 265 444 z "},"*":{"ha":654,"x_min":74,"x_max":579,"o":"m 99 833 q 117 842 103 846 l 278 789 l 278 958 q 292 972 278 972 l 361 972 q 375 958 375 972 l 375 789 l 536 842 q 554 832 550 846 l 575 767 q 567 749 579 753 l 404 696 l 504 560 q 503 540 513 547 l 446 500 q 425 503 433 492 l 326 639 l 228 503 q 207 500 219 492 l 150 540 q 149 560 140 547 l 249 696 l 86 749 q 78 767 74 753 l 99 833 z "},"+":{"ha":794,"x_min":90,"x_max":704,"o":"m 451 529 l 690 529 q 704 515 704 529 l 704 435 q 690 421 704 421 l 451 421 l 451 182 q 438 168 451 168 l 357 168 q 343 182 343 168 l 343 421 l 104 421 q 90 435 90 421 l 90 515 q 104 529 90 529 l 343 529 l 343 768 q 357 782 343 782 l 438 782 q 451 768 451 782 l 451 529 z "},",":{"ha":403,"x_min":133,"x_max":267,"o":"m 147 -75 q 199 -65 188 -75 q 211 -17 211 -54 l 211 0 l 147 0 q 133 14 133 0 l 133 119 q 147 133 133 133 l 253 133 q 267 119 267 133 l 267 -26 q 247 -100 267 -75 q 176 -125 226 -125 l 147 -125 q 133 -111 133 -125 l 133 -89 q 147 -75 133 -75 z "},"-":{"ha":714,"x_min":90,"x_max":624,"o":"m 610 529 q 624 515 624 529 l 624 435 q 610 421 624 421 l 104 421 q 90 435 90 421 l 90 515 q 104 529 90 529 l 610 529 z "},".":{"ha":403,"x_min":133,"x_max":267,"o":"m 253 133 q 267 119 267 133 l 267 14 q 253 0 267 0 l 147 0 q 133 14 133 0 l 133 119 q 147 133 133 133 l 253 133 z "},"/":{"ha":669,"x_min":36,"x_max":653,"o":"m 524 958 q 543 972 529 972 l 639 972 q 647 958 653 972 l 165 14 q 146 0 160 0 l 50 0 q 42 14 36 0 l 524 958 z "},":":{"ha":403,"x_min":133,"x_max":267,"o":"m 253 133 q 267 119 267 133 l 267 14 q 253 0 267 0 l 147 0 q 133 14 133 0 l 133 119 q 147 133 133 133 l 253 133 m 253 697 q 267 683 267 697 l 267 578 q 253 564 267 564 l 147 564 q 133 578 133 564 l 133 683 q 147 697 133 697 l 253 697 z "},";":{"ha":403,"x_min":133,"x_max":267,"o":"m 253 697 q 267 683 267 697 l 267 578 q 253 564 267 564 l 147 564 q 133 578 133 564 l 133 683 q 147 697 133 697 l 253 697 m 147 -75 q 199 -65 188 -75 q 211 -17 211 -54 l 211 0 l 147 0 q 133 14 133 0 l 133 119 q 147 133 133 133 l 253 133 q 267 119 267 133 l 267 -26 q 247 -100 267 -75 q 176 -125 226 -125 l 147 -125 q 133 -111 133 -125 l 133 -89 q 147 -75 133 -75 z "},"<":{"ha":718,"x_min":89,"x_max":618,"o":"m 618 75 q 604 67 618 61 l 103 338 q 89 356 89 343 l 89 458 q 103 476 89 471 l 604 747 q 618 739 618 753 l 618 644 q 604 625 618 631 l 192 407 l 604 189 q 618 169 618 183 l 618 75 z "},"=":{"ha":789,"x_min":106,"x_max":719,"o":"m 706 613 q 719 599 719 613 l 719 518 q 706 504 719 504 l 119 504 q 106 518 106 504 l 106 599 q 119 613 106 613 l 706 613 m 706 331 q 719 317 719 331 l 719 236 q 706 222 719 222 l 119 222 q 106 236 106 222 l 106 317 q 119 331 106 331 l 706 331 z "},">":{"ha":718,"x_min":100,"x_max":629,"o":"m 100 169 q 114 189 100 183 l 526 407 l 114 625 q 100 644 100 631 l 100 739 q 114 747 100 753 l 615 476 q 629 458 629 471 l 629 356 q 615 338 629 343 l 114 67 q 100 75 100 61 l 100 169 z "},"?":{"ha":792,"x_min":104,"x_max":700,"o":"m 104 711 q 127 817 106 767 q 188 904 149 867 q 282 964 226 942 q 408 986 338 986 q 529 967 475 986 q 622 912 583 947 q 680 828 660 876 q 700 721 700 779 q 683 634 700 671 q 639 569 665 597 q 582 515 613 540 q 525 464 551 490 q 481 406 499 438 q 464 333 464 375 l 464 282 q 450 268 464 268 l 361 268 q 347 282 347 268 l 347 324 q 365 419 347 379 q 408 491 382 460 q 465 548 435 522 q 522 599 496 574 q 566 653 549 624 q 583 719 583 682 q 535 834 583 793 q 408 875 488 875 q 282 834 335 875 q 218 711 229 793 q 204 697 217 697 l 118 697 q 104 711 104 697 m 461 139 q 475 125 475 139 l 475 14 q 461 0 475 0 l 350 0 q 336 14 336 0 l 336 125 q 350 139 336 139 l 461 139 z "},"@":{"ha":1119,"x_min":63,"x_max":1057,"o":"m 965 428 q 942 576 965 506 q 870 701 918 647 q 749 788 822 756 q 579 821 676 821 q 417 792 493 821 q 283 708 340 763 q 192 575 226 654 q 158 396 158 496 q 190 211 158 293 q 276 73 221 129 q 410 -13 332 17 q 579 -43 488 -43 q 663 -37 625 -43 q 731 -21 700 -31 q 790 2 763 -11 q 842 31 817 15 q 858 25 854 36 l 888 -33 q 882 -50 892 -44 q 743 -108 815 -86 q 579 -129 671 -129 q 375 -92 469 -129 q 211 13 281 -56 q 102 178 142 81 q 63 396 63 275 q 105 610 63 515 q 219 770 147 704 q 384 872 290 836 q 579 907 478 907 q 781 867 692 907 q 931 763 869 828 q 1025 613 993 697 q 1057 439 1057 529 q 1000 199 1057 276 q 850 121 943 121 q 760 146 801 121 q 707 207 719 171 q 622 141 668 161 q 515 121 576 121 q 428 137 469 121 q 358 184 388 153 q 310 262 328 215 q 293 369 293 308 q 313 484 293 429 q 367 581 332 539 q 452 647 403 622 q 563 671 501 671 q 656 651 619 671 q 714 600 693 632 l 719 650 q 731 661 722 661 l 792 661 q 803 650 803 661 l 771 358 q 769 333 769 346 q 768 310 768 321 q 794 223 768 247 q 856 199 821 199 q 937 253 908 199 q 965 428 965 307 m 701 418 q 668 547 701 501 q 568 593 635 593 q 487 574 521 593 q 431 522 453 554 q 398 450 408 490 q 388 369 388 410 q 423 242 388 286 q 525 199 458 199 q 603 217 569 199 q 658 265 636 235 q 690 334 679 294 q 701 418 701 374 z "},"A":{"ha":869,"x_min":15,"x_max":854,"o":"m 633 282 l 236 282 l 140 14 q 135 3 138 7 q 124 0 132 0 l 31 0 q 15 14 15 0 q 17 22 15 18 l 361 958 q 366 969 364 965 q 375 972 368 972 l 494 972 q 503 969 501 972 q 508 958 506 965 l 853 22 q 854 14 854 18 q 839 0 854 0 l 746 0 q 735 3 738 0 q 729 14 732 7 l 633 282 m 276 393 l 593 393 l 435 832 l 276 393 z "},"B":{"ha":874,"x_min":117,"x_max":794,"o":"m 131 0 q 117 14 117 0 l 117 958 q 131 972 117 972 l 465 972 q 573 958 521 972 q 665 915 625 944 q 728 839 704 885 q 753 729 753 793 q 724 603 753 654 q 638 517 694 553 q 699 481 671 501 q 749 431 728 460 q 782 365 769 403 q 794 276 794 326 q 774 163 794 214 q 715 75 753 111 q 623 19 676 39 q 506 0 569 0 l 131 0 m 233 111 l 486 111 q 626 153 574 111 q 678 285 678 194 q 626 414 678 372 q 486 456 574 456 l 233 456 l 233 111 m 233 567 l 481 567 q 541 574 513 567 q 590 599 569 582 q 624 644 611 617 q 636 713 636 672 q 590 823 636 785 q 481 861 544 861 l 233 861 l 233 567 z "},"C":{"ha":982,"x_min":72,"x_max":921,"o":"m 906 338 q 921 324 921 338 q 874 183 910 246 q 783 77 838 121 q 657 10 728 33 q 506 -14 586 -14 q 347 17 425 -14 q 208 109 269 47 q 110 265 147 171 q 72 486 72 358 q 110 707 72 613 q 208 863 147 801 q 347 956 269 925 q 506 986 425 986 q 657 963 586 986 q 783 895 728 939 q 874 789 838 851 q 921 649 910 726 q 906 635 921 635 l 821 635 q 804 649 808 635 q 506 875 739 875 q 387 851 443 875 q 288 780 331 828 q 220 659 246 732 q 194 486 194 586 q 220 313 194 386 q 288 191 246 239 q 387 120 331 143 q 506 97 443 97 q 804 324 739 97 q 821 338 808 338 l 906 338 z "},"D":{"ha":915,"x_min":117,"x_max":843,"o":"m 117 958 q 131 972 117 972 l 400 972 q 571 942 490 972 q 712 851 651 911 q 808 699 772 790 q 843 486 843 607 q 808 274 843 365 q 712 122 772 182 q 571 31 651 61 q 400 0 490 0 l 131 0 q 117 14 117 0 l 117 958 m 233 861 l 233 111 l 383 111 q 518 133 456 111 q 625 201 581 156 q 695 318 669 247 q 721 486 721 389 q 695 654 721 583 q 625 771 669 725 q 518 839 581 817 q 383 861 456 861 l 233 861 z "},"E":{"ha":811,"x_min":117,"x_max":726,"o":"m 233 111 l 713 111 q 726 97 726 111 l 726 14 q 713 0 726 0 l 131 0 q 117 14 117 0 l 117 958 q 131 972 117 972 l 692 972 q 706 958 706 972 l 706 875 q 692 861 706 861 l 233 861 l 233 567 l 650 567 q 664 553 664 567 l 664 469 q 650 456 664 456 l 233 456 l 233 111 z "},"F":{"ha":818,"x_min":117,"x_max":725,"o":"m 233 14 q 219 0 233 0 l 131 0 q 117 14 117 0 l 117 958 q 131 972 117 972 l 711 972 q 725 958 725 972 l 725 875 q 711 861 725 861 l 233 861 l 233 546 l 667 546 q 681 532 681 546 l 681 449 q 667 435 681 435 l 233 435 l 233 14 z "},"G":{"ha":990,"x_min":72,"x_max":926,"o":"m 913 494 q 926 481 926 494 l 926 239 q 913 186 926 207 q 747 35 846 83 q 535 -14 649 -14 q 358 18 442 -14 q 210 113 274 50 q 110 269 147 175 q 72 486 72 363 q 111 705 72 611 q 213 861 150 799 q 354 955 275 924 q 515 986 433 986 q 653 968 588 986 q 772 913 719 950 q 862 822 825 876 q 913 694 899 767 q 897 681 913 681 l 808 681 q 792 694 796 681 q 690 833 765 790 q 515 875 615 875 q 393 850 451 875 q 291 776 335 825 q 221 654 247 726 q 194 486 194 582 q 284 196 194 294 q 529 97 374 97 q 698 134 626 97 q 810 238 769 171 l 810 383 l 533 383 q 519 397 519 383 l 519 481 q 533 494 519 494 l 913 494 z "},"H":{"ha":942,"x_min":117,"x_max":825,"o":"m 233 14 q 219 0 233 0 l 131 0 q 117 14 117 0 l 117 958 q 131 972 117 972 l 219 972 q 233 958 233 972 l 233 563 l 708 563 l 708 958 q 722 972 708 972 l 811 972 q 825 958 825 972 l 825 14 q 811 0 825 0 l 722 0 q 708 14 708 0 l 708 451 l 233 451 l 233 14 z "},"I":{"ha":350,"x_min":117,"x_max":233,"o":"m 117 958 q 131 972 117 972 l 219 972 q 233 958 233 972 l 233 14 q 219 0 233 0 l 131 0 q 117 14 117 0 l 117 958 z "},"J":{"ha":751,"x_min":46,"x_max":668,"o":"m 668 343 q 644 181 668 249 q 577 69 619 113 q 478 6 535 26 q 354 -14 421 -14 q 224 10 281 -14 q 127 75 167 33 q 67 174 88 117 q 46 296 46 231 q 60 310 46 310 l 149 310 q 163 296 163 310 q 176 217 163 253 q 214 154 189 181 q 274 113 239 128 q 354 97 310 97 q 503 156 456 97 q 551 342 551 215 l 551 958 q 565 972 551 972 l 654 972 q 668 958 668 972 l 668 343 z "},"K":{"ha":853,"x_min":117,"x_max":842,"o":"m 233 540 l 626 958 q 638 969 633 965 q 649 972 642 972 l 765 972 q 778 966 776 972 q 774 953 781 960 l 458 614 l 836 19 q 838 6 842 11 q 826 0 833 0 l 714 0 q 701 5 706 0 q 689 21 696 10 l 368 518 l 233 372 l 233 14 q 219 0 233 0 l 131 0 q 117 14 117 0 l 117 958 q 131 972 117 972 l 219 972 q 233 958 233 972 l 233 540 z "},"L":{"ha":803,"x_min":117,"x_max":746,"o":"m 117 958 q 131 972 117 972 l 219 972 q 233 958 233 972 l 233 111 l 732 111 q 746 97 746 111 l 746 14 q 732 0 746 0 l 131 0 q 117 14 117 0 l 117 958 z "},"M":{"ha":1108,"x_min":117,"x_max":992,"o":"m 992 14 q 978 0 992 0 l 889 0 q 875 14 875 0 l 875 790 l 603 175 q 585 163 597 163 l 524 163 q 506 175 511 163 l 233 790 l 233 14 q 219 0 233 0 l 131 0 q 117 14 117 0 l 117 958 q 131 972 117 972 l 263 972 q 285 958 279 972 l 554 340 l 824 958 q 846 972 829 972 l 978 972 q 992 958 992 972 l 992 14 z "},"N":{"ha":967,"x_min":117,"x_max":850,"o":"m 729 0 q 716 2 722 0 q 707 11 710 4 l 233 789 l 233 14 q 219 0 233 0 l 131 0 q 117 14 117 0 l 117 958 q 131 972 117 972 l 238 972 q 251 970 244 972 q 260 961 257 968 l 733 183 l 733 958 q 747 972 733 972 l 836 972 q 850 958 850 972 l 850 14 q 836 0 850 0 l 729 0 z "},"O":{"ha":1067,"x_min":72,"x_max":994,"o":"m 533 -14 q 365 17 447 -14 q 217 111 282 49 q 112 267 151 174 q 72 486 72 361 q 112 705 72 611 q 217 861 151 799 q 365 955 282 924 q 533 986 447 986 q 702 955 619 986 q 850 861 785 924 q 955 705 915 799 q 994 486 994 611 q 955 267 994 361 q 850 111 915 174 q 702 17 785 49 q 533 -14 619 -14 m 533 97 q 663 121 601 97 q 770 192 724 144 q 844 313 817 240 q 872 486 872 386 q 844 659 872 586 q 770 780 817 732 q 663 851 724 828 q 533 875 601 875 q 404 851 465 875 q 297 780 343 828 q 222 659 250 732 q 194 486 194 586 q 222 313 194 386 q 297 192 250 240 q 404 121 343 144 q 533 97 465 97 z "},"P":{"ha":842,"x_min":117,"x_max":783,"o":"m 117 958 q 131 972 117 972 l 467 972 q 703 901 624 972 q 783 701 783 831 q 703 501 783 572 q 467 431 624 431 l 233 431 l 233 14 q 219 0 233 0 l 131 0 q 117 14 117 0 l 117 958 m 233 542 l 485 542 q 618 580 575 542 q 661 701 661 618 q 618 823 661 785 q 485 861 575 861 l 233 861 l 233 542 z "},"Q":{"ha":1067,"x_min":72,"x_max":994,"o":"m 533 -14 q 365 17 447 -14 q 217 111 282 49 q 112 267 151 174 q 72 486 72 361 q 112 705 72 611 q 217 861 151 799 q 365 955 282 924 q 533 986 447 986 q 702 955 619 986 q 850 861 785 924 q 955 705 915 799 q 994 486 994 611 q 966 299 994 381 q 889 154 938 217 l 975 72 q 981 63 981 67 q 975 53 981 58 l 913 -12 q 903 -18 907 -18 q 893 -12 899 -18 l 804 72 q 674 8 744 29 q 533 -14 604 -14 m 806 236 q 855 344 838 282 q 872 486 872 407 q 844 659 872 586 q 770 780 817 732 q 663 851 724 828 q 533 875 601 875 q 404 851 465 875 q 297 780 343 828 q 222 659 250 732 q 194 486 194 586 q 222 313 194 386 q 297 192 250 240 q 404 121 343 144 q 533 97 465 97 q 633 110 585 97 q 722 151 682 124 l 624 249 q 618 258 618 254 q 624 268 618 263 l 686 333 q 696 339 692 339 q 706 333 700 339 l 806 236 z "},"R":{"ha":854,"x_min":117,"x_max":804,"o":"m 117 958 q 131 972 117 972 l 474 972 q 690 907 613 972 q 768 715 768 842 q 754 625 768 665 q 715 555 740 585 q 657 504 690 525 q 586 471 624 483 l 799 14 q 788 0 804 0 l 690 0 q 671 14 679 0 l 460 458 l 233 458 l 233 14 q 219 0 233 0 l 131 0 q 117 14 117 0 l 117 958 m 233 569 l 482 569 q 610 605 569 569 q 651 715 651 640 q 610 825 651 789 q 482 861 569 861 l 233 861 l 233 569 z "},"S":{"ha":819,"x_min":50,"x_max":767,"o":"m 75 726 q 101 839 75 790 q 173 920 128 888 q 277 969 218 953 q 401 986 336 986 q 542 964 481 986 q 645 904 603 942 q 710 817 688 867 q 735 715 733 768 q 721 701 735 701 l 632 701 q 618 715 618 701 q 598 781 615 751 q 551 831 581 810 q 483 863 522 851 q 401 875 444 875 q 319 865 357 875 q 252 838 281 856 q 208 792 224 819 q 192 732 192 765 q 211 665 192 693 q 265 617 231 638 q 347 580 300 596 q 449 550 394 564 q 574 510 515 532 q 674 456 632 488 q 742 383 717 425 q 767 283 767 342 q 740 153 767 208 q 666 60 714 97 q 553 4 618 22 q 408 -14 488 -14 q 267 8 333 -14 q 153 72 201 31 q 78 169 106 113 q 50 294 50 225 q 64 308 50 308 l 153 308 q 167 294 167 308 q 186 217 168 253 q 235 154 204 181 q 310 113 267 128 q 408 97 354 97 q 585 140 521 97 q 650 276 650 183 q 629 339 650 313 q 574 385 608 365 q 492 419 539 404 q 396 446 446 433 q 266 487 325 464 q 165 542 207 510 q 99 620 122 575 q 75 726 75 665 z "},"T":{"ha":783,"x_min":35,"x_max":749,"o":"m 35 958 q 49 972 35 972 l 735 972 q 749 958 749 972 l 749 875 q 735 861 749 861 l 450 861 l 450 14 q 436 0 450 0 l 347 0 q 333 14 333 0 l 333 861 l 49 861 q 35 875 35 861 l 35 958 z "},"U":{"ha":889,"x_min":94,"x_max":794,"o":"m 94 958 q 108 972 94 972 l 197 972 q 211 958 211 972 l 211 351 q 272 162 211 226 q 444 97 332 97 q 617 162 557 97 q 678 351 678 226 l 678 958 q 692 972 678 972 l 781 972 q 794 958 794 972 l 794 336 q 767 188 794 253 q 694 78 740 122 q 583 10 647 33 q 444 -14 519 -14 q 306 10 369 -14 q 195 78 242 33 q 122 188 149 122 q 94 336 94 253 l 94 958 z "},"V":{"ha":867,"x_min":11,"x_max":856,"o":"m 513 14 q 497 0 508 0 l 369 0 q 354 14 358 0 l 15 958 q 26 972 11 972 l 135 972 q 151 958 147 972 l 433 139 l 715 958 q 732 972 719 972 l 840 972 q 851 958 856 972 l 513 14 z "},"W":{"ha":1161,"x_min":19,"x_max":1142,"o":"m 922 14 q 907 0 918 0 l 781 0 q 765 14 769 0 l 581 738 l 396 14 q 381 0 392 0 l 254 0 q 239 14 243 0 l 24 958 q 35 972 19 972 l 133 972 q 150 958 146 972 l 326 154 l 513 892 q 529 906 517 906 l 632 906 q 649 892 644 906 l 835 154 l 1011 958 q 1028 972 1013 972 l 1126 972 q 1138 958 1142 972 l 922 14 z "},"X":{"ha":828,"x_min":11,"x_max":817,"o":"m 414 615 l 642 958 q 651 970 649 968 q 661 972 654 972 l 768 972 q 778 968 775 972 q 778 958 781 964 l 483 513 l 814 14 q 814 4 817 8 q 804 0 811 0 l 700 0 q 689 2 693 0 q 678 14 685 4 l 414 411 l 150 14 q 139 2 143 4 q 128 0 135 0 l 24 0 q 14 4 17 0 q 14 14 11 8 l 344 513 l 50 958 q 50 968 47 964 q 60 972 53 972 l 167 972 q 176 970 174 972 q 186 958 179 968 l 414 615 z "},"Y":{"ha":758,"x_min":10,"x_max":749,"o":"m 438 358 l 438 14 q 424 0 438 0 l 335 0 q 321 14 321 0 l 321 358 l 13 958 q 13 969 10 965 q 21 972 15 972 l 131 972 q 147 961 142 972 l 379 500 l 611 961 q 628 972 617 972 l 738 972 q 746 969 743 972 q 746 958 749 965 l 438 358 z "},"Z":{"ha":842,"x_min":57,"x_max":781,"o":"m 81 958 q 94 972 81 972 l 738 972 q 751 958 751 972 l 751 875 q 743 851 751 864 l 199 111 l 767 111 q 781 97 781 111 l 781 14 q 767 0 781 0 l 71 0 q 57 14 57 0 l 57 97 q 65 121 57 108 l 611 861 l 94 861 q 81 875 81 861 l 81 958 z "},"[":{"ha":568,"x_min":117,"x_max":496,"o":"m 117 958 q 131 972 117 972 l 482 972 q 496 958 496 972 l 496 875 q 482 861 496 861 l 233 861 l 233 -164 l 482 -164 q 496 -178 496 -164 l 496 -261 q 482 -275 496 -275 l 131 -275 q 117 -261 117 -275 l 117 958 z "},"\\":{"ha":669,"x_min":17,"x_max":633,"o":"m 628 14 q 619 0 633 0 l 524 0 q 504 14 510 0 l 22 958 q 31 972 17 972 l 126 972 q 146 958 140 972 l 628 14 z "},"]":{"ha":568,"x_min":72,"x_max":451,"o":"m 451 -261 q 438 -275 451 -275 l 86 -275 q 72 -261 72 -275 l 72 -178 q 86 -164 72 -164 l 335 -164 l 335 861 l 86 861 q 72 875 72 861 l 72 958 q 86 972 72 972 l 438 972 q 451 958 451 972 l 451 -261 z "},"^":{"ha":772,"x_min":44,"x_max":728,"o":"m 56 515 q 47 519 49 515 q 47 529 44 524 l 314 958 q 332 972 321 972 l 440 972 q 458 958 451 972 l 725 529 q 726 519 728 524 q 717 515 724 515 l 619 515 q 600 529 607 515 l 386 883 l 172 529 q 153 515 165 515 l 56 515 z "},"_":{"ha":779,"x_min":90,"x_max":689,"o":"m 675 0 q 689 -14 689 0 l 689 -94 q 675 -108 689 -108 l 104 -108 q 90 -94 90 -108 l 90 -14 q 104 0 90 0 l 675 0 z "},"`":{"ha":526,"x_min":133,"x_max":393,"o":"m 392 783 q 393 778 393 781 q 385 769 393 769 l 304 769 q 279 782 289 769 l 136 958 q 133 965 133 963 q 143 972 133 972 l 275 972 q 296 958 288 972 l 392 783 z "},"a":{"ha":749,"x_min":67,"x_max":679,"o":"m 104 490 q 94 499 94 490 q 94 505 94 501 q 96 513 94 508 q 128 588 106 551 q 186 651 151 624 q 268 695 221 679 q 376 711 315 711 q 488 694 436 711 q 575 644 539 676 q 632 567 611 613 q 653 468 653 522 l 653 133 q 654 91 653 108 q 658 61 656 74 q 665 38 661 49 q 676 14 669 26 q 679 7 679 8 q 668 0 679 0 l 558 0 q 544 14 544 0 l 544 86 q 451 13 511 40 q 317 -14 392 -14 q 226 0 271 -14 q 147 41 182 14 q 89 110 111 68 q 67 207 67 151 q 89 308 67 265 q 149 381 111 351 q 239 424 188 410 q 349 439 290 439 q 451 430 401 439 q 544 408 500 421 l 544 447 q 501 567 544 526 q 376 608 457 608 q 273 581 314 608 q 213 503 232 553 q 205 492 210 494 q 193 490 200 490 l 104 490 m 544 306 q 456 328 501 321 q 356 336 411 336 q 286 329 318 336 q 231 308 254 322 q 194 269 207 293 q 181 214 181 246 q 219 121 181 153 q 329 89 258 89 q 412 103 372 89 q 481 144 451 117 q 527 213 510 172 q 544 306 544 253 z "},"b":{"ha":828,"x_min":111,"x_max":758,"o":"m 111 958 q 125 972 111 972 l 206 972 q 219 958 219 972 l 219 617 q 317 684 260 657 q 447 711 375 711 q 575 685 518 711 q 673 610 632 658 q 736 496 714 563 q 758 349 758 429 q 736 201 758 268 q 673 87 714 135 q 575 13 632 39 q 447 -14 518 -14 q 317 13 376 -14 q 219 79 257 39 l 219 14 q 206 0 219 0 l 125 0 q 111 14 111 0 l 111 958 m 208 349 q 224 244 208 292 q 267 161 239 196 q 337 108 296 126 q 429 89 378 89 q 522 108 482 89 q 590 161 563 126 q 631 244 617 196 q 644 349 644 292 q 631 453 644 406 q 590 535 617 501 q 522 589 563 569 q 429 608 482 608 q 337 589 378 608 q 267 535 296 569 q 224 453 239 501 q 208 349 208 406 z "},"c":{"ha":788,"x_min":69,"x_max":725,"o":"m 414 608 q 247 541 310 608 q 183 349 183 474 q 247 156 183 224 q 414 89 310 89 q 537 125 485 89 q 611 228 589 161 q 619 238 614 236 q 631 240 624 240 l 715 240 q 725 232 725 240 q 725 226 725 229 q 724 218 725 222 q 619 50 697 114 q 414 -14 542 -14 q 272 14 335 -14 q 163 90 208 42 q 94 205 118 139 q 69 349 69 271 q 94 492 69 426 q 163 607 118 558 q 272 683 208 656 q 414 711 335 711 q 619 647 542 711 q 724 479 697 583 q 725 472 725 475 q 725 465 725 468 q 715 457 725 457 l 631 457 q 619 459 624 457 q 611 469 614 461 q 537 572 589 536 q 414 608 485 608 z "},"d":{"ha":828,"x_min":69,"x_max":717,"o":"m 717 14 q 703 0 717 0 l 622 0 q 608 14 608 0 l 608 79 q 511 13 571 39 q 381 -14 451 -14 q 253 13 310 -14 q 155 87 196 39 q 92 201 114 135 q 69 349 69 268 q 92 496 69 429 q 155 610 114 563 q 253 685 196 658 q 381 711 310 711 q 510 684 453 711 q 608 617 568 657 l 608 958 q 622 972 608 972 l 703 972 q 717 958 717 972 l 717 14 m 619 349 q 604 453 619 406 q 560 535 589 501 q 491 589 532 569 q 399 608 450 608 q 306 589 346 608 q 238 535 265 569 q 197 453 211 501 q 183 349 183 406 q 197 244 183 292 q 238 161 211 196 q 306 108 265 126 q 399 89 346 89 q 491 108 450 89 q 560 161 532 126 q 604 244 589 196 q 619 349 619 292 z "},"e":{"ha":824,"x_min":69,"x_max":757,"o":"m 186 315 q 256 151 194 213 q 419 89 317 89 q 544 119 492 89 q 624 217 596 149 q 631 227 626 225 q 643 229 636 229 l 733 229 q 743 219 743 229 q 743 215 743 217 q 740 206 743 213 q 617 40 700 94 q 417 -14 533 -14 q 273 14 338 -14 q 163 91 208 42 q 94 206 118 140 q 69 349 69 272 q 95 491 69 425 q 167 606 121 557 q 278 683 214 656 q 417 711 342 711 q 559 682 496 711 q 666 603 622 653 q 733 489 710 554 q 757 351 757 424 l 757 329 q 743 315 757 315 l 186 315 m 417 608 q 340 597 376 608 q 274 560 304 585 q 223 501 244 536 q 192 418 201 465 l 640 418 q 563 556 624 504 q 417 608 503 608 z "},"f":{"ha":519,"x_min":33,"x_max":504,"o":"m 269 594 l 269 14 q 256 0 269 0 l 175 0 q 161 14 161 0 l 161 594 l 47 594 q 33 608 33 594 l 33 683 q 47 697 33 697 l 161 697 l 161 786 q 176 866 161 829 q 216 929 190 903 q 278 971 242 956 q 360 986 315 986 q 433 979 400 986 q 493 960 465 972 q 503 951 501 956 q 504 936 504 946 l 504 863 q 496 850 504 850 q 485 853 490 850 q 420 878 447 872 q 363 883 393 883 q 294 855 319 883 q 269 776 269 826 l 269 697 l 483 697 q 497 683 497 697 l 497 608 q 483 594 497 594 l 269 594 z "},"g":{"ha":808,"x_min":69,"x_max":711,"o":"m 410 -289 q 297 -274 350 -289 q 203 -231 244 -260 q 138 -159 163 -201 q 110 -62 114 -117 q 124 -49 110 -49 l 204 -49 q 218 -62 218 -49 q 278 -156 233 -125 q 410 -186 322 -186 q 558 -124 513 -186 q 603 39 603 -61 l 603 89 q 505 26 557 49 q 381 3 453 3 q 257 28 314 3 q 158 99 200 53 q 93 211 117 146 q 69 357 69 276 q 92 503 69 438 q 157 615 115 568 q 256 686 199 661 q 381 711 313 711 q 508 686 451 711 q 603 621 565 661 l 603 683 q 617 697 603 697 l 697 697 q 711 683 711 697 l 711 42 q 636 -202 711 -115 q 410 -289 561 -289 m 614 357 q 556 539 614 469 q 399 608 499 608 q 239 539 294 608 q 183 357 183 469 q 239 175 183 244 q 399 106 294 106 q 556 175 499 106 q 614 357 614 244 z "},"h":{"ha":803,"x_min":111,"x_max":706,"o":"m 111 958 q 125 972 111 972 l 206 972 q 219 958 219 972 l 219 594 q 330 679 263 647 q 464 711 397 711 q 640 650 575 711 q 706 471 706 589 l 706 14 q 692 0 706 0 l 611 0 q 597 14 597 0 l 597 443 q 556 567 597 526 q 435 608 514 608 q 355 592 393 608 q 286 543 317 575 q 238 465 256 511 q 219 358 219 418 l 219 14 q 206 0 219 0 l 125 0 q 111 14 111 0 l 111 958 z "},"i":{"ha":297,"x_min":75,"x_max":222,"o":"m 94 683 q 108 697 94 697 l 189 697 q 203 683 203 697 l 203 14 q 189 0 203 0 l 108 0 q 94 14 94 0 l 94 683 m 75 958 q 89 972 75 972 l 208 972 q 222 958 222 972 l 222 839 q 208 825 222 825 l 89 825 q 75 839 75 825 l 75 958 z "},"j":{"ha":297,"x_min":50,"x_max":222,"o":"m 94 683 q 108 697 94 697 l 189 697 q 203 683 203 697 l 203 -37 q 190 -178 203 -124 q 158 -278 176 -233 q 147 -289 154 -289 q 138 -286 144 -289 l 64 -260 q 54 -243 50 -256 q 83 -155 72 -194 q 94 -54 94 -115 l 94 683 m 75 958 q 89 972 75 972 l 208 972 q 222 958 222 972 l 222 839 q 208 825 222 825 l 89 825 q 75 839 75 825 l 75 958 z "},"k":{"ha":733,"x_min":111,"x_max":703,"o":"m 419 446 l 700 21 q 703 11 703 17 q 690 0 703 0 l 593 0 q 571 13 578 0 l 335 367 l 219 257 l 219 14 q 206 0 219 0 l 125 0 q 111 14 111 0 l 111 958 q 125 972 111 972 l 206 972 q 219 958 219 972 l 219 400 l 524 685 q 534 694 529 690 q 546 697 539 697 l 661 697 q 672 688 672 697 q 667 676 672 682 l 419 446 z "},"l":{"ha":331,"x_min":111,"x_max":219,"o":"m 111 958 q 125 972 111 972 l 206 972 q 219 958 219 972 l 219 14 q 206 0 219 0 l 125 0 q 111 14 111 0 l 111 958 z "},"m":{"ha":1106,"x_min":111,"x_max":1008,"o":"m 111 683 q 125 697 111 697 l 206 697 q 219 683 219 697 l 219 607 q 251 647 231 628 q 296 680 271 665 q 349 703 321 694 q 407 711 378 711 q 528 684 479 711 q 601 599 576 657 q 685 679 631 647 q 801 711 739 711 q 955 659 901 711 q 1008 497 1008 607 l 1008 14 q 994 0 1008 0 l 914 0 q 900 14 900 0 l 900 478 q 870 574 900 540 q 774 608 840 608 q 712 592 740 608 q 661 544 683 575 q 626 467 639 513 q 614 367 614 422 l 614 14 q 600 0 614 0 l 519 0 q 506 14 506 0 l 506 478 q 476 574 506 540 q 379 608 447 608 q 317 592 346 608 q 267 544 289 575 q 232 467 244 513 q 219 367 219 422 l 219 14 q 206 0 219 0 l 125 0 q 111 14 111 0 l 111 683 z "},"n":{"ha":792,"x_min":111,"x_max":692,"o":"m 111 683 q 125 697 111 697 l 206 697 q 219 683 219 697 l 219 604 q 317 682 260 653 q 450 711 375 711 q 626 646 560 711 q 692 458 692 581 l 692 14 q 678 0 692 0 l 597 0 q 583 14 583 0 l 583 442 q 542 567 583 526 q 425 608 500 608 q 278 545 338 608 q 219 356 219 482 l 219 14 q 206 0 219 0 l 125 0 q 111 14 111 0 l 111 683 z "},"o":{"ha":847,"x_min":69,"x_max":778,"o":"m 69 349 q 97 499 69 432 q 172 613 124 565 q 284 685 219 660 q 424 711 349 711 q 563 685 499 711 q 676 613 628 660 q 751 499 724 565 q 778 349 778 432 q 751 199 778 265 q 676 85 724 132 q 563 12 628 38 q 424 -14 499 -14 q 284 12 349 -14 q 172 85 219 38 q 97 199 124 132 q 69 349 69 265 m 183 349 q 201 242 183 290 q 250 160 218 194 q 326 108 282 126 q 424 89 369 89 q 522 108 478 89 q 597 160 565 126 q 647 242 629 194 q 664 349 664 290 q 647 455 664 407 q 597 537 629 503 q 522 590 565 571 q 424 608 478 608 q 326 590 369 608 q 250 537 282 571 q 201 455 218 503 q 183 349 183 407 z "},"p":{"ha":828,"x_min":111,"x_max":758,"o":"m 111 683 q 125 697 111 697 l 206 697 q 219 683 219 697 l 219 618 q 317 685 257 658 q 447 711 376 711 q 575 685 518 711 q 673 610 632 658 q 736 496 714 563 q 758 349 758 429 q 736 201 758 268 q 673 87 714 135 q 575 13 632 39 q 447 -14 518 -14 q 317 13 375 -14 q 219 81 260 40 l 219 -261 q 206 -275 219 -275 l 125 -275 q 111 -261 111 -275 l 111 683 m 208 349 q 224 244 208 292 q 267 161 239 196 q 337 108 296 126 q 429 89 378 89 q 522 108 482 89 q 590 161 563 126 q 631 244 617 196 q 644 349 644 292 q 631 453 644 406 q 590 535 617 501 q 522 589 563 569 q 429 608 482 608 q 337 589 378 608 q 267 535 296 569 q 224 453 239 501 q 208 349 208 406 z "},"q":{"ha":828,"x_min":69,"x_max":717,"o":"m 717 -261 q 703 -275 717 -275 l 622 -275 q 608 -261 608 -275 l 608 81 q 510 13 568 40 q 381 -14 453 -14 q 253 13 310 -14 q 155 87 196 39 q 92 201 114 135 q 69 349 69 268 q 92 496 69 429 q 155 610 114 563 q 253 685 196 658 q 381 711 310 711 q 511 685 451 711 q 608 618 571 658 l 608 683 q 622 697 608 697 l 703 697 q 717 683 717 697 l 717 -261 m 619 349 q 604 453 619 406 q 560 535 589 501 q 491 589 532 569 q 399 608 450 608 q 306 589 346 608 q 238 535 265 569 q 197 453 211 501 q 183 349 183 406 q 197 244 183 292 q 238 161 211 196 q 306 108 265 126 q 399 89 346 89 q 491 108 450 89 q 560 161 532 126 q 604 244 589 196 q 619 349 619 292 z "},"r":{"ha":600,"x_min":111,"x_max":554,"o":"m 554 581 q 539 565 554 565 q 464 598 496 588 q 389 608 432 608 q 320 592 351 608 q 267 546 289 575 q 232 477 244 517 q 219 392 219 438 l 219 14 q 206 0 219 0 l 125 0 q 111 14 111 0 l 111 683 q 125 697 111 697 l 206 697 q 219 683 219 697 l 219 607 q 301 681 251 650 q 422 711 351 711 q 483 705 457 711 q 538 689 510 699 q 554 664 553 683 l 554 581 z "},"s":{"ha":694,"x_min":57,"x_max":629,"o":"m 629 204 q 608 111 629 151 q 551 43 588 71 q 463 1 514 15 q 350 -14 411 -14 q 235 3 289 -14 q 142 50 182 19 q 80 122 103 81 q 57 213 57 164 q 71 226 57 226 l 160 226 q 174 213 172 226 q 228 120 182 151 q 354 89 275 89 q 470 113 425 89 q 515 190 515 136 q 467 269 515 244 q 313 310 419 293 q 131 375 188 329 q 75 513 75 421 q 96 597 75 560 q 152 660 117 635 q 235 698 188 685 q 339 711 283 711 q 526 657 457 711 q 607 511 594 603 q 593 497 607 497 l 515 497 q 506 501 508 497 q 501 511 504 504 q 439 585 486 563 q 335 608 392 608 q 226 585 268 608 q 183 515 183 563 q 194 472 183 490 q 229 441 206 454 q 290 418 253 428 q 379 399 326 408 q 474 377 429 390 q 554 342 519 364 q 609 287 589 319 q 629 204 629 254 z "},"t":{"ha":583,"x_min":36,"x_max":543,"o":"m 513 697 q 526 683 526 697 l 526 608 q 513 594 526 594 l 282 594 l 282 207 q 392 89 282 89 q 456 92 426 89 q 524 110 486 96 q 533 113 529 113 q 543 99 543 113 l 543 33 q 542 18 543 24 q 532 10 540 13 q 383 -14 469 -14 q 229 42 285 -14 q 174 197 174 97 l 174 594 l 50 594 q 36 608 36 594 l 36 683 q 50 697 36 697 l 174 697 l 174 897 q 188 911 174 911 l 268 911 q 282 897 282 911 l 282 697 l 513 697 z "},"u":{"ha":792,"x_min":100,"x_max":681,"o":"m 681 14 q 667 0 681 0 l 586 0 q 572 14 572 0 l 572 93 q 474 15 532 44 q 342 -14 417 -14 q 166 51 232 -14 q 100 239 100 117 l 100 683 q 114 697 100 697 l 194 697 q 208 683 208 697 l 208 256 q 250 130 208 171 q 367 89 292 89 q 513 152 454 89 q 572 342 572 215 l 572 683 q 586 697 572 697 l 667 697 q 681 683 681 697 l 681 14 z "},"v":{"ha":675,"x_min":14,"x_max":661,"o":"m 403 14 q 386 0 397 0 l 289 0 q 272 14 278 0 l 15 675 q 14 685 14 678 q 26 697 14 697 l 119 697 q 139 683 135 697 l 338 138 l 536 683 q 556 697 540 697 l 649 697 q 661 685 661 697 q 660 675 661 678 l 403 14 z "},"w":{"ha":1036,"x_min":17,"x_max":1019,"o":"m 806 14 q 788 0 801 0 l 689 0 q 671 14 675 0 l 518 524 l 365 14 q 347 0 361 0 l 249 0 q 231 14 233 0 l 18 676 q 17 688 17 682 q 28 697 17 697 l 124 697 q 138 694 135 697 q 143 683 140 690 l 296 142 l 450 650 q 455 660 453 657 q 465 664 457 664 l 571 664 q 581 660 579 664 q 586 650 583 657 l 740 142 l 893 683 q 899 694 896 690 q 913 697 901 697 l 1008 697 q 1019 688 1019 697 q 1018 676 1019 682 l 806 14 z "},"x":{"ha":675,"x_min":17,"x_max":658,"o":"m 338 454 l 504 688 q 524 697 511 697 l 622 697 q 632 688 632 697 q 629 679 632 685 l 403 365 l 654 18 q 658 7 658 11 q 650 0 658 0 l 544 0 q 525 14 533 0 l 338 278 l 150 14 q 131 0 142 0 l 25 0 q 17 7 17 0 q 21 18 17 11 l 272 365 l 46 679 q 43 688 43 685 q 53 697 43 697 l 151 697 q 171 688 164 697 l 338 454 z "},"y":{"ha":672,"x_min":17,"x_max":651,"o":"m 128 697 q 146 683 142 697 l 351 153 l 526 683 q 532 694 529 690 q 544 697 535 697 l 640 697 q 651 688 651 697 q 650 678 651 682 l 396 -68 q 348 -174 374 -132 q 292 -242 322 -217 q 228 -278 263 -268 q 156 -289 194 -289 q 99 -283 121 -289 q 53 -267 76 -278 q 41 -256 43 -261 q 39 -244 39 -251 l 39 -169 q 50 -156 39 -156 q 66 -160 58 -156 q 85 -171 74 -165 q 111 -181 96 -176 q 150 -186 126 -186 q 239 -144 206 -186 q 297 -10 272 -101 l 19 675 q 17 686 17 683 q 28 697 17 697 l 128 697 l 128 697 z "},"z":{"ha":671,"x_min":46,"x_max":618,"o":"m 64 683 q 78 697 64 697 l 578 697 q 592 683 592 697 l 592 608 q 590 596 592 601 q 581 579 588 590 l 182 103 l 604 103 q 618 89 618 103 l 618 14 q 604 0 618 0 l 60 0 q 46 14 46 0 l 46 89 q 49 101 46 96 q 54 110 51 106 l 460 594 l 78 594 q 64 608 64 594 l 64 683 z "},"{":{"ha":539,"x_min":43,"x_max":467,"o":"m 297 -19 q 318 -127 297 -90 q 390 -164 339 -164 l 453 -164 q 467 -178 467 -164 l 467 -261 q 453 -275 467 -275 l 388 -275 q 288 -259 328 -275 q 224 -210 249 -243 q 190 -125 200 -176 q 181 -4 181 -74 l 181 201 q 157 272 181 250 q 93 293 133 293 l 57 293 q 43 307 43 293 l 43 390 q 57 404 43 404 l 93 404 q 157 426 133 404 q 181 496 181 447 l 181 701 q 190 822 181 771 q 224 907 200 874 q 288 956 249 940 q 388 972 328 972 l 453 972 q 467 958 467 972 l 467 875 q 453 861 467 861 l 390 861 q 318 824 339 861 q 297 717 297 788 l 297 474 q 277 397 297 431 q 210 349 257 364 q 277 300 257 333 q 297 224 297 267 l 297 -19 z "},"|":{"ha":350,"x_min":117,"x_max":233,"o":"m 117 958 q 131 972 117 972 l 219 972 q 233 958 233 972 l 233 -125 q 219 -139 233 -139 l 131 -139 q 117 -125 117 -139 l 117 958 z "},"}":{"ha":539,"x_min":72,"x_max":496,"o":"m 242 224 q 262 300 242 267 q 329 349 282 333 q 262 397 282 364 q 242 474 242 431 l 242 717 q 221 824 242 788 q 149 861 200 861 l 86 861 q 72 875 72 861 l 72 958 q 86 972 72 972 l 151 972 q 251 956 211 972 q 315 907 290 940 q 349 822 339 874 q 358 701 358 771 l 358 496 q 382 426 358 447 q 446 404 406 404 l 482 404 q 496 390 496 404 l 496 307 q 482 293 496 293 l 446 293 q 382 272 406 293 q 358 201 358 250 l 358 -4 q 349 -125 358 -74 q 315 -210 339 -176 q 251 -259 290 -243 q 151 -275 211 -275 l 86 -275 q 72 -261 72 -275 l 72 -178 q 86 -164 72 -164 l 149 -164 q 221 -127 200 -164 q 242 -19 242 -90 l 242 224 z "},"~":{"ha":754,"x_min":68,"x_max":686,"o":"m 81 506 q 117 527 97 518 q 160 542 138 536 q 203 552 182 549 q 240 556 224 556 q 318 547 285 556 q 381 527 351 538 q 441 508 411 517 q 508 499 471 499 q 564 507 540 499 q 615 533 588 515 q 625 536 621 536 q 639 525 632 536 l 685 456 q 686 450 686 453 q 674 432 686 440 q 637 410 657 419 q 594 395 617 401 q 551 385 572 389 q 514 382 531 382 q 436 391 469 382 q 373 410 403 400 q 313 430 343 421 q 246 439 283 439 q 190 431 214 439 q 139 404 167 422 q 129 401 133 401 q 115 413 122 401 l 69 482 q 68 488 68 485 q 81 506 68 497 z "}," ":{"ha":354,"x_min":0,"x_max":0,"o":""},"¡":{"ha":447,"x_min":140,"x_max":279,"o":"m 254 -275 q 268 -261 268 -275 l 268 415 q 254 429 268 429 l 165 429 q 151 415 151 429 l 151 -261 q 165 -275 151 -275 l 254 -275 m 265 558 q 279 572 279 558 l 279 683 q 265 697 279 697 l 154 697 q 140 683 140 697 l 140 572 q 154 558 140 558 l 265 558 z "},"¢":{"ha":788,"x_min":69,"x_max":725,"o":"m 349 128 q 232 170 283 139 q 144 249 181 201 q 89 356 108 296 q 69 486 69 417 q 89 616 69 556 q 144 723 108 676 q 232 801 181 769 q 349 843 283 832 l 349 958 q 363 972 349 972 l 451 972 q 465 958 465 972 l 465 846 q 635 771 569 832 q 724 617 700 710 q 725 609 725 613 q 725 603 725 606 q 715 594 725 594 l 631 594 q 619 597 624 594 q 611 607 614 599 q 556 695 593 661 q 465 740 518 729 l 465 232 q 556 277 518 243 q 611 365 593 311 q 619 376 614 374 q 631 378 624 378 l 715 378 q 725 369 725 378 q 725 363 725 367 q 724 356 725 360 q 635 200 700 261 q 465 126 569 139 l 465 14 q 451 0 465 0 l 363 0 q 349 14 349 0 l 349 128 m 183 486 q 228 317 183 382 q 349 233 272 253 l 349 738 q 228 654 272 718 q 183 486 183 590 z "},"£":{"ha":817,"x_min":61,"x_max":744,"o":"m 190 386 q 190 410 190 399 q 188 432 190 421 l 75 432 q 61 446 61 432 l 61 526 q 75 540 61 540 l 153 540 q 133 606 142 571 q 125 689 125 640 q 147 810 125 756 q 208 904 169 865 q 301 965 247 943 q 419 986 356 986 q 544 964 489 986 q 638 904 600 942 q 697 817 676 867 q 718 711 718 767 q 704 697 718 697 l 615 697 q 601 711 601 697 q 587 774 600 744 q 550 826 574 803 q 494 862 526 849 q 419 875 461 875 q 290 827 338 875 q 242 689 242 779 q 254 608 242 640 q 281 540 267 576 l 565 540 q 579 526 579 540 l 579 446 q 565 432 579 432 l 304 432 q 306 407 306 419 q 307 379 307 394 q 288 252 307 322 q 215 111 268 182 l 731 111 q 744 97 744 111 l 744 14 q 731 0 744 0 l 106 0 q 92 14 92 0 l 92 111 q 103 139 92 124 q 143 196 126 169 q 170 249 160 222 q 185 309 181 276 q 190 386 190 342 z "},"¤":{"ha":750,"x_min":72,"x_max":678,"o":"m 149 211 q 106 365 106 275 q 149 519 106 454 l 82 586 q 82 606 72 596 l 135 658 q 154 658 144 668 l 221 592 q 375 635 288 635 q 529 592 460 635 l 596 658 q 615 658 606 668 l 668 606 q 668 586 678 596 l 601 519 q 633 449 621 488 q 644 365 644 410 q 633 281 644 319 q 601 211 621 243 l 668 144 q 668 125 678 135 l 615 72 q 596 72 606 63 l 529 139 q 375 96 464 96 q 292 106 332 96 q 221 139 253 117 l 154 72 q 135 72 144 63 l 82 125 q 82 144 72 135 l 149 211 m 208 365 q 254 238 208 286 q 375 190 300 190 q 496 238 450 190 q 542 365 542 286 q 496 492 542 444 q 375 540 450 540 q 254 492 300 540 q 208 365 208 444 z "},"¥":{"ha":758,"x_min":10,"x_max":749,"o":"m 265 467 l 13 958 q 13 969 10 965 q 21 972 17 972 l 132 972 q 147 961 143 972 l 379 500 l 611 961 q 626 972 615 972 l 738 972 q 745 969 742 972 q 746 958 749 965 l 493 467 l 689 467 q 703 453 703 467 l 703 372 q 689 358 703 358 l 438 358 l 438 265 l 661 265 q 675 251 675 265 l 675 171 q 661 157 675 157 l 438 157 l 438 14 q 424 0 438 0 l 335 0 q 321 14 321 0 l 321 157 l 108 157 q 94 171 94 157 l 94 251 q 108 265 94 265 l 321 265 l 321 358 l 81 358 q 67 372 67 358 l 67 453 q 81 467 67 467 l 265 467 z "},"¦":{"ha":350,"x_min":117,"x_max":233,"o":"m 117 958 q 131 972 117 972 l 219 972 q 233 958 233 972 l 233 444 q 219 431 233 431 l 131 431 q 117 444 117 431 l 117 958 m 117 253 q 131 267 117 267 l 219 267 q 233 253 233 267 l 233 -261 q 219 -275 233 -275 l 131 -275 q 117 -261 117 -275 l 117 253 z "},"§":{"ha":699,"x_min":63,"x_max":625,"o":"m 625 -35 q 603 -140 625 -93 q 544 -221 582 -187 q 456 -272 507 -254 q 347 -289 406 -289 q 229 -268 282 -289 q 140 -211 176 -247 q 83 -128 103 -175 q 63 -28 63 -81 q 76 -14 63 -14 l 165 -14 q 179 -28 179 -14 q 227 -137 183 -96 q 347 -178 271 -178 q 465 -137 422 -178 q 508 -35 508 -97 q 458 67 508 25 q 321 157 408 110 q 208 222 256 192 q 131 281 161 251 q 87 341 101 310 q 72 411 72 372 q 86 497 72 460 q 132 569 100 533 q 80 644 97 604 q 63 732 63 683 q 84 838 63 790 q 143 918 106 885 q 231 969 181 951 q 340 986 282 986 q 458 965 406 986 q 548 908 511 944 q 605 825 585 872 q 625 725 625 778 q 611 711 625 711 l 522 711 q 508 725 508 711 q 460 834 504 793 q 340 875 417 875 q 222 835 265 875 q 179 732 179 794 q 229 630 179 672 q 367 540 279 588 q 479 475 432 504 q 556 417 526 446 q 601 356 586 388 q 615 286 615 325 q 601 201 615 238 q 556 128 588 164 q 608 53 590 93 q 625 -35 625 14 m 225 497 q 189 417 189 460 q 199 379 189 397 q 233 340 208 361 q 303 292 258 319 q 417 226 347 265 l 463 200 q 499 281 499 238 q 489 318 499 300 q 454 357 479 336 q 385 405 429 378 q 271 471 340 432 l 225 497 z "},"¨":{"ha":592,"x_min":111,"x_max":481,"o":"m 111 958 q 125 972 111 972 l 236 972 q 250 958 250 972 l 250 847 q 236 833 250 833 l 125 833 q 111 847 111 833 l 111 958 m 342 958 q 356 972 342 972 l 467 972 q 481 958 481 972 l 481 847 q 467 833 481 833 l 356 833 q 342 847 342 833 l 342 958 z "},"©":{"ha":1111,"x_min":72,"x_max":1039,"o":"m 556 -14 q 381 19 467 -14 q 226 116 294 53 q 115 272 157 179 q 72 486 72 365 q 115 700 72 607 q 226 856 157 793 q 381 953 294 919 q 556 986 467 986 q 731 953 644 986 q 885 856 817 919 q 997 700 954 793 q 1039 486 1039 607 q 997 272 1039 365 q 885 116 954 179 q 731 19 817 53 q 556 -14 644 -14 m 556 44 q 707 72 632 44 q 841 155 782 100 q 936 292 900 210 q 972 486 972 375 q 936 679 972 596 q 841 817 900 763 q 707 900 782 872 q 556 928 632 928 q 403 900 478 928 q 270 817 329 872 q 175 679 211 763 q 139 486 139 596 q 175 292 139 375 q 270 155 211 210 q 403 72 329 100 q 556 44 478 44 m 815 383 q 831 369 831 383 q 738 218 813 274 q 556 163 663 163 q 449 183 501 163 q 356 243 397 203 q 289 344 314 283 q 264 486 264 404 q 289 628 264 567 q 356 729 314 689 q 449 790 397 769 q 556 810 501 810 q 738 754 663 810 q 831 603 813 699 q 815 589 831 589 l 782 589 q 763 603 767 589 q 694 710 747 668 q 556 751 640 751 q 472 734 513 751 q 399 683 431 717 q 349 600 368 650 q 331 486 331 550 q 349 372 331 421 q 399 289 368 322 q 472 238 431 256 q 556 221 513 221 q 694 263 640 221 q 763 369 747 304 q 782 383 767 383 l 815 383 z "},"ª":{"ha":642,"x_min":65,"x_max":547,"o":"m 547 468 q 533 454 547 454 l 481 454 q 467 468 467 454 l 467 511 q 301 443 408 443 q 208 463 251 443 q 133 517 164 482 q 83 602 101 553 q 65 713 65 651 q 83 824 65 774 q 133 909 101 874 q 208 964 164 944 q 301 983 251 983 q 402 963 363 983 q 467 914 442 943 l 467 958 q 481 972 467 972 l 533 972 q 547 958 547 972 l 547 468 m 475 713 q 464 790 475 754 q 431 852 453 826 q 380 893 410 878 q 313 908 350 908 q 244 893 275 908 q 193 852 214 878 q 160 790 172 826 q 149 713 149 754 q 193 574 149 629 q 313 518 238 518 q 431 574 388 518 q 475 713 475 629 z "},"«":{"ha":764,"x_min":65,"x_max":688,"o":"m 688 596 q 678 574 688 582 l 469 381 l 678 188 q 688 165 688 179 l 688 49 q 679 39 688 39 q 671 43 675 39 l 375 317 q 361 342 361 329 l 361 419 q 375 444 361 432 l 671 718 q 679 722 675 722 q 688 713 688 722 l 688 596 m 392 596 q 382 574 392 582 l 174 381 l 382 188 q 392 165 392 179 l 392 49 q 383 39 392 39 q 375 43 379 39 l 79 317 q 65 342 65 329 l 65 419 q 79 444 65 432 l 375 718 q 383 722 379 722 q 392 713 392 722 l 392 596 z "},"¬":{"ha":775,"x_min":89,"x_max":664,"o":"m 103 447 q 89 461 89 447 l 89 536 q 103 550 89 550 l 650 550 q 664 536 664 550 l 664 258 q 650 244 664 244 l 569 244 q 556 258 556 244 l 556 447 l 103 447 z "},"®":{"ha":1111,"x_min":72,"x_max":1039,"o":"m 556 -14 q 381 19 467 -14 q 226 116 294 53 q 115 272 157 179 q 72 486 72 365 q 115 700 72 607 q 226 856 157 793 q 381 953 294 919 q 556 986 467 986 q 731 953 644 986 q 885 856 817 919 q 997 700 954 793 q 1039 486 1039 607 q 997 272 1039 365 q 885 116 954 179 q 731 19 817 53 q 556 -14 644 -14 m 556 44 q 707 72 632 44 q 841 155 782 100 q 936 292 900 210 q 972 486 972 375 q 936 679 972 596 q 841 817 900 763 q 707 900 782 872 q 556 928 632 928 q 403 900 478 928 q 270 817 329 872 q 175 679 211 763 q 139 486 139 596 q 175 292 139 375 q 270 155 211 210 q 403 72 329 100 q 556 44 478 44 m 364 790 q 379 806 364 806 l 568 806 q 719 756 669 806 q 769 629 769 707 q 735 519 769 563 q 642 458 700 475 l 778 185 q 781 175 781 179 q 772 169 781 169 l 733 169 q 711 182 717 169 l 575 450 l 431 450 l 431 185 q 415 169 431 169 l 379 169 q 364 185 364 169 l 364 790 m 431 508 l 578 508 q 674 540 646 508 q 703 629 703 572 q 674 716 703 685 q 578 747 646 747 l 431 747 l 431 508 z "},"¯":{"ha":414,"x_min":63,"x_max":351,"o":"m 63 911 q 76 925 63 925 l 338 925 q 351 911 351 925 l 351 842 q 338 828 351 828 l 76 828 q 63 842 63 828 l 63 911 z "},"°":{"ha":625,"x_min":69,"x_max":556,"o":"m 69 750 q 88 846 69 803 q 139 920 107 889 q 215 969 171 951 q 313 986 260 986 q 409 969 364 986 q 486 920 454 951 q 537 846 518 889 q 556 750 556 803 q 537 654 556 697 q 486 580 518 611 q 409 531 454 549 q 313 514 364 514 q 215 531 260 514 q 139 580 171 549 q 88 654 107 611 q 69 750 69 697 m 167 750 q 208 640 167 679 q 313 600 250 600 q 417 640 376 600 q 458 750 458 679 q 417 860 458 821 q 313 900 376 900 q 208 860 250 900 q 167 750 167 821 z "},"±":{"ha":794,"x_min":90,"x_max":704,"o":"m 690 108 q 704 94 704 108 l 704 14 q 690 0 704 0 l 104 0 q 90 14 90 0 l 90 94 q 104 108 90 108 l 690 108 m 451 547 l 690 547 q 704 533 704 547 l 704 453 q 690 439 704 439 l 451 439 l 451 200 q 438 186 451 186 l 357 186 q 343 200 343 186 l 343 439 l 104 439 q 90 453 90 439 l 90 533 q 104 547 90 547 l 343 547 l 343 786 q 357 800 343 800 l 438 800 q 451 786 451 800 l 451 547 z "},"²":{"ha":492,"x_min":68,"x_max":436,"o":"m 68 508 q 76 528 68 521 l 292 714 q 332 760 319 738 q 344 817 344 782 q 319 881 344 856 q 249 906 293 906 q 182 878 204 906 q 154 815 160 851 q 140 801 153 801 l 86 801 q 72 815 72 801 q 85 879 72 849 q 122 932 99 910 q 176 967 144 954 q 249 981 208 981 q 324 967 292 981 q 379 931 357 954 q 413 879 401 908 q 425 818 425 850 q 403 730 425 769 q 344 658 382 690 l 189 528 l 422 528 q 436 514 436 528 l 436 467 q 422 453 436 453 l 82 453 q 68 467 68 453 l 68 508 z "},"³":{"ha":494,"x_min":57,"x_max":422,"o":"m 190 749 q 204 763 190 763 l 232 763 q 298 781 274 763 q 322 839 322 799 q 299 890 322 868 q 238 911 275 911 q 183 894 206 911 q 153 840 160 878 q 139 829 151 829 l 89 829 q 75 842 75 829 q 122 942 78 903 q 238 981 167 981 q 356 943 313 981 q 400 843 400 906 q 382 776 400 804 q 338 732 364 747 q 397 686 372 715 q 422 604 422 657 q 408 539 422 568 q 368 489 393 510 q 310 456 343 468 q 238 444 276 444 q 166 456 199 444 q 109 489 133 468 q 71 539 85 510 q 57 601 57 568 q 71 615 57 615 l 125 615 q 139 601 138 615 q 173 540 147 561 q 238 519 199 519 q 312 542 282 519 q 342 604 342 564 q 315 666 342 644 q 243 688 289 688 l 204 688 q 190 701 190 688 l 190 749 z "},"´":{"ha":526,"x_min":133,"x_max":393,"o":"m 231 958 q 251 972 239 972 l 383 972 q 393 965 393 972 q 390 958 393 963 l 247 782 q 237 772 242 775 q 222 769 232 769 l 142 769 q 133 778 133 769 q 135 783 133 781 l 231 958 z "},"µ":{"ha":792,"x_min":100,"x_max":681,"o":"m 681 14 q 667 0 681 0 l 586 0 q 572 14 572 0 l 572 93 q 474 15 532 44 q 342 -14 417 -14 q 208 18 264 -14 l 208 -261 q 194 -275 208 -275 l 114 -275 q 100 -261 100 -275 l 100 683 q 114 697 100 697 l 194 697 q 208 683 208 697 l 208 256 q 250 130 208 171 q 367 89 292 89 q 513 152 454 89 q 572 342 572 215 l 572 683 q 586 697 572 697 l 667 697 q 681 683 681 697 l 681 14 z "},"¶":{"ha":881,"x_min":49,"x_max":842,"o":"m 828 972 q 842 958 842 972 l 842 875 q 828 861 842 861 l 728 861 l 728 -125 q 714 -139 728 -139 l 625 -139 q 611 -125 611 -139 l 611 861 l 482 861 l 482 -125 q 468 -139 482 -139 l 379 -139 q 365 -125 365 -139 l 365 458 l 332 458 q 123 527 197 458 q 49 714 49 596 q 123 903 49 833 q 332 972 197 972 l 828 972 z "},"·":{"ha":403,"x_min":133,"x_max":267,"o":"m 253 553 q 267 539 267 553 l 267 433 q 253 419 267 419 l 147 419 q 133 433 133 419 l 133 539 q 147 553 133 553 l 253 553 z "},"¸":{"ha":378,"x_min":49,"x_max":349,"o":"m 74 -125 q 71 -119 71 -122 q 74 -108 71 -117 l 121 39 q 135 53 125 53 l 196 53 q 207 39 214 53 l 154 -85 q 192 -78 169 -81 q 231 -75 214 -75 q 317 -102 286 -75 q 349 -174 349 -129 q 308 -260 349 -232 q 193 -289 268 -289 q 121 -285 153 -289 q 63 -275 89 -282 q 52 -270 56 -272 q 49 -261 49 -268 l 49 -221 q 63 -207 49 -207 q 99 -215 74 -207 q 183 -222 125 -222 q 236 -211 215 -222 q 257 -179 257 -200 q 185 -136 257 -136 q 147 -139 165 -136 q 111 -146 128 -142 q 103 -147 106 -147 q 92 -143 96 -147 l 74 -125 z "},"¹":{"ha":308,"x_min":33,"x_max":226,"o":"m 149 874 l 57 824 q 44 819 50 819 q 33 831 33 819 l 33 889 q 43 903 33 897 l 160 967 q 181 972 171 972 l 213 972 q 226 958 226 972 l 226 467 q 213 453 226 453 l 163 453 q 149 467 149 453 l 149 874 z "},"º":{"ha":642,"x_min":65,"x_max":576,"o":"m 65 713 q 85 824 65 774 q 138 909 104 874 q 219 964 172 944 q 321 983 267 983 q 422 964 375 983 q 503 909 469 944 q 557 824 538 874 q 576 713 576 774 q 557 602 576 651 q 503 517 538 553 q 422 463 469 482 q 321 443 375 443 q 219 463 267 443 q 138 517 172 482 q 85 602 104 553 q 65 713 65 651 m 149 713 q 162 635 149 671 q 198 573 175 599 q 252 533 221 547 q 321 518 283 518 q 390 533 358 518 q 444 573 421 547 q 480 635 467 599 q 493 713 493 671 q 480 790 493 754 q 444 853 467 826 q 390 894 421 879 q 321 908 358 908 q 252 894 283 908 q 198 853 221 879 q 162 790 175 826 q 149 713 149 754 z "},"»":{"ha":764,"x_min":76,"x_max":699,"o":"m 76 713 q 85 722 76 722 q 93 718 89 722 l 389 444 q 403 419 403 432 l 403 342 q 389 317 403 329 l 93 43 q 85 39 89 39 q 76 49 76 39 l 76 165 q 86 188 76 179 l 294 381 l 86 574 q 76 596 76 582 l 76 713 m 372 713 q 381 722 372 722 q 389 718 385 722 l 685 444 q 699 419 699 432 l 699 342 q 685 317 699 329 l 389 43 q 381 39 385 39 q 372 49 372 39 l 372 165 q 382 188 372 179 l 590 381 l 382 574 q 372 596 372 582 l 372 713 z "},"¼":{"ha":1114,"x_min":92,"x_max":1010,"o":"m 928 968 q 947 968 936 979 l 985 936 q 988 917 994 926 l 219 4 q 200 4 211 -7 l 163 36 q 160 56 153 46 l 928 968 m 207 874 l 115 824 q 103 819 108 819 q 92 831 92 819 l 92 889 q 101 903 92 897 l 218 967 q 239 972 229 972 l 271 972 q 285 958 285 972 l 285 467 q 271 453 285 453 l 221 453 q 207 467 207 453 l 207 874 m 851 99 l 618 99 q 604 113 604 99 l 604 151 q 610 168 604 160 l 854 510 q 869 519 861 519 l 915 519 q 929 506 929 519 l 929 174 l 996 174 q 1010 160 1010 174 l 1010 113 q 996 99 1010 99 l 929 99 l 929 14 q 915 0 929 0 l 865 0 q 851 14 851 0 l 851 99 m 700 174 l 851 174 l 851 386 l 700 174 z "},"½":{"ha":1214,"x_min":92,"x_max":1117,"o":"m 928 968 q 947 968 936 979 l 985 936 q 988 917 994 926 l 219 4 q 200 4 211 -7 l 163 36 q 160 56 153 46 l 928 968 m 207 874 l 115 824 q 103 819 108 819 q 92 831 92 819 l 92 889 q 101 903 92 897 l 218 967 q 239 972 229 972 l 271 972 q 285 958 285 972 l 285 467 q 271 453 285 453 l 221 453 q 207 467 207 453 l 207 874 m 749 56 q 757 75 749 68 l 972 261 q 1013 307 1000 285 q 1025 364 1025 329 q 999 428 1025 403 q 929 453 974 453 q 863 426 885 453 q 835 363 840 399 q 821 349 833 349 l 767 349 q 753 363 753 349 q 766 426 753 396 q 802 479 779 457 q 857 515 825 501 q 929 528 889 528 q 1005 515 972 528 q 1060 478 1038 501 q 1094 426 1082 456 q 1106 365 1106 397 q 1084 277 1106 317 q 1025 206 1063 238 l 869 75 l 1103 75 q 1117 61 1117 75 l 1117 14 q 1103 0 1117 0 l 763 0 q 749 14 749 0 l 749 56 z "},"¾":{"ha":1139,"x_min":69,"x_max":1054,"o":"m 972 968 q 992 968 981 979 l 1029 936 q 1032 917 1039 926 l 264 4 q 244 4 256 -7 l 207 36 q 204 56 197 46 l 972 968 m 896 99 l 663 99 q 649 113 649 99 l 649 151 q 654 168 649 160 l 899 510 q 914 519 906 519 l 960 519 q 974 506 974 519 l 974 174 l 1040 174 q 1054 160 1054 174 l 1054 113 q 1040 99 1054 99 l 974 99 l 974 14 q 960 0 974 0 l 910 0 q 896 14 896 0 l 896 99 m 744 174 l 896 174 l 896 386 l 744 174 m 203 749 q 217 763 203 763 l 244 763 q 310 781 286 763 q 335 839 335 799 q 311 890 335 868 q 250 911 288 911 q 195 894 218 911 q 165 840 172 878 q 151 829 164 829 l 101 829 q 88 842 88 829 q 135 942 90 903 q 250 981 179 981 q 369 943 325 981 q 413 843 413 906 q 394 776 413 804 q 350 732 376 747 q 410 686 385 715 q 435 604 435 657 q 420 539 435 568 q 381 489 406 510 q 322 456 356 468 q 250 444 289 444 q 178 456 211 444 q 122 489 146 468 q 83 539 97 510 q 69 601 69 568 q 83 615 69 615 l 138 615 q 151 601 150 615 q 185 540 160 561 q 250 519 211 519 q 324 542 294 519 q 354 604 354 564 q 328 666 354 644 q 256 688 301 688 l 217 688 q 203 701 203 688 l 203 749 z "},"¿":{"ha":792,"x_min":92,"x_max":689,"o":"m 688 -14 q 665 -119 686 -69 q 604 -207 643 -169 q 510 -267 565 -244 q 383 -289 454 -289 q 263 -269 317 -289 q 170 -215 208 -250 q 112 -131 132 -179 q 92 -24 92 -82 q 109 63 92 26 q 153 129 126 100 q 210 182 179 157 q 267 233 240 207 q 310 291 293 260 q 328 364 328 322 l 328 415 q 342 429 328 429 l 431 429 q 444 415 444 429 l 444 374 q 427 278 444 318 q 383 206 410 238 q 326 149 357 175 q 269 99 296 124 q 226 44 243 74 q 208 -22 208 15 q 256 -137 208 -96 q 383 -178 304 -178 q 510 -137 457 -178 q 574 -14 563 -96 q 588 0 575 0 l 674 0 q 688 -14 688 0 m 331 558 q 317 572 317 558 l 317 683 q 331 697 317 697 l 442 697 q 456 683 456 697 l 456 572 q 442 558 456 558 l 331 558 z "},"À":{"ha":869,"x_min":15,"x_max":854,"o":"m 633 282 l 236 282 l 140 14 q 135 3 138 7 q 124 0 132 0 l 31 0 q 15 14 15 0 q 17 22 15 18 l 361 958 q 366 969 364 965 q 375 972 368 972 l 494 972 q 503 969 501 972 q 508 958 506 965 l 853 22 q 854 14 854 18 q 839 0 854 0 l 746 0 q 735 3 738 0 q 729 14 732 7 l 633 282 m 276 393 l 593 393 l 435 832 l 276 393 m 490 1058 q 492 1053 492 1056 q 483 1044 492 1044 l 403 1044 q 378 1057 388 1044 l 235 1233 q 232 1240 232 1238 q 242 1247 232 1247 l 374 1247 q 394 1233 386 1247 l 490 1058 z "},"Á":{"ha":869,"x_min":15,"x_max":854,"o":"m 633 282 l 236 282 l 140 14 q 135 3 138 7 q 124 0 132 0 l 31 0 q 15 14 15 0 q 17 22 15 18 l 361 958 q 366 969 364 965 q 375 972 368 972 l 494 972 q 503 969 501 972 q 508 958 506 965 l 853 22 q 854 14 854 18 q 839 0 854 0 l 746 0 q 735 3 738 0 q 729 14 732 7 l 633 282 m 276 393 l 593 393 l 435 832 l 276 393 m 458 1233 q 479 1247 467 1247 l 611 1247 q 621 1240 621 1247 q 618 1233 621 1238 l 475 1057 q 465 1047 469 1050 q 450 1044 460 1044 l 369 1044 q 361 1053 361 1044 q 363 1058 361 1056 l 458 1233 z "},"Â":{"ha":869,"x_min":15,"x_max":854,"o":"m 633 282 l 236 282 l 140 14 q 135 3 138 7 q 124 0 132 0 l 31 0 q 15 14 15 0 q 17 22 15 18 l 361 958 q 366 969 364 965 q 375 972 368 972 l 494 972 q 503 969 501 972 q 508 958 506 965 l 853 22 q 854 14 854 18 q 839 0 854 0 l 746 0 q 735 3 738 0 q 729 14 732 7 l 633 282 m 276 393 l 593 393 l 435 832 l 276 393 m 631 1058 q 633 1049 635 1053 q 624 1044 631 1044 l 538 1044 q 524 1047 529 1044 q 513 1057 519 1050 l 425 1144 l 338 1057 q 326 1047 331 1050 q 313 1044 321 1044 l 226 1044 q 217 1049 219 1044 q 219 1058 215 1053 l 365 1236 q 386 1247 375 1247 l 464 1247 q 485 1236 475 1247 l 631 1058 z "},"Ã":{"ha":869,"x_min":15,"x_max":854,"o":"m 633 282 l 236 282 l 140 14 q 135 3 138 7 q 124 0 132 0 l 31 0 q 15 14 15 0 q 17 22 15 18 l 361 958 q 366 969 364 965 q 375 972 368 972 l 494 972 q 503 969 501 972 q 508 958 506 965 l 853 22 q 854 14 854 18 q 839 0 854 0 l 746 0 q 735 3 738 0 q 729 14 732 7 l 633 282 m 276 393 l 593 393 l 435 832 l 276 393 m 207 1197 q 274 1234 239 1221 q 343 1247 310 1247 q 404 1238 381 1247 q 446 1219 428 1229 q 482 1199 464 1208 q 528 1190 500 1190 q 566 1199 547 1190 q 613 1225 585 1207 q 622 1228 618 1228 q 636 1217 631 1228 l 675 1158 q 664 1135 682 1147 q 597 1098 632 1111 q 528 1085 561 1085 q 466 1094 489 1085 q 425 1113 443 1103 q 389 1133 407 1124 q 343 1142 371 1142 q 305 1133 324 1142 q 258 1107 286 1125 q 249 1104 253 1104 q 235 1115 242 1104 l 196 1174 q 207 1197 189 1185 z "},"Ä":{"ha":869,"x_min":15,"x_max":854,"o":"m 633 282 l 236 282 l 140 14 q 135 3 138 7 q 124 0 132 0 l 31 0 q 15 14 15 0 q 17 22 15 18 l 361 958 q 366 969 364 965 q 375 972 368 972 l 494 972 q 503 969 501 972 q 508 958 506 965 l 853 22 q 854 14 854 18 q 839 0 854 0 l 746 0 q 735 3 738 0 q 729 14 732 7 l 633 282 m 276 393 l 593 393 l 435 832 l 276 393 m 240 1233 q 254 1247 240 1247 l 365 1247 q 379 1233 379 1247 l 379 1122 q 365 1108 379 1108 l 254 1108 q 240 1122 240 1108 l 240 1233 m 471 1233 q 485 1247 471 1247 l 596 1247 q 610 1233 610 1247 l 610 1122 q 596 1108 610 1108 l 485 1108 q 471 1122 471 1108 l 471 1233 z "},"Å":{"ha":869,"x_min":15,"x_max":854,"o":"m 633 282 l 236 282 l 140 14 q 135 3 138 7 q 124 0 132 0 l 31 0 q 15 14 15 0 q 17 22 15 18 l 361 958 q 366 969 364 965 q 375 972 368 972 l 494 972 q 503 969 501 972 q 508 958 506 965 l 853 22 q 854 14 854 18 q 839 0 854 0 l 746 0 q 735 3 738 0 q 729 14 732 7 l 633 282 m 276 393 l 593 393 l 435 832 l 276 393 m 304 1158 q 338 1242 304 1210 q 425 1275 372 1275 q 512 1242 478 1275 q 546 1158 546 1210 q 512 1074 546 1107 q 425 1042 478 1042 q 338 1074 372 1042 q 304 1158 304 1107 m 371 1158 q 386 1117 371 1132 q 425 1103 401 1103 q 464 1117 449 1103 q 479 1158 479 1132 q 464 1199 479 1185 q 425 1214 449 1214 q 386 1199 401 1214 q 371 1158 371 1185 z "},"Æ":{"ha":1215,"x_min":15,"x_max":1131,"o":"m 638 111 l 1117 111 q 1131 97 1131 111 l 1131 14 q 1117 0 1131 0 l 535 0 q 521 14 521 0 l 521 282 l 249 282 l 142 14 q 136 3 139 7 q 125 0 133 0 l 31 0 q 15 14 15 0 q 17 22 15 18 l 393 958 q 398 969 396 965 q 407 972 400 972 l 1096 972 q 1110 958 1110 972 l 1110 875 q 1096 861 1110 861 l 638 861 l 638 567 l 1054 567 q 1068 553 1068 567 l 1068 469 q 1054 456 1068 456 l 638 456 l 638 111 m 293 393 l 521 393 l 521 861 l 479 861 l 293 393 z "},"Ç":{"ha":982,"x_min":72,"x_max":921,"o":"m 397 -125 q 394 -119 394 -122 q 397 -110 394 -118 l 428 -6 q 293 43 357 7 q 180 140 229 79 q 101 288 131 201 q 72 486 72 374 q 110 707 72 613 q 208 863 147 801 q 347 956 269 925 q 506 986 425 986 q 657 963 586 986 q 783 895 728 939 q 874 789 838 851 q 921 649 910 726 q 906 635 921 635 l 821 635 q 804 649 808 635 q 506 875 739 875 q 387 851 443 875 q 288 780 331 828 q 220 659 246 732 q 194 486 194 586 q 220 313 194 386 q 288 191 246 239 q 387 120 331 143 q 506 97 443 97 q 804 324 739 97 q 821 338 808 338 l 906 338 q 921 324 921 338 q 874 183 910 246 q 783 77 838 121 q 658 10 729 33 q 508 -14 588 -14 l 478 -85 q 515 -78 493 -81 q 554 -75 538 -75 q 641 -102 610 -75 q 672 -174 672 -129 q 632 -260 672 -232 q 517 -289 592 -289 q 444 -285 476 -289 q 386 -275 413 -282 q 376 -270 379 -272 q 372 -261 372 -268 l 372 -221 q 386 -207 372 -207 q 423 -215 397 -207 q 507 -222 449 -222 q 560 -211 539 -222 q 581 -179 581 -200 q 508 -136 581 -136 q 470 -139 489 -136 q 435 -146 451 -142 q 426 -147 429 -147 q 415 -143 419 -147 l 397 -125 z "},"È":{"ha":811,"x_min":117,"x_max":726,"o":"m 233 111 l 713 111 q 726 97 726 111 l 726 14 q 713 0 726 0 l 131 0 q 117 14 117 0 l 117 958 q 131 972 117 972 l 692 972 q 706 958 706 972 l 706 875 q 692 861 706 861 l 233 861 l 233 567 l 650 567 q 664 553 664 567 l 664 469 q 650 456 664 456 l 233 456 l 233 111 m 499 1058 q 500 1053 500 1056 q 492 1044 500 1044 l 411 1044 q 386 1057 396 1044 l 243 1233 q 240 1240 240 1238 q 250 1247 240 1247 l 382 1247 q 403 1233 394 1247 l 499 1058 z "},"É":{"ha":811,"x_min":117,"x_max":726,"o":"m 233 111 l 713 111 q 726 97 726 111 l 726 14 q 713 0 726 0 l 131 0 q 117 14 117 0 l 117 958 q 131 972 117 972 l 692 972 q 706 958 706 972 l 706 875 q 692 861 706 861 l 233 861 l 233 567 l 650 567 q 664 553 664 567 l 664 469 q 650 456 664 456 l 233 456 l 233 111 m 417 1233 q 438 1247 425 1247 l 569 1247 q 579 1240 579 1247 q 576 1233 579 1238 l 433 1057 q 423 1047 428 1050 q 408 1044 418 1044 l 328 1044 q 319 1053 319 1044 q 321 1058 319 1056 l 417 1233 z "},"Ê":{"ha":811,"x_min":117,"x_max":726,"o":"m 233 111 l 713 111 q 726 97 726 111 l 726 14 q 713 0 726 0 l 131 0 q 117 14 117 0 l 117 958 q 131 972 117 972 l 692 972 q 706 958 706 972 l 706 875 q 692 861 706 861 l 233 861 l 233 567 l 650 567 q 664 553 664 567 l 664 469 q 650 456 664 456 l 233 456 l 233 111 m 619 1058 q 622 1049 624 1053 q 613 1044 619 1044 l 526 1044 q 513 1047 518 1044 q 501 1057 508 1050 l 414 1144 l 326 1057 q 315 1047 319 1050 q 301 1044 310 1044 l 215 1044 q 206 1049 208 1044 q 208 1058 204 1053 l 354 1236 q 375 1247 364 1247 l 453 1247 q 474 1236 464 1247 l 619 1058 z "},"Ë":{"ha":811,"x_min":117,"x_max":726,"o":"m 233 111 l 713 111 q 726 97 726 111 l 726 14 q 713 0 726 0 l 131 0 q 117 14 117 0 l 117 958 q 131 972 117 972 l 692 972 q 706 958 706 972 l 706 875 q 692 861 706 861 l 233 861 l 233 567 l 650 567 q 664 553 664 567 l 664 469 q 650 456 664 456 l 233 456 l 233 111 m 228 1233 q 242 1247 228 1247 l 353 1247 q 367 1233 367 1247 l 367 1122 q 353 1108 367 1108 l 242 1108 q 228 1122 228 1108 l 228 1233 m 458 1233 q 472 1247 458 1247 l 583 1247 q 597 1233 597 1247 l 597 1122 q 583 1108 597 1108 l 472 1108 q 458 1122 458 1108 l 458 1233 z "},"Ì":{"ha":350,"x_min":-12,"x_max":247,"o":"m 117 958 q 131 972 117 972 l 219 972 q 233 958 233 972 l 233 14 q 219 0 233 0 l 131 0 q 117 14 117 0 l 117 958 m 246 1058 q 247 1053 247 1056 q 239 1044 247 1044 l 158 1044 q 133 1057 143 1044 l -10 1233 q -12 1240 -12 1238 q -3 1247 -12 1247 l 129 1247 q 150 1233 142 1247 l 246 1058 z "},"Í":{"ha":350,"x_min":104,"x_max":364,"o":"m 117 958 q 131 972 117 972 l 219 972 q 233 958 233 972 l 233 14 q 219 0 233 0 l 131 0 q 117 14 117 0 l 117 958 m 201 1233 q 222 1247 210 1247 l 354 1247 q 364 1240 364 1247 q 361 1233 364 1238 l 218 1057 q 208 1047 213 1050 q 193 1044 203 1044 l 113 1044 q 104 1053 104 1044 q 106 1058 104 1056 l 201 1233 z "},"Î":{"ha":350,"x_min":-36,"x_max":383,"o":"m 117 958 q 131 972 117 972 l 219 972 q 233 958 233 972 l 233 14 q 219 0 233 0 l 131 0 q 117 14 117 0 l 117 958 m 379 1058 q 381 1049 383 1053 q 372 1044 379 1044 l 286 1044 q 273 1047 278 1044 q 261 1057 268 1050 l 174 1144 l 86 1057 q 74 1047 79 1050 q 61 1044 69 1044 l -25 1044 q -34 1049 -32 1044 q -32 1058 -36 1053 l 114 1236 q 135 1247 124 1247 l 213 1247 q 233 1236 224 1247 l 379 1058 z "},"Ï":{"ha":350,"x_min":-10,"x_max":360,"o":"m 117 958 q 131 972 117 972 l 219 972 q 233 958 233 972 l 233 14 q 219 0 233 0 l 131 0 q 117 14 117 0 l 117 958 m -10 1233 q 4 1247 -10 1247 l 115 1247 q 129 1233 129 1247 l 129 1122 q 115 1108 129 1108 l 4 1108 q -10 1122 -10 1108 l -10 1233 m 221 1233 q 235 1247 221 1247 l 346 1247 q 360 1233 360 1247 l 360 1122 q 346 1108 360 1108 l 235 1108 q 221 1122 221 1108 l 221 1233 z "},"Ð":{"ha":940,"x_min":15,"x_max":868,"o":"m 142 958 q 156 972 142 972 l 425 972 q 596 942 515 972 q 737 851 676 911 q 833 699 797 790 q 868 486 868 607 q 833 274 868 365 q 737 122 797 182 q 596 31 676 61 q 425 0 515 0 l 156 0 q 142 14 142 0 l 142 432 l 29 432 q 15 446 15 432 l 15 526 q 29 540 15 540 l 142 540 l 142 958 m 479 540 q 493 526 493 540 l 493 446 q 479 432 493 432 l 258 432 l 258 111 l 408 111 q 543 133 481 111 q 650 201 606 156 q 720 318 694 247 q 746 486 746 389 q 720 654 746 583 q 650 771 694 725 q 543 839 606 817 q 408 861 481 861 l 258 861 l 258 540 l 479 540 z "},"Ñ":{"ha":967,"x_min":117,"x_max":850,"o":"m 729 0 q 716 2 722 0 q 707 11 710 4 l 233 789 l 233 14 q 219 0 233 0 l 131 0 q 117 14 117 0 l 117 958 q 131 972 117 972 l 238 972 q 251 970 244 972 q 260 961 257 968 l 733 183 l 733 958 q 747 972 733 972 l 836 972 q 850 958 850 972 l 850 14 q 836 0 850 0 l 729 0 m 260 1197 q 327 1234 292 1221 q 396 1247 363 1247 q 457 1238 433 1247 q 499 1219 481 1229 q 535 1199 517 1208 q 581 1190 553 1190 q 619 1199 600 1190 q 665 1225 638 1207 q 675 1228 671 1228 q 689 1217 683 1228 l 728 1158 q 717 1135 735 1147 q 649 1098 685 1111 q 581 1085 614 1085 q 519 1094 542 1085 q 478 1113 496 1103 q 442 1133 460 1124 q 396 1142 424 1142 q 358 1133 376 1142 q 311 1107 339 1125 q 301 1104 306 1104 q 288 1115 294 1104 l 249 1174 q 260 1197 242 1185 z "},"Ò":{"ha":1067,"x_min":72,"x_max":994,"o":"m 533 -14 q 365 17 447 -14 q 217 111 282 49 q 112 267 151 174 q 72 486 72 361 q 112 705 72 611 q 217 861 151 799 q 365 955 282 924 q 533 986 447 986 q 702 955 619 986 q 850 861 785 924 q 955 705 915 799 q 994 486 994 611 q 955 267 994 361 q 850 111 915 174 q 702 17 785 49 q 533 -14 619 -14 m 533 97 q 663 121 601 97 q 770 192 724 144 q 844 313 817 240 q 872 486 872 386 q 844 659 872 586 q 770 780 817 732 q 663 851 724 828 q 533 875 601 875 q 404 851 465 875 q 297 780 343 828 q 222 659 250 732 q 194 486 194 586 q 222 313 194 386 q 297 192 250 240 q 404 121 343 144 q 533 97 465 97 m 613 1058 q 614 1053 614 1056 q 606 1044 614 1044 l 525 1044 q 500 1057 510 1044 l 357 1233 q 354 1240 354 1238 q 364 1247 354 1247 l 496 1247 q 517 1233 508 1247 l 613 1058 z "},"Ó":{"ha":1067,"x_min":72,"x_max":994,"o":"m 533 -14 q 365 17 447 -14 q 217 111 282 49 q 112 267 151 174 q 72 486 72 361 q 112 705 72 611 q 217 861 151 799 q 365 955 282 924 q 533 986 447 986 q 702 955 619 986 q 850 861 785 924 q 955 705 915 799 q 994 486 994 611 q 955 267 994 361 q 850 111 915 174 q 702 17 785 49 q 533 -14 619 -14 m 533 97 q 663 121 601 97 q 770 192 724 144 q 844 313 817 240 q 872 486 872 386 q 844 659 872 586 q 770 780 817 732 q 663 851 724 828 q 533 875 601 875 q 404 851 465 875 q 297 780 343 828 q 222 659 250 732 q 194 486 194 586 q 222 313 194 386 q 297 192 250 240 q 404 121 343 144 q 533 97 465 97 m 531 1233 q 551 1247 539 1247 l 683 1247 q 693 1240 693 1247 q 690 1233 693 1238 l 547 1057 q 537 1047 542 1050 q 522 1044 532 1044 l 442 1044 q 433 1053 433 1044 q 435 1058 433 1056 l 531 1233 z "},"Ô":{"ha":1067,"x_min":72,"x_max":994,"o":"m 533 -14 q 365 17 447 -14 q 217 111 282 49 q 112 267 151 174 q 72 486 72 361 q 112 705 72 611 q 217 861 151 799 q 365 955 282 924 q 533 986 447 986 q 702 955 619 986 q 850 861 785 924 q 955 705 915 799 q 994 486 994 611 q 955 267 994 361 q 850 111 915 174 q 702 17 785 49 q 533 -14 619 -14 m 533 97 q 663 121 601 97 q 770 192 724 144 q 844 313 817 240 q 872 486 872 386 q 844 659 872 586 q 770 780 817 732 q 663 851 724 828 q 533 875 601 875 q 404 851 465 875 q 297 780 343 828 q 222 659 250 732 q 194 486 194 586 q 222 313 194 386 q 297 192 250 240 q 404 121 343 144 q 533 97 465 97 m 739 1058 q 741 1049 743 1053 q 732 1044 739 1044 l 646 1044 q 633 1047 638 1044 q 621 1057 628 1050 l 533 1144 l 446 1057 q 434 1047 439 1050 q 421 1044 429 1044 l 335 1044 q 326 1049 328 1044 q 328 1058 324 1053 l 474 1236 q 494 1247 483 1247 l 572 1247 q 593 1236 583 1247 l 739 1058 z "},"Õ":{"ha":1067,"x_min":72,"x_max":994,"o":"m 533 -14 q 365 17 447 -14 q 217 111 282 49 q 112 267 151 174 q 72 486 72 361 q 112 705 72 611 q 217 861 151 799 q 365 955 282 924 q 533 986 447 986 q 702 955 619 986 q 850 861 785 924 q 955 705 915 799 q 994 486 994 611 q 955 267 994 361 q 850 111 915 174 q 702 17 785 49 q 533 -14 619 -14 m 533 97 q 663 121 601 97 q 770 192 724 144 q 844 313 817 240 q 872 486 872 386 q 844 659 872 586 q 770 780 817 732 q 663 851 724 828 q 533 875 601 875 q 404 851 465 875 q 297 780 343 828 q 222 659 250 732 q 194 486 194 586 q 222 313 194 386 q 297 192 250 240 q 404 121 343 144 q 533 97 465 97 m 306 1197 q 373 1234 338 1221 q 442 1247 408 1247 q 503 1238 479 1247 q 544 1219 526 1229 q 581 1199 563 1208 q 626 1190 599 1190 q 665 1199 646 1190 q 711 1225 683 1207 q 721 1228 717 1228 q 735 1217 729 1228 l 774 1158 q 763 1135 781 1147 q 695 1098 731 1111 q 626 1085 660 1085 q 565 1094 588 1085 q 524 1113 542 1103 q 488 1133 506 1124 q 442 1142 469 1142 q 403 1133 422 1142 q 357 1107 385 1125 q 347 1104 351 1104 q 333 1115 340 1104 l 294 1174 q 306 1197 288 1185 z "},"Ö":{"ha":1067,"x_min":72,"x_max":994,"o":"m 533 -14 q 365 17 447 -14 q 217 111 282 49 q 112 267 151 174 q 72 486 72 361 q 112 705 72 611 q 217 861 151 799 q 365 955 282 924 q 533 986 447 986 q 702 955 619 986 q 850 861 785 924 q 955 705 915 799 q 994 486 994 611 q 955 267 994 361 q 850 111 915 174 q 702 17 785 49 q 533 -14 619 -14 m 533 97 q 663 121 601 97 q 770 192 724 144 q 844 313 817 240 q 872 486 872 386 q 844 659 872 586 q 770 780 817 732 q 663 851 724 828 q 533 875 601 875 q 404 851 465 875 q 297 780 343 828 q 222 659 250 732 q 194 486 194 586 q 222 313 194 386 q 297 192 250 240 q 404 121 343 144 q 533 97 465 97 m 349 1233 q 363 1247 349 1247 l 474 1247 q 488 1233 488 1247 l 488 1122 q 474 1108 488 1108 l 363 1108 q 349 1122 349 1108 l 349 1233 m 579 1233 q 593 1247 579 1247 l 704 1247 q 718 1233 718 1247 l 718 1122 q 704 1108 718 1108 l 593 1108 q 579 1122 579 1108 l 579 1233 z "},"×":{"ha":703,"x_min":100,"x_max":603,"o":"m 428 475 l 597 306 q 603 296 603 300 q 597 286 603 292 l 540 229 q 531 224 535 224 q 521 229 526 224 l 351 399 l 182 229 q 172 224 176 224 q 163 229 168 224 l 106 286 q 100 296 100 292 q 106 306 100 300 l 275 475 l 106 644 q 100 654 100 650 q 106 664 100 658 l 163 721 q 172 726 168 726 q 182 721 176 726 l 351 551 l 521 721 q 531 726 526 726 q 540 721 535 726 l 597 664 q 603 654 603 658 q 597 644 603 650 l 428 475 z "},"Ø":{"ha":1067,"x_min":72,"x_max":994,"o":"m 533 -14 q 421 -1 476 -14 q 315 40 365 13 l 257 -60 q 238 -65 249 -71 l 200 -43 q 194 -24 189 -36 l 254 79 q 123 242 174 142 q 72 486 72 343 q 112 705 72 611 q 217 861 151 799 q 365 955 282 924 q 533 986 447 986 q 751 932 649 986 l 810 1032 q 829 1038 817 1043 l 867 1015 q 872 996 878 1007 l 813 893 q 944 730 893 831 q 994 486 994 629 q 955 267 994 361 q 850 111 915 174 q 702 17 785 49 q 533 -14 619 -14 m 533 97 q 663 121 601 97 q 770 192 724 144 q 844 313 817 240 q 872 486 872 386 q 840 671 872 594 q 756 794 808 747 l 371 136 q 533 97 443 97 m 194 486 q 226 301 194 378 q 311 178 258 225 l 696 836 q 618 865 660 856 q 533 875 576 875 q 404 851 465 875 q 297 780 343 828 q 222 659 250 732 q 194 486 194 586 z "},"Ù":{"ha":889,"x_min":94,"x_max":794,"o":"m 94 958 q 108 972 94 972 l 197 972 q 211 958 211 972 l 211 351 q 272 162 211 226 q 444 97 332 97 q 617 162 557 97 q 678 351 678 226 l 678 958 q 692 972 678 972 l 781 972 q 794 958 794 972 l 794 336 q 767 188 794 253 q 694 78 740 122 q 583 10 647 33 q 444 -14 519 -14 q 306 10 369 -14 q 195 78 242 33 q 122 188 149 122 q 94 336 94 253 l 94 958 m 524 1058 q 525 1053 525 1056 q 517 1044 525 1044 l 436 1044 q 411 1057 421 1044 l 268 1233 q 265 1240 265 1238 q 275 1247 265 1247 l 407 1247 q 428 1233 419 1247 l 524 1058 z "},"Ú":{"ha":889,"x_min":94,"x_max":794,"o":"m 94 958 q 108 972 94 972 l 197 972 q 211 958 211 972 l 211 351 q 272 162 211 226 q 444 97 332 97 q 617 162 557 97 q 678 351 678 226 l 678 958 q 692 972 678 972 l 781 972 q 794 958 794 972 l 794 336 q 767 188 794 253 q 694 78 740 122 q 583 10 647 33 q 444 -14 519 -14 q 306 10 369 -14 q 195 78 242 33 q 122 188 149 122 q 94 336 94 253 l 94 958 m 454 1233 q 475 1247 463 1247 l 607 1247 q 617 1240 617 1247 q 614 1233 617 1238 l 471 1057 q 460 1047 465 1050 q 446 1044 456 1044 l 365 1044 q 357 1053 357 1044 q 358 1058 357 1056 l 454 1233 z "},"Û":{"ha":889,"x_min":94,"x_max":794,"o":"m 94 958 q 108 972 94 972 l 197 972 q 211 958 211 972 l 211 351 q 272 162 211 226 q 444 97 332 97 q 617 162 557 97 q 678 351 678 226 l 678 958 q 692 972 678 972 l 781 972 q 794 958 794 972 l 794 336 q 767 188 794 253 q 694 78 740 122 q 583 10 647 33 q 444 -14 519 -14 q 306 10 369 -14 q 195 78 242 33 q 122 188 149 122 q 94 336 94 253 l 94 958 m 650 1058 q 652 1049 654 1053 q 643 1044 650 1044 l 557 1044 q 544 1047 549 1044 q 532 1057 539 1050 l 444 1144 l 357 1057 q 345 1047 350 1050 q 332 1044 340 1044 l 246 1044 q 237 1049 239 1044 q 239 1058 235 1053 l 385 1236 q 406 1247 394 1247 l 483 1247 q 504 1236 494 1247 l 650 1058 z "},"Ü":{"ha":889,"x_min":94,"x_max":794,"o":"m 94 958 q 108 972 94 972 l 197 972 q 211 958 211 972 l 211 351 q 272 162 211 226 q 444 97 332 97 q 617 162 557 97 q 678 351 678 226 l 678 958 q 692 972 678 972 l 781 972 q 794 958 794 972 l 794 336 q 767 188 794 253 q 694 78 740 122 q 583 10 647 33 q 444 -14 519 -14 q 306 10 369 -14 q 195 78 242 33 q 122 188 149 122 q 94 336 94 253 l 94 958 m 260 1233 q 274 1247 260 1247 l 385 1247 q 399 1233 399 1247 l 399 1122 q 385 1108 399 1108 l 274 1108 q 260 1122 260 1108 l 260 1233 m 490 1233 q 504 1247 490 1247 l 615 1247 q 629 1233 629 1247 l 629 1122 q 615 1108 629 1108 l 504 1108 q 490 1122 490 1108 l 490 1233 z "},"Ý":{"ha":758,"x_min":10,"x_max":749,"o":"m 438 358 l 438 14 q 424 0 438 0 l 335 0 q 321 14 321 0 l 321 358 l 13 958 q 13 969 10 965 q 21 972 15 972 l 131 972 q 147 961 142 972 l 379 500 l 611 961 q 628 972 617 972 l 738 972 q 746 969 743 972 q 746 958 749 965 l 438 358 m 397 1233 q 418 1247 406 1247 l 550 1247 q 560 1240 560 1247 q 557 1233 560 1238 l 414 1057 q 403 1047 408 1050 q 389 1044 399 1044 l 308 1044 q 300 1053 300 1044 q 301 1058 300 1056 l 397 1233 z "},"Þ":{"ha":842,"x_min":117,"x_max":783,"o":"m 117 958 q 131 972 117 972 l 219 972 q 233 958 233 972 l 233 757 l 467 757 q 703 686 624 757 q 783 486 783 615 q 703 286 783 357 q 467 215 624 215 l 233 215 l 233 14 q 219 0 233 0 l 131 0 q 117 14 117 0 l 117 958 m 233 326 l 485 326 q 618 365 575 326 q 661 486 661 403 q 618 608 661 569 q 485 646 575 646 l 233 646 l 233 326 z "},"ß":{"ha":867,"x_min":33,"x_max":808,"o":"m 560 -14 q 460 4 506 -14 q 381 53 414 22 q 331 124 349 83 q 311 208 313 164 q 325 222 311 222 l 403 222 q 412 219 410 222 q 417 208 414 215 q 465 124 428 160 q 560 89 501 89 q 694 225 694 89 q 676 296 694 268 q 629 342 657 324 q 569 376 601 361 q 508 409 536 390 q 462 454 481 428 q 443 524 443 481 q 463 590 443 564 q 506 638 482 615 q 549 684 529 660 q 568 747 568 708 q 528 846 568 808 q 417 883 489 883 q 301 840 343 883 q 260 714 260 797 l 260 14 q 246 0 260 0 l 165 0 q 151 14 151 0 l 151 594 l 47 594 q 33 608 33 594 l 33 683 q 47 697 33 697 l 151 697 l 151 742 q 171 838 151 793 q 225 915 190 882 q 308 967 260 949 q 417 986 357 986 q 523 969 475 986 q 605 923 571 953 q 658 850 639 893 q 676 753 676 807 q 657 666 676 699 q 614 611 638 633 q 571 569 590 589 q 551 524 551 550 q 570 485 551 501 q 618 454 589 469 q 680 422 647 439 q 742 379 713 404 q 790 317 771 354 q 808 228 808 281 q 789 126 808 171 q 736 51 769 82 q 658 3 703 19 q 560 -14 613 -14 z "},"à":{"ha":749,"x_min":67,"x_max":679,"o":"m 104 490 q 94 499 94 490 q 94 505 94 501 q 96 513 94 508 q 128 588 106 551 q 186 651 151 624 q 268 695 221 679 q 376 711 315 711 q 488 694 436 711 q 575 644 539 676 q 632 567 611 613 q 653 468 653 522 l 653 133 q 654 91 653 108 q 658 61 656 74 q 665 38 661 49 q 676 14 669 26 q 679 7 679 8 q 668 0 679 0 l 558 0 q 544 14 544 0 l 544 86 q 451 13 511 40 q 317 -14 392 -14 q 226 0 271 -14 q 147 41 182 14 q 89 110 111 68 q 67 207 67 151 q 89 308 67 265 q 149 381 111 351 q 239 424 188 410 q 349 439 290 439 q 451 430 401 439 q 544 408 500 421 l 544 447 q 501 567 544 526 q 376 608 457 608 q 273 581 314 608 q 213 503 232 553 q 205 492 210 494 q 193 490 200 490 l 104 490 m 544 306 q 456 328 501 321 q 356 336 411 336 q 286 329 318 336 q 231 308 254 322 q 194 269 207 293 q 181 214 181 246 q 219 121 181 153 q 329 89 258 89 q 412 103 372 89 q 481 144 451 117 q 527 213 510 172 q 544 306 544 253 m 447 783 q 449 778 449 781 q 440 769 449 769 l 360 769 q 335 782 344 769 l 192 958 q 189 965 189 963 q 199 972 189 972 l 331 972 q 351 958 343 972 l 447 783 z "},"á":{"ha":749,"x_min":67,"x_max":679,"o":"m 104 490 q 94 499 94 490 q 94 505 94 501 q 96 513 94 508 q 128 588 106 551 q 186 651 151 624 q 268 695 221 679 q 376 711 315 711 q 488 694 436 711 q 575 644 539 676 q 632 567 611 613 q 653 468 653 522 l 653 133 q 654 91 653 108 q 658 61 656 74 q 665 38 661 49 q 676 14 669 26 q 679 7 679 8 q 668 0 679 0 l 558 0 q 544 14 544 0 l 544 86 q 451 13 511 40 q 317 -14 392 -14 q 226 0 271 -14 q 147 41 182 14 q 89 110 111 68 q 67 207 67 151 q 89 308 67 265 q 149 381 111 351 q 239 424 188 410 q 349 439 290 439 q 451 430 401 439 q 544 408 500 421 l 544 447 q 501 567 544 526 q 376 608 457 608 q 273 581 314 608 q 213 503 232 553 q 205 492 210 494 q 193 490 200 490 l 104 490 m 544 306 q 456 328 501 321 q 356 336 411 336 q 286 329 318 336 q 231 308 254 322 q 194 269 207 293 q 181 214 181 246 q 219 121 181 153 q 329 89 258 89 q 412 103 372 89 q 481 144 451 117 q 527 213 510 172 q 544 306 544 253 m 383 958 q 404 972 392 972 l 536 972 q 546 965 546 972 q 543 958 546 963 l 400 782 q 390 772 394 775 q 375 769 385 769 l 294 769 q 286 778 286 769 q 288 783 286 781 l 383 958 z "},"â":{"ha":749,"x_min":67,"x_max":679,"o":"m 104 490 q 94 499 94 490 q 94 505 94 501 q 96 513 94 508 q 128 588 106 551 q 186 651 151 624 q 268 695 221 679 q 376 711 315 711 q 488 694 436 711 q 575 644 539 676 q 632 567 611 613 q 653 468 653 522 l 653 133 q 654 91 653 108 q 658 61 656 74 q 665 38 661 49 q 676 14 669 26 q 679 7 679 8 q 668 0 679 0 l 558 0 q 544 14 544 0 l 544 86 q 451 13 511 40 q 317 -14 392 -14 q 226 0 271 -14 q 147 41 182 14 q 89 110 111 68 q 67 207 67 151 q 89 308 67 265 q 149 381 111 351 q 239 424 188 410 q 349 439 290 439 q 451 430 401 439 q 544 408 500 421 l 544 447 q 501 567 544 526 q 376 608 457 608 q 273 581 314 608 q 213 503 232 553 q 205 492 210 494 q 193 490 200 490 l 104 490 m 544 306 q 456 328 501 321 q 356 336 411 336 q 286 329 318 336 q 231 308 254 322 q 194 269 207 293 q 181 214 181 246 q 219 121 181 153 q 329 89 258 89 q 412 103 372 89 q 481 144 451 117 q 527 213 510 172 q 544 306 544 253 m 582 783 q 584 774 586 778 q 575 769 582 769 l 489 769 q 476 772 481 769 q 464 782 471 775 l 376 869 l 289 782 q 277 772 282 775 q 264 769 272 769 l 178 769 q 169 774 171 769 q 171 783 167 778 l 317 961 q 338 972 326 972 l 415 972 q 436 961 426 972 l 582 783 z "},"ã":{"ha":749,"x_min":67,"x_max":679,"o":"m 104 490 q 94 499 94 490 q 94 505 94 501 q 96 513 94 508 q 128 588 106 551 q 186 651 151 624 q 268 695 221 679 q 376 711 315 711 q 488 694 436 711 q 575 644 539 676 q 632 567 611 613 q 653 468 653 522 l 653 133 q 654 91 653 108 q 658 61 656 74 q 665 38 661 49 q 676 14 669 26 q 679 7 679 8 q 668 0 679 0 l 558 0 q 544 14 544 0 l 544 86 q 451 13 511 40 q 317 -14 392 -14 q 226 0 271 -14 q 147 41 182 14 q 89 110 111 68 q 67 207 67 151 q 89 308 67 265 q 149 381 111 351 q 239 424 188 410 q 349 439 290 439 q 451 430 401 439 q 544 408 500 421 l 544 447 q 501 567 544 526 q 376 608 457 608 q 273 581 314 608 q 213 503 232 553 q 205 492 210 494 q 193 490 200 490 l 104 490 m 544 306 q 456 328 501 321 q 356 336 411 336 q 286 329 318 336 q 231 308 254 322 q 194 269 207 293 q 181 214 181 246 q 219 121 181 153 q 329 89 258 89 q 412 103 372 89 q 481 144 451 117 q 527 213 510 172 q 544 306 544 253 m 154 922 q 222 959 186 946 q 290 972 257 972 q 351 963 328 972 q 393 944 375 954 q 429 924 411 933 q 475 915 447 915 q 513 924 494 915 q 560 950 532 932 q 569 953 565 953 q 583 942 578 953 l 622 883 q 611 860 629 872 q 544 823 579 836 q 475 810 508 810 q 413 819 436 810 q 372 838 390 828 q 336 858 354 849 q 290 867 318 867 q 252 858 271 867 q 206 832 233 850 q 196 829 200 829 q 182 840 189 829 l 143 899 q 154 922 136 910 z "},"ä":{"ha":749,"x_min":67,"x_max":679,"o":"m 104 490 q 94 499 94 490 q 94 505 94 501 q 96 513 94 508 q 128 588 106 551 q 186 651 151 624 q 268 695 221 679 q 376 711 315 711 q 488 694 436 711 q 575 644 539 676 q 632 567 611 613 q 653 468 653 522 l 653 133 q 654 91 653 108 q 658 61 656 74 q 665 38 661 49 q 676 14 669 26 q 679 7 679 8 q 668 0 679 0 l 558 0 q 544 14 544 0 l 544 86 q 451 13 511 40 q 317 -14 392 -14 q 226 0 271 -14 q 147 41 182 14 q 89 110 111 68 q 67 207 67 151 q 89 308 67 265 q 149 381 111 351 q 239 424 188 410 q 349 439 290 439 q 451 430 401 439 q 544 408 500 421 l 544 447 q 501 567 544 526 q 376 608 457 608 q 273 581 314 608 q 213 503 232 553 q 205 492 210 494 q 193 490 200 490 l 104 490 m 544 306 q 456 328 501 321 q 356 336 411 336 q 286 329 318 336 q 231 308 254 322 q 194 269 207 293 q 181 214 181 246 q 219 121 181 153 q 329 89 258 89 q 412 103 372 89 q 481 144 451 117 q 527 213 510 172 q 544 306 544 253 m 192 958 q 206 972 192 972 l 317 972 q 331 958 331 972 l 331 847 q 317 833 331 833 l 206 833 q 192 847 192 833 l 192 958 m 422 958 q 436 972 422 972 l 547 972 q 561 958 561 972 l 561 847 q 547 833 561 833 l 436 833 q 422 847 422 833 l 422 958 z "},"å":{"ha":749,"x_min":67,"x_max":679,"o":"m 104 490 q 94 499 94 490 q 94 505 94 501 q 96 513 94 508 q 128 588 106 551 q 186 651 151 624 q 268 695 221 679 q 376 711 315 711 q 488 694 436 711 q 575 644 539 676 q 632 567 611 613 q 653 468 653 522 l 653 133 q 654 91 653 108 q 658 61 656 74 q 665 38 661 49 q 676 14 669 26 q 679 7 679 8 q 668 0 679 0 l 558 0 q 544 14 544 0 l 544 86 q 451 13 511 40 q 317 -14 392 -14 q 226 0 271 -14 q 147 41 182 14 q 89 110 111 68 q 67 207 67 151 q 89 308 67 265 q 149 381 111 351 q 239 424 188 410 q 349 439 290 439 q 451 430 401 439 q 544 408 500 421 l 544 447 q 501 567 544 526 q 376 608 457 608 q 273 581 314 608 q 213 503 232 553 q 205 492 210 494 q 193 490 200 490 l 104 490 m 544 306 q 456 328 501 321 q 356 336 411 336 q 286 329 318 336 q 231 308 254 322 q 194 269 207 293 q 181 214 181 246 q 219 121 181 153 q 329 89 258 89 q 412 103 372 89 q 481 144 451 117 q 527 213 510 172 q 544 306 544 253 m 257 883 q 291 967 257 935 q 378 1000 325 1000 q 465 967 431 1000 q 499 883 499 935 q 465 799 499 832 q 378 767 431 767 q 291 799 325 767 q 257 883 257 832 m 324 883 q 339 842 324 857 q 378 828 354 828 q 417 842 401 828 q 432 883 432 857 q 417 924 432 910 q 378 939 401 939 q 339 924 354 939 q 324 883 324 910 z "},"æ":{"ha":1296,"x_min":67,"x_max":1231,"o":"m 104 490 q 94 499 94 490 q 94 505 94 501 q 96 513 94 508 q 128 588 106 551 q 186 651 151 624 q 268 695 221 679 q 376 711 315 711 q 525 677 461 711 q 622 585 589 643 q 738 677 669 643 q 890 711 807 711 q 1033 682 969 711 q 1140 603 1096 653 q 1207 489 1183 554 q 1231 351 1231 424 l 1231 329 q 1217 315 1231 315 l 661 315 q 730 151 669 213 q 893 89 790 89 q 1017 119 965 89 q 1097 217 1069 149 q 1105 227 1100 225 q 1117 229 1110 229 l 1207 229 q 1217 219 1217 229 q 1217 215 1217 217 q 1214 206 1217 213 q 1090 40 1174 94 q 890 -14 1007 -14 q 722 25 794 -14 q 604 132 649 64 q 493 26 564 65 q 329 -14 422 -14 q 232 0 279 -14 q 148 41 185 14 q 89 110 111 68 q 67 207 67 151 q 89 308 67 265 q 149 381 111 351 q 239 424 188 410 q 349 439 290 439 q 451 431 401 439 q 544 410 500 422 l 544 447 q 501 567 544 526 q 376 608 457 608 q 273 581 314 608 q 213 503 232 553 q 205 492 210 494 q 193 490 200 490 l 104 490 m 544 304 q 456 328 501 319 q 356 336 411 336 q 286 329 318 336 q 231 308 254 322 q 194 269 207 293 q 181 214 181 246 q 219 121 181 153 q 329 89 258 89 q 412 103 372 89 q 481 144 451 117 q 527 211 510 171 q 544 304 544 251 m 890 608 q 814 597 850 608 q 748 560 778 585 q 697 501 718 536 q 665 418 675 465 l 1114 418 q 1037 556 1097 504 q 890 608 976 608 z "},"ç":{"ha":788,"x_min":69,"x_max":725,"o":"m 310 -125 q 307 -119 307 -122 q 310 -110 307 -118 l 342 -7 q 228 35 279 4 q 142 113 178 67 q 88 219 107 160 q 69 349 69 279 q 94 492 69 426 q 163 607 118 558 q 272 683 208 656 q 414 711 335 711 q 619 647 542 711 q 724 479 697 583 q 725 472 725 475 q 725 465 725 468 q 715 457 725 457 l 631 457 q 619 459 624 457 q 611 469 614 461 q 537 572 589 536 q 414 608 485 608 q 247 541 310 608 q 183 349 183 474 q 247 156 183 224 q 414 89 310 89 q 537 125 485 89 q 611 228 589 161 q 619 238 614 236 q 631 240 624 240 l 715 240 q 725 232 725 240 q 725 226 725 229 q 724 218 725 222 q 622 51 697 114 q 421 -14 546 -11 l 390 -85 q 428 -78 406 -81 q 467 -75 450 -75 q 553 -102 522 -75 q 585 -174 585 -129 q 544 -260 585 -232 q 429 -289 504 -289 q 357 -285 389 -289 q 299 -275 325 -282 q 288 -270 292 -272 q 285 -261 285 -268 l 285 -221 q 299 -207 285 -207 q 335 -215 310 -207 q 419 -222 361 -222 q 472 -211 451 -222 q 493 -179 493 -200 q 421 -136 493 -136 q 383 -139 401 -136 q 347 -146 364 -142 q 339 -147 342 -147 q 328 -143 332 -147 l 310 -125 z "},"è":{"ha":824,"x_min":69,"x_max":757,"o":"m 186 315 q 256 151 194 213 q 419 89 317 89 q 544 119 492 89 q 624 217 596 149 q 631 227 626 225 q 643 229 636 229 l 733 229 q 743 219 743 229 q 743 215 743 217 q 740 206 743 213 q 617 40 700 94 q 417 -14 533 -14 q 273 14 338 -14 q 163 91 208 42 q 94 206 118 140 q 69 349 69 272 q 95 491 69 425 q 167 606 121 557 q 278 683 214 656 q 417 711 342 711 q 559 682 496 711 q 666 603 622 653 q 733 489 710 554 q 757 351 757 424 l 757 329 q 743 315 757 315 l 186 315 m 417 608 q 340 597 376 608 q 274 560 304 585 q 223 501 244 536 q 192 418 201 465 l 640 418 q 563 556 624 504 q 417 608 503 608 m 504 783 q 506 778 506 781 q 497 769 506 769 l 417 769 q 392 782 401 769 l 249 958 q 246 965 246 963 q 256 972 246 972 l 388 972 q 408 958 400 972 l 504 783 z "},"é":{"ha":824,"x_min":69,"x_max":757,"o":"m 186 315 q 256 151 194 213 q 419 89 317 89 q 544 119 492 89 q 624 217 596 149 q 631 227 626 225 q 643 229 636 229 l 733 229 q 743 219 743 229 q 743 215 743 217 q 740 206 743 213 q 617 40 700 94 q 417 -14 533 -14 q 273 14 338 -14 q 163 91 208 42 q 94 206 118 140 q 69 349 69 272 q 95 491 69 425 q 167 606 121 557 q 278 683 214 656 q 417 711 342 711 q 559 682 496 711 q 666 603 622 653 q 733 489 710 554 q 757 351 757 424 l 757 329 q 743 315 757 315 l 186 315 m 417 608 q 340 597 376 608 q 274 560 304 585 q 223 501 244 536 q 192 418 201 465 l 640 418 q 563 556 624 504 q 417 608 503 608 m 406 958 q 426 972 414 972 l 558 972 q 568 965 568 972 q 565 958 568 963 l 422 782 q 412 772 417 775 q 397 769 407 769 l 317 769 q 308 778 308 769 q 310 783 308 781 l 406 958 z "},"ê":{"ha":824,"x_min":69,"x_max":757,"o":"m 186 315 q 256 151 194 213 q 419 89 317 89 q 544 119 492 89 q 624 217 596 149 q 631 227 626 225 q 643 229 636 229 l 733 229 q 743 219 743 229 q 743 215 743 217 q 740 206 743 213 q 617 40 700 94 q 417 -14 533 -14 q 273 14 338 -14 q 163 91 208 42 q 94 206 118 140 q 69 349 69 272 q 95 491 69 425 q 167 606 121 557 q 278 683 214 656 q 417 711 342 711 q 559 682 496 711 q 666 603 622 653 q 733 489 710 554 q 757 351 757 424 l 757 329 q 743 315 757 315 l 186 315 m 417 608 q 340 597 376 608 q 274 560 304 585 q 223 501 244 536 q 192 418 201 465 l 640 418 q 563 556 624 504 q 417 608 503 608 m 628 783 q 630 774 632 778 q 621 769 628 769 l 535 769 q 522 772 526 769 q 510 782 517 775 l 422 869 l 335 782 q 323 772 328 775 q 310 769 318 769 l 224 769 q 215 774 217 769 q 217 783 213 778 l 363 961 q 383 972 372 972 l 461 972 q 482 961 472 972 l 628 783 z "},"ë":{"ha":824,"x_min":69,"x_max":757,"o":"m 186 315 q 256 151 194 213 q 419 89 317 89 q 544 119 492 89 q 624 217 596 149 q 631 227 626 225 q 643 229 636 229 l 733 229 q 743 219 743 229 q 743 215 743 217 q 740 206 743 213 q 617 40 700 94 q 417 -14 533 -14 q 273 14 338 -14 q 163 91 208 42 q 94 206 118 140 q 69 349 69 272 q 95 491 69 425 q 167 606 121 557 q 278 683 214 656 q 417 711 342 711 q 559 682 496 711 q 666 603 622 653 q 733 489 710 554 q 757 351 757 424 l 757 329 q 743 315 757 315 l 186 315 m 417 608 q 340 597 376 608 q 274 560 304 585 q 223 501 244 536 q 192 418 201 465 l 640 418 q 563 556 624 504 q 417 608 503 608 m 232 958 q 246 972 232 972 l 357 972 q 371 958 371 972 l 371 847 q 357 833 371 833 l 246 833 q 232 847 232 833 l 232 958 m 463 958 q 476 972 463 972 l 588 972 q 601 958 601 972 l 601 847 q 588 833 601 833 l 476 833 q 463 847 463 833 l 463 958 z "},"ì":{"ha":297,"x_min":-28,"x_max":232,"o":"m 94 683 q 108 697 94 697 l 189 697 q 203 683 203 697 l 203 14 q 189 0 203 0 l 108 0 q 94 14 94 0 l 94 683 m 231 783 q 232 778 232 781 q 224 769 232 769 l 143 769 q 118 782 128 769 l -25 958 q -28 965 -28 963 q -18 972 -28 972 l 114 972 q 135 958 126 972 l 231 783 z "},"í":{"ha":297,"x_min":67,"x_max":326,"o":"m 94 683 q 108 697 94 697 l 189 697 q 203 683 203 697 l 203 14 q 189 0 203 0 l 108 0 q 94 14 94 0 l 94 683 m 164 958 q 185 972 172 972 l 317 972 q 326 965 326 972 q 324 958 326 963 l 181 782 q 170 772 175 775 q 156 769 165 769 l 75 769 q 67 778 67 769 q 68 783 67 781 l 164 958 z "},"î":{"ha":297,"x_min":-61,"x_max":358,"o":"m 94 683 q 108 697 94 697 l 189 697 q 203 683 203 697 l 203 14 q 189 0 203 0 l 108 0 q 94 14 94 0 l 94 683 m 354 783 q 356 774 358 778 q 347 769 354 769 l 261 769 q 248 772 253 769 q 236 782 243 775 l 149 869 l 61 782 q 49 772 54 775 q 36 769 44 769 l -50 769 q -59 774 -57 769 q -57 783 -61 778 l 89 961 q 110 972 99 972 l 188 972 q 208 961 199 972 l 354 783 z "},"ï":{"ha":297,"x_min":-36,"x_max":333,"o":"m 94 683 q 108 697 94 697 l 189 697 q 203 683 203 697 l 203 14 q 189 0 203 0 l 108 0 q 94 14 94 0 l 94 683 m -36 958 q -22 972 -36 972 l 89 972 q 103 958 103 972 l 103 847 q 89 833 103 833 l -22 833 q -36 847 -36 833 l -36 958 m 194 958 q 208 972 194 972 l 319 972 q 333 958 333 972 l 333 847 q 319 833 333 833 l 208 833 q 194 847 194 833 l 194 958 z "},"ð":{"ha":808,"x_min":69,"x_max":739,"o":"m 299 808 q 307 826 293 819 l 379 854 q 316 871 346 865 q 247 881 286 876 q 236 900 233 883 l 249 969 q 256 979 251 978 q 268 979 261 981 q 400 953 335 972 q 518 906 465 935 l 647 957 q 665 950 661 963 l 690 885 q 682 867 694 871 l 604 836 q 706 657 672 767 q 739 421 739 547 q 715 224 739 306 q 647 89 690 142 q 541 11 603 36 q 404 -14 479 -14 q 269 12 331 -14 q 164 85 208 38 q 94 199 119 132 q 69 349 69 265 q 94 499 69 432 q 161 613 118 565 q 265 685 204 660 q 397 711 325 711 q 511 692 461 711 q 597 629 561 672 q 555 727 582 688 q 489 793 528 767 l 342 736 q 324 743 328 731 l 299 808 m 183 349 q 240 160 183 232 q 404 89 297 89 q 492 107 451 89 q 563 159 533 125 q 608 241 592 193 q 625 349 625 289 q 608 455 625 407 q 563 537 592 503 q 492 590 533 571 q 404 608 451 608 q 240 537 297 608 q 183 349 183 465 z "},"ñ":{"ha":792,"x_min":111,"x_max":692,"o":"m 111 683 q 125 697 111 697 l 206 697 q 219 683 219 697 l 219 604 q 317 682 260 653 q 450 711 375 711 q 626 646 560 711 q 692 458 692 581 l 692 14 q 678 0 692 0 l 597 0 q 583 14 583 0 l 583 442 q 542 567 583 526 q 425 608 500 608 q 278 545 338 608 q 219 356 219 482 l 219 14 q 206 0 219 0 l 125 0 q 111 14 111 0 l 111 683 m 175 922 q 242 959 207 946 q 311 972 278 972 q 372 963 349 972 q 414 944 396 954 q 450 924 432 933 q 496 915 468 915 q 534 924 515 915 q 581 950 553 932 q 590 953 586 953 q 604 942 599 953 l 643 883 q 632 860 650 872 q 565 823 600 836 q 496 810 529 810 q 434 819 457 810 q 393 838 411 828 q 357 858 375 849 q 311 867 339 867 q 273 858 292 867 q 226 832 254 850 q 217 829 221 829 q 203 840 210 829 l 164 899 q 175 922 157 910 z "},"ò":{"ha":847,"x_min":69,"x_max":778,"o":"m 69 349 q 97 499 69 432 q 172 613 124 565 q 284 685 219 660 q 424 711 349 711 q 563 685 499 711 q 676 613 628 660 q 751 499 724 565 q 778 349 778 432 q 751 199 778 265 q 676 85 724 132 q 563 12 628 38 q 424 -14 499 -14 q 284 12 349 -14 q 172 85 219 38 q 97 199 124 132 q 69 349 69 265 m 183 349 q 201 242 183 290 q 250 160 218 194 q 326 108 282 126 q 424 89 369 89 q 522 108 478 89 q 597 160 565 126 q 647 242 629 194 q 664 349 664 290 q 647 455 664 407 q 597 537 629 503 q 522 590 565 571 q 424 608 478 608 q 326 590 369 608 q 250 537 282 571 q 201 455 218 503 q 183 349 183 407 m 506 783 q 507 778 507 781 q 499 769 507 769 l 418 769 q 393 782 403 769 l 250 958 q 247 965 247 963 q 257 972 247 972 l 389 972 q 410 958 401 972 l 506 783 z "},"ó":{"ha":847,"x_min":69,"x_max":778,"o":"m 69 349 q 97 499 69 432 q 172 613 124 565 q 284 685 219 660 q 424 711 349 711 q 563 685 499 711 q 676 613 628 660 q 751 499 724 565 q 778 349 778 432 q 751 199 778 265 q 676 85 724 132 q 563 12 628 38 q 424 -14 499 -14 q 284 12 349 -14 q 172 85 219 38 q 97 199 124 132 q 69 349 69 265 m 183 349 q 201 242 183 290 q 250 160 218 194 q 326 108 282 126 q 424 89 369 89 q 522 108 478 89 q 597 160 565 126 q 647 242 629 194 q 664 349 664 290 q 647 455 664 407 q 597 537 629 503 q 522 590 565 571 q 424 608 478 608 q 326 590 369 608 q 250 537 282 571 q 201 455 218 503 q 183 349 183 407 m 413 958 q 433 972 421 972 l 565 972 q 575 965 575 972 q 572 958 575 963 l 429 782 q 419 772 424 775 q 404 769 414 769 l 324 769 q 315 778 315 769 q 317 783 315 781 l 413 958 z "},"ô":{"ha":847,"x_min":69,"x_max":778,"o":"m 69 349 q 97 499 69 432 q 172 613 124 565 q 284 685 219 660 q 424 711 349 711 q 563 685 499 711 q 676 613 628 660 q 751 499 724 565 q 778 349 778 432 q 751 199 778 265 q 676 85 724 132 q 563 12 628 38 q 424 -14 499 -14 q 284 12 349 -14 q 172 85 219 38 q 97 199 124 132 q 69 349 69 265 m 183 349 q 201 242 183 290 q 250 160 218 194 q 326 108 282 126 q 424 89 369 89 q 522 108 478 89 q 597 160 565 126 q 647 242 629 194 q 664 349 664 290 q 647 455 664 407 q 597 537 629 503 q 522 590 565 571 q 424 608 478 608 q 326 590 369 608 q 250 537 282 571 q 201 455 218 503 q 183 349 183 407 m 629 783 q 631 774 633 778 q 622 769 629 769 l 536 769 q 523 772 528 769 q 511 782 518 775 l 424 869 l 336 782 q 324 772 329 775 q 311 769 319 769 l 225 769 q 216 774 218 769 q 218 783 214 778 l 364 961 q 385 972 374 972 l 463 972 q 483 961 474 972 l 629 783 z "},"õ":{"ha":847,"x_min":69,"x_max":778,"o":"m 69 349 q 97 499 69 432 q 172 613 124 565 q 284 685 219 660 q 424 711 349 711 q 563 685 499 711 q 676 613 628 660 q 751 499 724 565 q 778 349 778 432 q 751 199 778 265 q 676 85 724 132 q 563 12 628 38 q 424 -14 499 -14 q 284 12 349 -14 q 172 85 219 38 q 97 199 124 132 q 69 349 69 265 m 183 349 q 201 242 183 290 q 250 160 218 194 q 326 108 282 126 q 424 89 369 89 q 522 108 478 89 q 597 160 565 126 q 647 242 629 194 q 664 349 664 290 q 647 455 664 407 q 597 537 629 503 q 522 590 565 571 q 424 608 478 608 q 326 590 369 608 q 250 537 282 571 q 201 455 218 503 q 183 349 183 407 m 196 922 q 263 959 228 946 q 332 972 299 972 q 393 963 369 972 q 435 944 417 954 q 471 924 453 933 q 517 915 489 915 q 555 924 536 915 q 601 950 574 932 q 611 953 607 953 q 625 942 619 953 l 664 883 q 653 860 671 872 q 585 823 621 836 q 517 810 550 810 q 455 819 478 810 q 414 838 432 828 q 378 858 396 849 q 332 867 360 867 q 294 858 313 867 q 247 832 275 850 q 238 829 242 829 q 224 840 231 829 l 185 899 q 196 922 178 910 z "},"ö":{"ha":847,"x_min":69,"x_max":778,"o":"m 69 349 q 97 499 69 432 q 172 613 124 565 q 284 685 219 660 q 424 711 349 711 q 563 685 499 711 q 676 613 628 660 q 751 499 724 565 q 778 349 778 432 q 751 199 778 265 q 676 85 724 132 q 563 12 628 38 q 424 -14 499 -14 q 284 12 349 -14 q 172 85 219 38 q 97 199 124 132 q 69 349 69 265 m 183 349 q 201 242 183 290 q 250 160 218 194 q 326 108 282 126 q 424 89 369 89 q 522 108 478 89 q 597 160 565 126 q 647 242 629 194 q 664 349 664 290 q 647 455 664 407 q 597 537 629 503 q 522 590 565 571 q 424 608 478 608 q 326 590 369 608 q 250 537 282 571 q 201 455 218 503 q 183 349 183 407 m 239 958 q 253 972 239 972 l 364 972 q 378 958 378 972 l 378 847 q 364 833 378 833 l 253 833 q 239 847 239 833 l 239 958 m 469 958 q 483 972 469 972 l 594 972 q 608 958 608 972 l 608 847 q 594 833 608 833 l 483 833 q 469 847 469 833 l 469 958 z "},"÷":{"ha":794,"x_min":90,"x_max":704,"o":"m 444 133 q 458 119 458 133 l 458 14 q 444 0 458 0 l 339 0 q 325 14 325 0 l 325 119 q 339 133 325 133 l 444 133 m 444 697 q 458 683 458 697 l 458 578 q 444 564 458 564 l 339 564 q 325 578 325 564 l 325 683 q 339 697 325 697 l 444 697 m 690 403 q 704 389 704 403 l 704 308 q 690 294 704 294 l 104 294 q 90 308 90 294 l 90 389 q 104 403 90 403 l 690 403 z "},"ø":{"ha":847,"x_min":69,"x_max":778,"o":"m 69 349 q 97 499 69 432 q 172 613 124 565 q 284 685 219 660 q 424 711 349 711 q 575 681 503 711 l 618 754 q 638 760 625 765 l 675 738 q 681 718 688 729 l 638 644 q 740 522 703 597 q 778 349 778 447 q 751 199 778 265 q 676 85 724 132 q 563 12 628 38 q 424 -14 499 -14 q 344 -6 382 -14 q 272 17 307 1 l 229 -57 q 210 -62 221 -68 l 172 -40 q 167 -21 160 -32 l 210 53 q 107 175 144 100 q 69 349 69 250 m 664 349 q 643 465 664 414 q 583 551 622 517 l 325 107 q 424 89 367 89 q 522 108 478 89 q 597 160 565 126 q 647 242 629 194 q 664 349 664 290 m 183 349 q 204 232 183 283 q 264 146 225 181 l 522 590 q 424 608 481 608 q 326 590 369 608 q 250 537 282 571 q 201 455 218 503 q 183 349 183 407 z "},"ù":{"ha":792,"x_min":100,"x_max":681,"o":"m 681 14 q 667 0 681 0 l 586 0 q 572 14 572 0 l 572 93 q 474 15 532 44 q 342 -14 417 -14 q 166 51 232 -14 q 100 239 100 117 l 100 683 q 114 697 100 697 l 194 697 q 208 683 208 697 l 208 256 q 250 130 208 171 q 367 89 292 89 q 513 152 454 89 q 572 342 572 215 l 572 683 q 586 697 572 697 l 667 697 q 681 683 681 697 l 681 14 m 471 783 q 472 778 472 781 q 464 769 472 769 l 383 769 q 358 782 368 769 l 215 958 q 213 965 213 963 q 222 972 213 972 l 354 972 q 375 958 367 972 l 471 783 z "},"ú":{"ha":792,"x_min":100,"x_max":681,"o":"m 681 14 q 667 0 681 0 l 586 0 q 572 14 572 0 l 572 93 q 474 15 532 44 q 342 -14 417 -14 q 166 51 232 -14 q 100 239 100 117 l 100 683 q 114 697 100 697 l 194 697 q 208 683 208 697 l 208 256 q 250 130 208 171 q 367 89 292 89 q 513 152 454 89 q 572 342 572 215 l 572 683 q 586 697 572 697 l 667 697 q 681 683 681 697 l 681 14 m 382 958 q 403 972 390 972 l 535 972 q 544 965 544 972 q 542 958 544 963 l 399 782 q 388 772 393 775 q 374 769 383 769 l 293 769 q 285 778 285 769 q 286 783 285 781 l 382 958 z "},"û":{"ha":792,"x_min":100,"x_max":681,"o":"m 681 14 q 667 0 681 0 l 586 0 q 572 14 572 0 l 572 93 q 474 15 532 44 q 342 -14 417 -14 q 166 51 232 -14 q 100 239 100 117 l 100 683 q 114 697 100 697 l 194 697 q 208 683 208 697 l 208 256 q 250 130 208 171 q 367 89 292 89 q 513 152 454 89 q 572 342 572 215 l 572 683 q 586 697 572 697 l 667 697 q 681 683 681 697 l 681 14 m 597 783 q 599 774 601 778 q 590 769 597 769 l 504 769 q 491 772 496 769 q 479 782 486 775 l 392 869 l 304 782 q 292 772 297 775 q 279 769 288 769 l 193 769 q 184 774 186 769 q 186 783 182 778 l 332 961 q 353 972 342 972 l 431 972 q 451 961 442 972 l 597 783 z "},"ü":{"ha":792,"x_min":100,"x_max":681,"o":"m 681 14 q 667 0 681 0 l 586 0 q 572 14 572 0 l 572 93 q 474 15 532 44 q 342 -14 417 -14 q 166 51 232 -14 q 100 239 100 117 l 100 683 q 114 697 100 697 l 194 697 q 208 683 208 697 l 208 256 q 250 130 208 171 q 367 89 292 89 q 513 152 454 89 q 572 342 572 215 l 572 683 q 586 697 572 697 l 667 697 q 681 683 681 697 l 681 14 m 204 958 q 218 972 204 972 l 329 972 q 343 958 343 972 l 343 847 q 329 833 343 833 l 218 833 q 204 847 204 833 l 204 958 m 435 958 q 449 972 435 972 l 560 972 q 574 958 574 972 l 574 847 q 560 833 574 833 l 449 833 q 435 847 435 833 l 435 958 z "},"ý":{"ha":672,"x_min":17,"x_max":651,"o":"m 128 697 q 146 683 142 697 l 351 153 l 526 683 q 532 694 529 690 q 544 697 535 697 l 640 697 q 651 688 651 697 q 650 678 651 682 l 396 -68 q 348 -174 374 -132 q 292 -242 322 -217 q 228 -278 263 -268 q 156 -289 194 -289 q 99 -283 121 -289 q 53 -267 76 -278 q 41 -256 43 -261 q 39 -244 39 -251 l 39 -169 q 50 -156 39 -156 q 66 -160 58 -156 q 85 -171 74 -165 q 111 -181 96 -176 q 150 -186 126 -186 q 239 -144 206 -186 q 297 -10 272 -101 l 19 675 q 17 686 17 683 q 28 697 17 697 l 128 697 l 128 697 m 356 958 q 376 972 364 972 l 508 972 q 518 965 518 972 q 515 958 518 963 l 372 782 q 362 772 367 775 q 347 769 357 769 l 267 769 q 258 778 258 769 q 260 783 258 781 l 356 958 z "},"þ":{"ha":828,"x_min":111,"x_max":758,"o":"m 111 958 q 125 972 111 972 l 206 972 q 219 958 219 972 l 219 617 q 317 684 260 657 q 447 711 375 711 q 575 685 518 711 q 673 610 632 658 q 736 496 714 563 q 758 349 758 429 q 736 201 758 268 q 673 87 714 135 q 575 13 632 39 q 447 -14 518 -14 q 317 13 376 -14 q 219 79 257 39 l 219 -261 q 206 -275 219 -275 l 125 -275 q 111 -261 111 -275 l 111 958 m 208 349 q 224 244 208 292 q 267 161 239 196 q 337 108 296 126 q 429 89 378 89 q 522 108 482 89 q 590 161 563 126 q 631 244 617 196 q 644 349 644 292 q 631 453 644 406 q 590 535 617 501 q 522 589 563 569 q 429 608 482 608 q 337 589 378 608 q 267 535 296 569 q 224 453 239 501 q 208 349 208 406 z "},"ÿ":{"ha":672,"x_min":17,"x_max":651,"o":"m 128 697 q 146 683 142 697 l 351 153 l 526 683 q 532 694 529 690 q 544 697 535 697 l 640 697 q 651 688 651 697 q 650 678 651 682 l 396 -68 q 348 -174 374 -132 q 292 -242 322 -217 q 228 -278 263 -268 q 156 -289 194 -289 q 99 -283 121 -289 q 53 -267 76 -278 q 41 -256 43 -261 q 39 -244 39 -251 l 39 -169 q 50 -156 39 -156 q 66 -160 58 -156 q 85 -171 74 -165 q 111 -181 96 -176 q 150 -186 126 -186 q 239 -144 206 -186 q 297 -10 272 -101 l 19 675 q 17 686 17 683 q 28 697 17 697 l 128 697 l 128 697 m 151 958 q 165 972 151 972 l 276 972 q 290 958 290 972 l 290 847 q 276 833 290 833 l 165 833 q 151 847 151 833 l 151 958 m 382 958 q 396 972 382 972 l 507 972 q 521 958 521 972 l 521 847 q 507 833 521 833 l 396 833 q 382 847 382 833 l 382 958 z "},"Ā":{"ha":869,"x_min":15,"x_max":854,"o":"m 633 282 l 236 282 l 140 14 q 135 3 138 7 q 124 0 132 0 l 31 0 q 15 14 15 0 q 17 22 15 18 l 361 958 q 366 969 364 965 q 375 972 368 972 l 494 972 q 503 969 501 972 q 508 958 506 965 l 853 22 q 854 14 854 18 q 839 0 854 0 l 746 0 q 735 3 738 0 q 729 14 732 7 l 633 282 m 276 393 l 593 393 l 435 832 l 276 393 m 290 1186 q 304 1200 290 1200 l 565 1200 q 579 1186 579 1200 l 579 1117 q 565 1103 579 1103 l 304 1103 q 290 1117 290 1103 l 290 1186 z "},"ā":{"ha":749,"x_min":67,"x_max":679,"o":"m 104 490 q 94 499 94 490 q 94 505 94 501 q 96 513 94 508 q 128 588 106 551 q 186 651 151 624 q 268 695 221 679 q 376 711 315 711 q 488 694 436 711 q 575 644 539 676 q 632 567 611 613 q 653 468 653 522 l 653 133 q 654 91 653 108 q 658 61 656 74 q 665 38 661 49 q 676 14 669 26 q 679 7 679 8 q 668 0 679 0 l 558 0 q 544 14 544 0 l 544 86 q 451 13 511 40 q 317 -14 392 -14 q 226 0 271 -14 q 147 41 182 14 q 89 110 111 68 q 67 207 67 151 q 89 308 67 265 q 149 381 111 351 q 239 424 188 410 q 349 439 290 439 q 451 430 401 439 q 544 408 500 421 l 544 447 q 501 567 544 526 q 376 608 457 608 q 273 581 314 608 q 213 503 232 553 q 205 492 210 494 q 193 490 200 490 l 104 490 m 544 306 q 456 328 501 321 q 356 336 411 336 q 286 329 318 336 q 231 308 254 322 q 194 269 207 293 q 181 214 181 246 q 219 121 181 153 q 329 89 258 89 q 412 103 372 89 q 481 144 451 117 q 527 213 510 172 q 544 306 544 253 m 229 911 q 243 925 229 925 l 504 925 q 518 911 518 925 l 518 842 q 504 828 518 828 l 243 828 q 229 842 229 828 l 229 911 z "},"Ă":{"ha":869,"x_min":15,"x_max":854,"o":"m 633 282 l 236 282 l 140 14 q 135 3 138 7 q 124 0 132 0 l 31 0 q 15 14 15 0 q 17 22 15 18 l 361 958 q 366 969 364 965 q 375 972 368 972 l 494 972 q 503 969 501 972 q 508 958 506 965 l 853 22 q 854 14 854 18 q 839 0 854 0 l 746 0 q 735 3 738 0 q 729 14 732 7 l 633 282 m 276 393 l 593 393 l 435 832 l 276 393 m 340 1231 q 354 1217 354 1231 q 376 1162 354 1183 q 435 1140 397 1140 q 494 1162 472 1140 q 515 1217 515 1183 q 529 1231 515 1231 l 596 1231 q 610 1217 610 1231 q 560 1094 610 1140 q 435 1049 511 1049 q 309 1094 358 1049 q 260 1217 260 1140 q 274 1231 260 1231 l 340 1231 z "},"ă":{"ha":749,"x_min":67,"x_max":679,"o":"m 104 490 q 94 499 94 490 q 94 505 94 501 q 96 513 94 508 q 128 588 106 551 q 186 651 151 624 q 268 695 221 679 q 376 711 315 711 q 488 694 436 711 q 575 644 539 676 q 632 567 611 613 q 653 468 653 522 l 653 133 q 654 91 653 108 q 658 61 656 74 q 665 38 661 49 q 676 14 669 26 q 679 7 679 8 q 668 0 679 0 l 558 0 q 544 14 544 0 l 544 86 q 451 13 511 40 q 317 -14 392 -14 q 226 0 271 -14 q 147 41 182 14 q 89 110 111 68 q 67 207 67 151 q 89 308 67 265 q 149 381 111 351 q 239 424 188 410 q 349 439 290 439 q 451 430 401 439 q 544 408 500 421 l 544 447 q 501 567 544 526 q 376 608 457 608 q 273 581 314 608 q 213 503 232 553 q 205 492 210 494 q 193 490 200 490 l 104 490 m 544 306 q 456 328 501 321 q 356 336 411 336 q 286 329 318 336 q 231 308 254 322 q 194 269 207 293 q 181 214 181 246 q 219 121 181 153 q 329 89 258 89 q 412 103 372 89 q 481 144 451 117 q 527 213 510 172 q 544 306 544 253 m 282 956 q 296 942 296 956 q 317 887 296 908 q 376 865 339 865 q 435 887 414 865 q 457 942 457 908 q 471 956 457 956 l 538 956 q 551 942 551 956 q 502 819 551 865 q 376 774 453 774 q 251 819 300 774 q 201 942 201 865 q 215 956 201 956 l 282 956 z "},"Ą":{"ha":869,"x_min":15,"x_max":886,"o":"m 633 282 l 236 282 l 140 14 q 135 3 138 7 q 124 0 132 0 l 31 0 q 15 14 15 0 q 17 22 15 18 l 361 958 q 366 969 364 965 q 375 972 368 972 l 494 972 q 503 969 501 972 q 508 958 506 965 l 853 22 q 856 10 856 14 q 844 0 856 3 q 783 -35 806 -10 q 761 -92 761 -61 q 785 -147 761 -126 q 856 -168 810 -168 l 872 -168 q 886 -182 886 -168 l 886 -229 q 872 -243 886 -243 l 824 -243 q 760 -235 790 -243 q 706 -212 729 -228 q 670 -174 683 -197 q 657 -117 657 -150 q 681 -45 657 -76 q 733 4 704 -14 l 633 282 m 276 393 l 593 393 l 435 832 l 276 393 z "},"ą":{"ha":749,"x_min":67,"x_max":711,"o":"m 104 490 q 94 499 94 490 q 94 505 94 501 q 96 513 94 508 q 128 588 106 551 q 186 651 151 624 q 268 695 221 679 q 376 711 315 711 q 488 694 436 711 q 575 644 539 676 q 632 567 611 613 q 653 468 653 522 l 653 133 q 654 91 653 108 q 658 61 656 74 q 665 38 661 49 q 676 14 669 26 q 678 8 678 11 q 669 0 678 1 q 608 -35 631 -10 q 586 -92 586 -61 q 610 -147 586 -126 q 681 -168 635 -168 l 697 -168 q 711 -182 711 -168 l 711 -229 q 697 -243 711 -243 l 649 -243 q 585 -235 615 -243 q 531 -212 554 -228 q 495 -174 508 -197 q 482 -117 482 -150 q 501 -49 482 -79 q 544 0 521 -18 l 544 86 q 451 13 511 40 q 317 -14 392 -14 q 226 0 271 -14 q 147 41 182 14 q 89 110 111 68 q 67 207 67 151 q 89 308 67 265 q 149 381 111 351 q 239 424 188 410 q 349 439 290 439 q 451 431 401 439 q 544 410 500 422 l 544 447 q 501 567 544 526 q 376 608 457 608 q 273 581 314 608 q 213 503 232 553 q 205 492 210 494 q 193 490 200 490 l 104 490 m 544 304 q 456 328 501 319 q 356 336 411 336 q 286 329 318 336 q 231 308 254 322 q 194 269 207 293 q 181 214 181 246 q 219 121 181 153 q 329 89 258 89 q 412 103 372 89 q 481 144 451 117 q 527 211 510 171 q 544 304 544 251 z "},"Ć":{"ha":982,"x_min":72,"x_max":921,"o":"m 906 338 q 921 324 921 338 q 874 183 910 246 q 783 77 838 121 q 657 10 728 33 q 506 -14 586 -14 q 347 17 425 -14 q 208 109 269 47 q 110 265 147 171 q 72 486 72 358 q 110 707 72 613 q 208 863 147 801 q 347 956 269 925 q 506 986 425 986 q 657 963 586 986 q 783 895 728 939 q 874 789 838 851 q 921 649 910 726 q 906 635 921 635 l 821 635 q 804 649 808 635 q 506 875 739 875 q 387 851 443 875 q 288 780 331 828 q 220 659 246 732 q 194 486 194 586 q 220 313 194 386 q 288 191 246 239 q 387 120 331 143 q 506 97 443 97 q 804 324 739 97 q 821 338 808 338 l 906 338 m 521 1233 q 542 1247 529 1247 l 674 1247 q 683 1240 683 1247 q 681 1233 683 1238 l 538 1057 q 527 1047 532 1050 q 513 1044 522 1044 l 432 1044 q 424 1053 424 1044 q 425 1058 424 1056 l 521 1233 z "},"ć":{"ha":788,"x_min":69,"x_max":725,"o":"m 414 608 q 247 541 310 608 q 183 349 183 474 q 247 156 183 224 q 414 89 310 89 q 537 125 485 89 q 611 228 589 161 q 619 238 614 236 q 631 240 624 240 l 715 240 q 725 232 725 240 q 725 226 725 229 q 724 218 725 222 q 619 50 697 114 q 414 -14 542 -14 q 272 14 335 -14 q 163 90 208 42 q 94 205 118 139 q 69 349 69 271 q 94 492 69 426 q 163 607 118 558 q 272 683 208 656 q 414 711 335 711 q 619 647 542 711 q 724 479 697 583 q 725 472 725 475 q 725 465 725 468 q 715 457 725 457 l 631 457 q 619 459 624 457 q 611 469 614 461 q 537 572 589 536 q 414 608 485 608 m 411 958 q 432 972 419 972 l 564 972 q 574 965 574 972 q 571 958 574 963 l 428 782 q 417 772 422 775 q 403 769 413 769 l 322 769 q 314 778 314 769 q 315 783 314 781 l 411 958 z "},"Ĉ":{"ha":982,"x_min":72,"x_max":921,"o":"m 906 338 q 921 324 921 338 q 874 183 910 246 q 783 77 838 121 q 657 10 728 33 q 506 -14 586 -14 q 347 17 425 -14 q 208 109 269 47 q 110 265 147 171 q 72 486 72 358 q 110 707 72 613 q 208 863 147 801 q 347 956 269 925 q 506 986 425 986 q 657 963 586 986 q 783 895 728 939 q 874 789 838 851 q 921 649 910 726 q 906 635 921 635 l 821 635 q 804 649 808 635 q 506 875 739 875 q 387 851 443 875 q 288 780 331 828 q 220 659 246 732 q 194 486 194 586 q 220 313 194 386 q 288 191 246 239 q 387 120 331 143 q 506 97 443 97 q 804 324 739 97 q 821 338 808 338 l 906 338 m 711 1058 q 713 1049 715 1053 q 704 1044 711 1044 l 618 1044 q 605 1047 610 1044 q 593 1057 600 1050 l 506 1144 l 418 1057 q 406 1047 411 1050 q 393 1044 401 1044 l 307 1044 q 298 1049 300 1044 q 300 1058 296 1053 l 446 1236 q 467 1247 456 1247 l 544 1247 q 565 1236 556 1247 l 711 1058 z "},"ĉ":{"ha":788,"x_min":69,"x_max":725,"o":"m 414 608 q 247 541 310 608 q 183 349 183 474 q 247 156 183 224 q 414 89 310 89 q 537 125 485 89 q 611 228 589 161 q 619 238 614 236 q 631 240 624 240 l 715 240 q 725 232 725 240 q 725 226 725 229 q 724 218 725 222 q 619 50 697 114 q 414 -14 542 -14 q 272 14 335 -14 q 163 90 208 42 q 94 205 118 139 q 69 349 69 271 q 94 492 69 426 q 163 607 118 558 q 272 683 208 656 q 414 711 335 711 q 619 647 542 711 q 724 479 697 583 q 725 472 725 475 q 725 465 725 468 q 715 457 725 457 l 631 457 q 619 459 624 457 q 611 469 614 461 q 537 572 589 536 q 414 608 485 608 m 622 783 q 624 774 626 778 q 615 769 622 769 l 529 769 q 516 772 521 769 q 504 782 511 775 l 417 869 l 329 782 q 317 772 322 775 q 304 769 313 769 l 218 769 q 209 774 211 769 q 211 783 207 778 l 357 961 q 378 972 367 972 l 456 972 q 476 961 467 972 l 622 783 z "},"Ċ":{"ha":982,"x_min":72,"x_max":921,"o":"m 906 338 q 921 324 921 338 q 874 183 910 246 q 783 77 838 121 q 657 10 728 33 q 506 -14 586 -14 q 347 17 425 -14 q 208 109 269 47 q 110 265 147 171 q 72 486 72 358 q 110 707 72 613 q 208 863 147 801 q 347 956 269 925 q 506 986 425 986 q 657 963 586 986 q 783 895 728 939 q 874 789 838 851 q 921 649 910 726 q 906 635 921 635 l 821 635 q 804 649 808 635 q 506 875 739 875 q 387 851 443 875 q 288 780 331 828 q 220 659 246 732 q 194 486 194 586 q 220 313 194 386 q 288 191 246 239 q 387 120 331 143 q 506 97 443 97 q 804 324 739 97 q 821 338 808 338 l 906 338 m 432 1233 q 446 1247 432 1247 l 565 1247 q 579 1233 579 1247 l 579 1114 q 565 1100 579 1100 l 446 1100 q 432 1114 432 1100 l 432 1233 z "},"ċ":{"ha":788,"x_min":69,"x_max":725,"o":"m 414 608 q 247 541 310 608 q 183 349 183 474 q 247 156 183 224 q 414 89 310 89 q 537 125 485 89 q 611 228 589 161 q 619 238 614 236 q 631 240 624 240 l 715 240 q 725 232 725 240 q 725 226 725 229 q 724 218 725 222 q 619 50 697 114 q 414 -14 542 -14 q 272 14 335 -14 q 163 90 208 42 q 94 205 118 139 q 69 349 69 271 q 94 492 69 426 q 163 607 118 558 q 272 683 208 656 q 414 711 335 711 q 619 647 542 711 q 724 479 697 583 q 725 472 725 475 q 725 465 725 468 q 715 457 725 457 l 631 457 q 619 459 624 457 q 611 469 614 461 q 537 572 589 536 q 414 608 485 608 m 340 958 q 354 972 340 972 l 474 972 q 488 958 488 972 l 488 839 q 474 825 488 825 l 354 825 q 340 839 340 825 l 340 958 z "},"Č":{"ha":982,"x_min":72,"x_max":921,"o":"m 906 338 q 921 324 921 338 q 874 183 910 246 q 783 77 838 121 q 657 10 728 33 q 506 -14 586 -14 q 347 17 425 -14 q 208 109 269 47 q 110 265 147 171 q 72 486 72 358 q 110 707 72 613 q 208 863 147 801 q 347 956 269 925 q 506 986 425 986 q 657 963 586 986 q 783 895 728 939 q 874 789 838 851 q 921 649 910 726 q 906 635 921 635 l 821 635 q 804 649 808 635 q 506 875 739 875 q 387 851 443 875 q 288 780 331 828 q 220 659 246 732 q 194 486 194 586 q 220 313 194 386 q 288 191 246 239 q 387 120 331 143 q 506 97 443 97 q 804 324 739 97 q 821 338 808 338 l 906 338 m 565 1056 q 544 1044 556 1044 l 467 1044 q 446 1056 456 1044 l 300 1233 q 298 1243 296 1239 q 307 1247 300 1247 l 393 1247 q 406 1244 401 1247 q 418 1235 411 1242 l 506 1147 l 593 1235 q 605 1244 600 1242 q 618 1247 610 1247 l 704 1247 q 713 1243 711 1247 q 711 1233 715 1239 l 565 1056 z "},"č":{"ha":788,"x_min":69,"x_max":725,"o":"m 414 608 q 247 541 310 608 q 183 349 183 474 q 247 156 183 224 q 414 89 310 89 q 537 125 485 89 q 611 228 589 161 q 619 238 614 236 q 631 240 624 240 l 715 240 q 725 232 725 240 q 725 226 725 229 q 724 218 725 222 q 619 50 697 114 q 414 -14 542 -14 q 272 14 335 -14 q 163 90 208 42 q 94 205 118 139 q 69 349 69 271 q 94 492 69 426 q 163 607 118 558 q 272 683 208 656 q 414 711 335 711 q 619 647 542 711 q 724 479 697 583 q 725 472 725 475 q 725 465 725 468 q 715 457 725 457 l 631 457 q 619 459 624 457 q 611 469 614 461 q 537 572 589 536 q 414 608 485 608 m 474 781 q 453 769 464 769 l 375 769 q 354 781 364 769 l 208 958 q 206 968 204 964 q 215 972 208 972 l 301 972 q 315 969 310 972 q 326 960 319 967 l 414 872 l 501 960 q 513 969 508 967 q 526 972 518 972 l 613 972 q 622 968 619 972 q 619 958 624 964 l 474 781 z "},"Ď":{"ha":915,"x_min":117,"x_max":843,"o":"m 117 958 q 131 972 117 972 l 400 972 q 571 942 490 972 q 712 851 651 911 q 808 699 772 790 q 843 486 843 607 q 808 274 843 365 q 712 122 772 182 q 571 31 651 61 q 400 0 490 0 l 131 0 q 117 14 117 0 l 117 958 m 233 861 l 233 111 l 383 111 q 518 133 456 111 q 625 201 581 156 q 695 318 669 247 q 721 486 721 389 q 695 654 721 583 q 625 771 669 725 q 518 839 581 817 q 383 861 456 861 l 233 861 m 433 1056 q 413 1044 424 1044 l 335 1044 q 314 1056 324 1044 l 168 1233 q 166 1243 164 1239 q 175 1247 168 1247 l 261 1247 q 274 1244 269 1247 q 286 1235 279 1242 l 374 1147 l 461 1235 q 473 1244 468 1242 q 486 1247 478 1247 l 572 1247 q 581 1243 579 1247 q 579 1233 583 1239 l 433 1056 z "},"ď":{"ha":1011,"x_min":69,"x_max":975,"o":"m 717 14 q 703 0 717 0 l 622 0 q 608 14 608 0 l 608 79 q 511 13 571 39 q 381 -14 451 -14 q 253 13 310 -14 q 155 87 196 39 q 92 201 114 135 q 69 349 69 268 q 92 496 69 429 q 155 610 114 563 q 253 685 196 658 q 381 711 310 711 q 510 684 453 711 q 608 617 568 657 l 608 958 q 622 972 608 972 l 703 972 q 717 958 717 972 l 717 14 m 619 349 q 604 453 619 406 q 560 535 589 501 q 491 589 532 569 q 399 608 450 608 q 306 589 346 608 q 238 535 265 569 q 197 453 211 501 q 183 349 183 406 q 197 244 183 292 q 238 161 211 196 q 306 108 265 126 q 399 89 346 89 q 491 108 450 89 q 560 161 532 126 q 604 244 589 196 q 619 349 619 292 m 838 735 q 894 749 879 735 q 908 810 908 764 l 908 839 l 847 839 q 833 853 833 839 l 833 958 q 847 972 833 972 l 961 972 q 975 958 975 972 l 975 801 q 942 713 975 742 q 858 685 908 685 l 838 685 q 824 699 824 685 l 824 721 q 838 735 824 735 z "},"Đ":{"ha":940,"x_min":15,"x_max":868,"o":"m 142 958 q 156 972 142 972 l 425 972 q 596 942 515 972 q 737 851 676 911 q 833 699 797 790 q 868 486 868 607 q 833 274 868 365 q 737 122 797 182 q 596 31 676 61 q 425 0 515 0 l 156 0 q 142 14 142 0 l 142 432 l 29 432 q 15 446 15 432 l 15 526 q 29 540 15 540 l 142 540 l 142 958 m 479 540 q 493 526 493 540 l 493 446 q 479 432 493 432 l 258 432 l 258 111 l 408 111 q 543 133 481 111 q 650 201 606 156 q 720 318 694 247 q 746 486 746 389 q 720 654 746 583 q 650 771 694 725 q 543 839 606 817 q 408 861 481 861 l 258 861 l 258 540 l 479 540 z "},"đ":{"ha":828,"x_min":69,"x_max":818,"o":"m 717 864 l 804 864 q 818 850 818 864 l 818 778 q 804 764 818 764 l 717 764 l 717 14 q 703 0 717 0 l 622 0 q 608 14 608 0 l 608 79 q 511 13 571 39 q 381 -14 451 -14 q 253 13 310 -14 q 155 87 196 39 q 92 201 114 135 q 69 349 69 268 q 92 496 69 429 q 155 610 114 563 q 253 685 196 658 q 381 711 310 711 q 510 684 453 711 q 608 617 568 657 l 608 764 l 419 764 q 406 778 406 764 l 406 850 q 419 864 406 864 l 608 864 l 608 958 q 622 972 608 972 l 703 972 q 717 958 717 972 l 717 864 m 619 349 q 604 453 619 406 q 560 535 589 501 q 491 589 532 569 q 399 608 450 608 q 306 589 346 608 q 238 535 265 569 q 197 453 211 501 q 183 349 183 406 q 197 244 183 292 q 238 161 211 196 q 306 108 265 126 q 399 89 346 89 q 491 108 450 89 q 560 161 532 126 q 604 244 589 196 q 619 349 619 292 z "},"Ē":{"ha":811,"x_min":117,"x_max":726,"o":"m 233 111 l 713 111 q 726 97 726 111 l 726 14 q 713 0 726 0 l 131 0 q 117 14 117 0 l 117 958 q 131 972 117 972 l 692 972 q 706 958 706 972 l 706 875 q 692 861 706 861 l 233 861 l 233 567 l 650 567 q 664 553 664 567 l 664 469 q 650 456 664 456 l 233 456 l 233 111 m 288 1186 q 301 1200 288 1200 l 563 1200 q 576 1186 576 1200 l 576 1117 q 563 1103 576 1103 l 301 1103 q 288 1117 288 1103 l 288 1186 z "},"ē":{"ha":824,"x_min":69,"x_max":757,"o":"m 186 315 q 256 151 194 213 q 419 89 317 89 q 544 119 492 89 q 624 217 596 149 q 631 227 626 225 q 643 229 636 229 l 733 229 q 743 219 743 229 q 743 215 743 217 q 740 206 743 213 q 617 40 700 94 q 417 -14 533 -14 q 273 14 338 -14 q 163 91 208 42 q 94 206 118 140 q 69 349 69 272 q 95 491 69 425 q 167 606 121 557 q 278 683 214 656 q 417 711 342 711 q 559 682 496 711 q 666 603 622 653 q 733 489 710 554 q 757 351 757 424 l 757 329 q 743 315 757 315 l 186 315 m 417 608 q 340 597 376 608 q 274 560 304 585 q 223 501 244 536 q 192 418 201 465 l 640 418 q 563 556 624 504 q 417 608 503 608 m 275 911 q 289 925 275 925 l 550 925 q 564 911 564 925 l 564 842 q 550 828 564 828 l 289 828 q 275 842 275 828 l 275 911 z "},"Ĕ":{"ha":811,"x_min":117,"x_max":726,"o":"m 233 111 l 713 111 q 726 97 726 111 l 726 14 q 713 0 726 0 l 131 0 q 117 14 117 0 l 117 958 q 131 972 117 972 l 692 972 q 706 958 706 972 l 706 875 q 692 861 706 861 l 233 861 l 233 567 l 650 567 q 664 553 664 567 l 664 469 q 650 456 664 456 l 233 456 l 233 111 m 328 1231 q 342 1217 342 1231 q 363 1162 342 1183 q 422 1140 385 1140 q 481 1162 460 1140 q 503 1217 503 1183 q 517 1231 503 1231 l 583 1231 q 597 1217 597 1231 q 548 1094 597 1140 q 422 1049 499 1049 q 297 1094 346 1049 q 247 1217 247 1140 q 261 1231 247 1231 l 328 1231 z "},"ĕ":{"ha":824,"x_min":69,"x_max":757,"o":"m 186 315 q 256 151 194 213 q 419 89 317 89 q 544 119 492 89 q 624 217 596 149 q 631 227 626 225 q 643 229 636 229 l 733 229 q 743 219 743 229 q 743 215 743 217 q 740 206 743 213 q 617 40 700 94 q 417 -14 533 -14 q 273 14 338 -14 q 163 91 208 42 q 94 206 118 140 q 69 349 69 272 q 95 491 69 425 q 167 606 121 557 q 278 683 214 656 q 417 711 342 711 q 559 682 496 711 q 666 603 622 653 q 733 489 710 554 q 757 351 757 424 l 757 329 q 743 315 757 315 l 186 315 m 417 608 q 340 597 376 608 q 274 560 304 585 q 223 501 244 536 q 192 418 201 465 l 640 418 q 563 556 624 504 q 417 608 503 608 m 324 956 q 338 942 338 956 q 359 887 338 908 q 418 865 381 865 q 477 887 456 865 q 499 942 499 908 q 513 956 499 956 l 579 956 q 593 942 593 956 q 544 819 593 865 q 418 774 494 774 q 292 819 342 774 q 243 942 243 865 q 257 956 243 956 l 324 956 z "},"Ė":{"ha":811,"x_min":117,"x_max":726,"o":"m 233 111 l 713 111 q 726 97 726 111 l 726 14 q 713 0 726 0 l 131 0 q 117 14 117 0 l 117 958 q 131 972 117 972 l 692 972 q 706 958 706 972 l 706 875 q 692 861 706 861 l 233 861 l 233 567 l 650 567 q 664 553 664 567 l 664 469 q 650 456 664 456 l 233 456 l 233 111 m 342 1233 q 356 1247 342 1247 l 475 1247 q 489 1233 489 1247 l 489 1114 q 475 1100 489 1100 l 356 1100 q 342 1114 342 1100 l 342 1233 z "},"ė":{"ha":824,"x_min":69,"x_max":757,"o":"m 186 315 q 256 151 194 213 q 419 89 317 89 q 544 119 492 89 q 624 217 596 149 q 631 227 626 225 q 643 229 636 229 l 733 229 q 743 219 743 229 q 743 215 743 217 q 740 206 743 213 q 617 40 700 94 q 417 -14 533 -14 q 273 14 338 -14 q 163 91 208 42 q 94 206 118 140 q 69 349 69 272 q 95 491 69 425 q 167 606 121 557 q 278 683 214 656 q 417 711 342 711 q 559 682 496 711 q 666 603 622 653 q 733 489 710 554 q 757 351 757 424 l 757 329 q 743 315 757 315 l 186 315 m 417 608 q 340 597 376 608 q 274 560 304 585 q 223 501 244 536 q 192 418 201 465 l 640 418 q 563 556 624 504 q 417 608 503 608 m 343 958 q 357 972 343 972 l 476 972 q 490 958 490 972 l 490 839 q 476 825 490 825 l 357 825 q 343 839 343 825 l 343 958 z "},"Ę":{"ha":811,"x_min":117,"x_max":760,"o":"m 233 111 l 713 111 q 726 97 726 111 l 726 14 q 718 0 726 1 q 657 -35 679 -10 q 635 -92 635 -61 q 659 -147 635 -126 q 729 -168 683 -168 l 746 -168 q 760 -182 760 -168 l 760 -229 q 746 -243 760 -243 l 697 -243 q 633 -235 664 -243 q 580 -212 603 -228 q 544 -174 557 -197 q 531 -117 531 -150 q 551 -50 531 -81 q 599 0 571 -19 l 131 0 q 117 14 117 0 l 117 958 q 131 972 117 972 l 692 972 q 706 958 706 972 l 706 875 q 692 861 706 861 l 233 861 l 233 567 l 650 567 q 664 553 664 567 l 664 469 q 650 456 664 456 l 233 456 l 233 111 z "},"ę":{"ha":824,"x_min":69,"x_max":757,"o":"m 186 315 q 256 151 194 213 q 419 89 317 89 q 544 119 492 89 q 624 217 596 149 q 631 227 626 225 q 643 229 636 229 l 733 229 q 743 219 743 229 q 743 215 743 217 q 740 206 743 213 q 657 72 711 122 q 528 0 603 21 q 465 -36 488 -11 q 443 -92 443 -61 q 467 -147 443 -126 q 538 -168 492 -168 l 554 -168 q 568 -182 568 -168 l 568 -229 q 554 -243 568 -243 l 506 -243 q 442 -235 472 -243 q 388 -212 411 -228 q 352 -174 365 -197 q 339 -117 339 -150 q 353 -58 339 -85 q 390 -11 368 -31 q 257 22 317 -7 q 156 99 197 51 q 92 211 114 147 q 69 349 69 275 q 95 491 69 425 q 167 606 121 557 q 278 683 214 656 q 417 711 342 711 q 559 682 496 711 q 666 603 622 653 q 733 489 710 554 q 757 351 757 424 l 757 329 q 743 315 757 315 l 186 315 m 417 608 q 340 597 376 608 q 274 560 304 585 q 223 501 244 536 q 192 418 201 465 l 640 418 q 563 556 624 504 q 417 608 503 608 z "},"Ě":{"ha":811,"x_min":117,"x_max":726,"o":"m 233 111 l 713 111 q 726 97 726 111 l 726 14 q 713 0 726 0 l 131 0 q 117 14 117 0 l 117 958 q 131 972 117 972 l 692 972 q 706 958 706 972 l 706 875 q 692 861 706 861 l 233 861 l 233 567 l 650 567 q 664 553 664 567 l 664 469 q 650 456 664 456 l 233 456 l 233 111 m 483 1056 q 463 1044 474 1044 l 385 1044 q 364 1056 374 1044 l 218 1233 q 216 1243 214 1239 q 225 1247 218 1247 l 311 1247 q 324 1244 319 1247 q 336 1235 329 1242 l 424 1147 l 511 1235 q 523 1244 518 1242 q 536 1247 528 1247 l 622 1247 q 631 1243 629 1247 q 629 1233 633 1239 l 483 1056 z "},"ě":{"ha":824,"x_min":69,"x_max":757,"o":"m 186 315 q 256 151 194 213 q 419 89 317 89 q 544 119 492 89 q 624 217 596 149 q 631 227 626 225 q 643 229 636 229 l 733 229 q 743 219 743 229 q 743 215 743 217 q 740 206 743 213 q 617 40 700 94 q 417 -14 533 -14 q 273 14 338 -14 q 163 91 208 42 q 94 206 118 140 q 69 349 69 272 q 95 491 69 425 q 167 606 121 557 q 278 683 214 656 q 417 711 342 711 q 559 682 496 711 q 666 603 622 653 q 733 489 710 554 q 757 351 757 424 l 757 329 q 743 315 757 315 l 186 315 m 417 608 q 340 597 376 608 q 274 560 304 585 q 223 501 244 536 q 192 418 201 465 l 640 418 q 563 556 624 504 q 417 608 503 608 m 476 781 q 456 769 467 769 l 378 769 q 357 781 367 769 l 211 958 q 209 968 207 964 q 218 972 211 972 l 304 972 q 317 969 313 972 q 329 960 322 967 l 417 872 l 504 960 q 516 969 511 967 q 529 972 521 972 l 615 972 q 624 968 622 972 q 622 958 626 964 l 476 781 z "},"Ĝ":{"ha":990,"x_min":72,"x_max":926,"o":"m 913 494 q 926 481 926 494 l 926 239 q 913 186 926 207 q 747 35 846 83 q 535 -14 649 -14 q 358 18 442 -14 q 210 113 274 50 q 110 269 147 175 q 72 486 72 363 q 111 705 72 611 q 213 861 150 799 q 354 955 275 924 q 515 986 433 986 q 653 968 588 986 q 772 913 719 950 q 862 822 825 876 q 913 694 899 767 q 897 681 913 681 l 808 681 q 792 694 796 681 q 690 833 765 790 q 515 875 615 875 q 393 850 451 875 q 291 776 335 825 q 221 654 247 726 q 194 486 194 582 q 284 196 194 294 q 529 97 374 97 q 698 134 626 97 q 810 238 769 171 l 810 383 l 533 383 q 519 397 519 383 l 519 481 q 533 494 519 494 l 913 494 m 721 1058 q 723 1049 725 1053 q 714 1044 721 1044 l 628 1044 q 615 1047 619 1044 q 603 1057 610 1050 l 515 1144 l 428 1057 q 416 1047 421 1050 q 403 1044 411 1044 l 317 1044 q 308 1049 310 1044 q 310 1058 306 1053 l 456 1236 q 476 1247 465 1247 l 554 1247 q 575 1236 565 1247 l 721 1058 z "},"ĝ":{"ha":808,"x_min":69,"x_max":711,"o":"m 410 -289 q 297 -274 350 -289 q 203 -231 244 -260 q 138 -159 163 -201 q 110 -62 114 -117 q 124 -49 110 -49 l 204 -49 q 218 -62 218 -49 q 278 -156 233 -125 q 410 -186 322 -186 q 558 -124 513 -186 q 603 39 603 -61 l 603 89 q 505 26 557 49 q 381 3 453 3 q 257 28 314 3 q 158 99 200 53 q 93 211 117 146 q 69 357 69 276 q 92 503 69 438 q 157 615 115 568 q 256 686 199 661 q 381 711 313 711 q 508 686 451 711 q 603 621 565 661 l 603 683 q 617 697 603 697 l 697 697 q 711 683 711 697 l 711 42 q 636 -202 711 -115 q 410 -289 561 -289 m 614 357 q 556 539 614 469 q 399 608 499 608 q 239 539 294 608 q 183 357 183 469 q 239 175 183 244 q 399 106 294 106 q 556 175 499 106 q 614 357 614 244 m 597 783 q 599 774 601 778 q 590 769 597 769 l 504 769 q 491 772 496 769 q 479 782 486 775 l 392 869 l 304 782 q 292 772 297 775 q 279 769 288 769 l 193 769 q 184 774 186 769 q 186 783 182 778 l 332 961 q 353 972 342 972 l 431 972 q 451 961 442 972 l 597 783 z "},"Ğ":{"ha":990,"x_min":72,"x_max":926,"o":"m 913 494 q 926 481 926 494 l 926 239 q 913 186 926 207 q 747 35 846 83 q 535 -14 649 -14 q 358 18 442 -14 q 210 113 274 50 q 110 269 147 175 q 72 486 72 363 q 111 705 72 611 q 213 861 150 799 q 354 955 275 924 q 515 986 433 986 q 653 968 588 986 q 772 913 719 950 q 862 822 825 876 q 913 694 899 767 q 897 681 913 681 l 808 681 q 792 694 796 681 q 690 833 765 790 q 515 875 615 875 q 393 850 451 875 q 291 776 335 825 q 221 654 247 726 q 194 486 194 582 q 284 196 194 294 q 529 97 374 97 q 698 134 626 97 q 810 238 769 171 l 810 383 l 533 383 q 519 397 519 383 l 519 481 q 533 494 519 494 l 913 494 m 421 1231 q 435 1217 435 1231 q 456 1162 435 1183 q 515 1140 478 1140 q 574 1162 553 1140 q 596 1217 596 1183 q 610 1231 596 1231 l 676 1231 q 690 1217 690 1231 q 641 1094 690 1140 q 515 1049 592 1049 q 390 1094 439 1049 q 340 1217 340 1140 q 354 1231 340 1231 l 421 1231 z "},"ğ":{"ha":808,"x_min":69,"x_max":711,"o":"m 410 -289 q 297 -274 350 -289 q 203 -231 244 -260 q 138 -159 163 -201 q 110 -62 114 -117 q 124 -49 110 -49 l 204 -49 q 218 -62 218 -49 q 278 -156 233 -125 q 410 -186 322 -186 q 558 -124 513 -186 q 603 39 603 -61 l 603 89 q 505 26 557 49 q 381 3 453 3 q 257 28 314 3 q 158 99 200 53 q 93 211 117 146 q 69 357 69 276 q 92 503 69 438 q 157 615 115 568 q 256 686 199 661 q 381 711 313 711 q 508 686 451 711 q 603 621 565 661 l 603 683 q 617 697 603 697 l 697 697 q 711 683 711 697 l 711 42 q 636 -202 711 -115 q 410 -289 561 -289 m 614 357 q 556 539 614 469 q 399 608 499 608 q 239 539 294 608 q 183 357 183 469 q 239 175 183 244 q 399 106 294 106 q 556 175 499 106 q 614 357 614 244 m 300 956 q 314 942 314 956 q 335 887 314 908 q 394 865 357 865 q 453 887 432 865 q 475 942 475 908 q 489 956 475 956 l 556 956 q 569 942 569 956 q 520 819 569 865 q 394 774 471 774 q 269 819 318 774 q 219 942 219 865 q 233 956 219 956 l 300 956 z "},"Ġ":{"ha":990,"x_min":72,"x_max":926,"o":"m 913 494 q 926 481 926 494 l 926 239 q 913 186 926 207 q 747 35 846 83 q 535 -14 649 -14 q 358 18 442 -14 q 210 113 274 50 q 110 269 147 175 q 72 486 72 363 q 111 705 72 611 q 213 861 150 799 q 354 955 275 924 q 515 986 433 986 q 653 968 588 986 q 772 913 719 950 q 862 822 825 876 q 913 694 899 767 q 897 681 913 681 l 808 681 q 792 694 796 681 q 690 833 765 790 q 515 875 615 875 q 393 850 451 875 q 291 776 335 825 q 221 654 247 726 q 194 486 194 582 q 284 196 194 294 q 529 97 374 97 q 698 134 626 97 q 810 238 769 171 l 810 383 l 533 383 q 519 397 519 383 l 519 481 q 533 494 519 494 l 913 494 m 442 1233 q 456 1247 442 1247 l 575 1247 q 589 1233 589 1247 l 589 1114 q 575 1100 589 1100 l 456 1100 q 442 1114 442 1100 l 442 1233 z "},"ġ":{"ha":808,"x_min":69,"x_max":711,"o":"m 410 -289 q 297 -274 350 -289 q 203 -231 244 -260 q 138 -159 163 -201 q 110 -62 114 -117 q 124 -49 110 -49 l 204 -49 q 218 -62 218 -49 q 278 -156 233 -125 q 410 -186 322 -186 q 558 -124 513 -186 q 603 39 603 -61 l 603 89 q 505 26 557 49 q 381 3 453 3 q 257 28 314 3 q 158 99 200 53 q 93 211 117 146 q 69 357 69 276 q 92 503 69 438 q 157 615 115 568 q 256 686 199 661 q 381 711 313 711 q 508 686 451 711 q 603 621 565 661 l 603 683 q 617 697 603 697 l 697 697 q 711 683 711 697 l 711 42 q 636 -202 711 -115 q 410 -289 561 -289 m 614 357 q 556 539 614 469 q 399 608 499 608 q 239 539 294 608 q 183 357 183 469 q 239 175 183 244 q 399 106 294 106 q 556 175 499 106 q 614 357 614 244 m 319 958 q 333 972 319 972 l 453 972 q 467 958 467 972 l 467 839 q 453 825 467 825 l 333 825 q 319 839 319 825 l 319 958 z "},"Ģ":{"ha":990,"x_min":72,"x_max":926,"o":"m 913 494 q 926 481 926 494 l 926 239 q 913 186 926 207 q 747 35 846 83 q 535 -14 649 -14 q 358 18 442 -14 q 210 113 274 50 q 110 269 147 175 q 72 486 72 363 q 111 705 72 611 q 213 861 150 799 q 354 955 275 924 q 515 986 433 986 q 653 968 588 986 q 772 913 719 950 q 862 822 825 876 q 913 694 899 767 q 897 681 913 681 l 808 681 q 792 694 796 681 q 690 833 765 790 q 515 875 615 875 q 393 850 451 875 q 291 776 335 825 q 221 654 247 726 q 194 486 194 582 q 284 196 194 294 q 529 97 374 97 q 698 134 626 97 q 810 238 769 171 l 810 383 l 533 383 q 519 397 519 383 l 519 481 q 533 494 519 494 l 913 494 m 482 -267 q 534 -256 522 -267 q 546 -208 546 -246 l 546 -192 l 482 -192 q 468 -178 468 -192 l 468 -72 q 482 -58 468 -58 l 588 -58 q 601 -72 601 -58 l 601 -218 q 581 -292 601 -267 q 511 -317 561 -317 l 482 -317 q 468 -303 468 -317 l 468 -281 q 482 -267 468 -267 z "},"ģ":{"ha":808,"x_min":69,"x_max":711,"o":"m 410 -289 q 297 -274 350 -289 q 203 -231 244 -260 q 138 -159 163 -201 q 110 -62 114 -117 q 124 -49 110 -49 l 204 -49 q 218 -62 218 -49 q 278 -156 233 -125 q 410 -186 322 -186 q 558 -124 513 -186 q 603 39 603 -61 l 603 89 q 505 26 557 49 q 381 3 453 3 q 257 28 314 3 q 158 99 200 53 q 93 211 117 146 q 69 357 69 276 q 92 503 69 438 q 157 615 115 568 q 256 686 199 661 q 381 711 313 711 q 508 686 451 711 q 603 621 565 661 l 603 683 q 617 697 603 697 l 697 697 q 711 683 711 697 l 711 42 q 636 -202 711 -115 q 410 -289 561 -289 m 614 357 q 556 539 614 469 q 399 608 499 608 q 239 539 294 608 q 183 357 183 469 q 239 175 183 244 q 399 106 294 106 q 556 175 499 106 q 614 357 614 244 m 456 1021 q 399 1006 414 1021 q 385 946 385 992 l 385 917 l 446 917 q 460 903 460 917 l 460 797 q 446 783 460 783 l 332 783 q 318 797 318 783 l 318 954 q 351 1042 318 1014 q 435 1071 385 1071 l 456 1071 q 469 1057 469 1071 l 469 1035 q 456 1021 469 1021 z "},"Ĥ":{"ha":942,"x_min":117,"x_max":825,"o":"m 233 14 q 219 0 233 0 l 131 0 q 117 14 117 0 l 117 958 q 131 972 117 972 l 219 972 q 233 958 233 972 l 233 563 l 708 563 l 708 958 q 722 972 708 972 l 811 972 q 825 958 825 972 l 825 14 q 811 0 825 0 l 722 0 q 708 14 708 0 l 708 451 l 233 451 l 233 14 m 675 1058 q 677 1049 679 1053 q 668 1044 675 1044 l 582 1044 q 569 1047 574 1044 q 557 1057 564 1050 l 469 1144 l 382 1057 q 370 1047 375 1050 q 357 1044 365 1044 l 271 1044 q 262 1049 264 1044 q 264 1058 260 1053 l 410 1236 q 431 1247 419 1247 l 508 1247 q 529 1236 519 1247 l 675 1058 z "},"ĥ":{"ha":803,"x_min":111,"x_max":706,"o":"m 111 958 q 125 972 111 972 l 206 972 q 219 958 219 972 l 219 594 q 330 679 263 647 q 464 711 397 711 q 640 650 575 711 q 706 471 706 589 l 706 14 q 692 0 706 0 l 611 0 q 597 14 597 0 l 597 443 q 556 567 597 526 q 435 608 514 608 q 355 592 393 608 q 286 543 317 575 q 238 465 256 511 q 219 358 219 418 l 219 14 q 206 0 219 0 l 125 0 q 111 14 111 0 l 111 958 m 526 1058 q 528 1049 531 1053 q 519 1044 526 1044 l 433 1044 q 420 1047 425 1044 q 408 1057 415 1050 l 321 1144 l 233 1057 q 222 1047 226 1050 q 208 1044 217 1044 l 122 1044 q 113 1049 115 1044 q 115 1058 111 1053 l 261 1236 q 282 1247 271 1247 l 360 1247 q 381 1236 371 1247 l 526 1058 z "},"Ħ":{"ha":942,"x_min":6,"x_max":936,"o":"m 233 14 q 219 0 233 0 l 131 0 q 117 14 117 0 l 117 708 l 19 708 q 6 722 6 708 l 6 797 q 19 811 6 811 l 117 811 l 117 958 q 131 972 117 972 l 219 972 q 233 958 233 972 l 233 811 l 708 811 l 708 958 q 722 972 708 972 l 811 972 q 825 958 825 972 l 825 811 l 922 811 q 936 797 936 811 l 936 722 q 922 708 936 708 l 825 708 l 825 14 q 811 0 825 0 l 722 0 q 708 14 708 0 l 708 451 l 233 451 l 233 14 m 708 563 l 708 708 l 233 708 l 233 563 l 708 563 z "},"ħ":{"ha":803,"x_min":3,"x_max":706,"o":"m 111 764 l 17 764 q 3 778 3 764 l 3 850 q 17 864 3 864 l 111 864 l 111 958 q 125 972 111 972 l 206 972 q 219 958 219 972 l 219 864 l 390 864 q 404 850 404 864 l 404 778 q 390 764 404 764 l 219 764 l 219 594 q 330 679 263 647 q 464 711 397 711 q 640 650 575 711 q 706 471 706 589 l 706 14 q 692 0 706 0 l 611 0 q 597 14 597 0 l 597 443 q 556 567 597 526 q 435 608 514 608 q 355 592 393 608 q 286 543 317 575 q 238 465 256 511 q 219 358 219 418 l 219 14 q 206 0 219 0 l 125 0 q 111 14 111 0 l 111 764 z "},"Ĩ":{"ha":350,"x_min":-69,"x_max":424,"o":"m 117 958 q 131 972 117 972 l 219 972 q 233 958 233 972 l 233 14 q 219 0 233 0 l 131 0 q 117 14 117 0 l 117 958 m -51 1197 q 16 1234 -19 1221 q 85 1247 51 1247 q 146 1238 122 1247 q 188 1219 169 1229 q 224 1199 206 1208 q 269 1190 242 1190 q 308 1199 289 1190 q 354 1225 326 1207 q 364 1228 360 1228 q 378 1217 372 1228 l 417 1158 q 406 1135 424 1147 q 338 1098 374 1111 q 269 1085 303 1085 q 208 1094 231 1085 q 167 1113 185 1103 q 131 1133 149 1124 q 85 1142 113 1142 q 47 1133 65 1142 q 0 1107 28 1125 q -10 1104 -6 1104 q -24 1115 -17 1104 l -62 1174 q -51 1197 -69 1185 z "},"ĩ":{"ha":297,"x_min":-97,"x_max":396,"o":"m 94 683 q 108 697 94 697 l 189 697 q 203 683 203 697 l 203 14 q 189 0 203 0 l 108 0 q 94 14 94 0 l 94 683 m -79 922 q -12 959 -47 946 q 57 972 24 972 q 118 963 94 972 q 160 944 142 954 q 196 924 178 933 q 242 915 214 915 q 280 924 261 915 q 326 950 299 932 q 336 953 332 953 q 350 942 344 953 l 389 883 q 378 860 396 872 q 310 823 346 836 q 242 810 275 810 q 180 819 203 810 q 139 838 157 828 q 103 858 121 849 q 57 867 85 867 q 19 858 38 867 q -28 832 0 850 q -37 829 -33 829 q -51 840 -44 829 l -90 899 q -79 922 -97 910 z "},"Ī":{"ha":350,"x_min":31,"x_max":319,"o":"m 117 958 q 131 972 117 972 l 219 972 q 233 958 233 972 l 233 14 q 219 0 233 0 l 131 0 q 117 14 117 0 l 117 958 m 31 1186 q 44 1200 31 1200 l 306 1200 q 319 1186 319 1200 l 319 1117 q 306 1103 319 1103 l 44 1103 q 31 1117 31 1103 l 31 1186 z "},"ī":{"ha":297,"x_min":4,"x_max":293,"o":"m 94 683 q 108 697 94 697 l 189 697 q 203 683 203 697 l 203 14 q 189 0 203 0 l 108 0 q 94 14 94 0 l 94 683 m 4 911 q 18 925 4 925 l 279 925 q 293 911 293 925 l 293 842 q 279 828 293 828 l 18 828 q 4 842 4 828 l 4 911 z "},"Ĭ":{"ha":350,"x_min":0,"x_max":350,"o":"m 117 958 q 131 972 117 972 l 219 972 q 233 958 233 972 l 233 14 q 219 0 233 0 l 131 0 q 117 14 117 0 l 117 958 m 81 1231 q 94 1217 94 1231 q 116 1162 94 1183 q 175 1140 138 1140 q 234 1162 213 1140 q 256 1217 256 1183 q 269 1231 256 1231 l 336 1231 q 350 1217 350 1231 q 301 1094 350 1140 q 175 1049 251 1049 q 49 1094 99 1049 q 0 1217 0 1140 q 14 1231 0 1231 l 81 1231 z "},"ĭ":{"ha":297,"x_min":-26,"x_max":324,"o":"m 94 683 q 108 697 94 697 l 189 697 q 203 683 203 697 l 203 14 q 189 0 203 0 l 108 0 q 94 14 94 0 l 94 683 m 54 956 q 68 942 68 956 q 90 887 68 908 q 149 865 111 865 q 208 887 186 865 q 229 942 229 908 q 243 956 229 956 l 310 956 q 324 942 324 956 q 274 819 324 865 q 149 774 225 774 q 23 819 72 774 q -26 942 -26 865 q -12 956 -26 956 l 54 956 z "},"Į":{"ha":350,"x_min":36,"x_max":265,"o":"m 117 958 q 131 972 117 972 l 219 972 q 233 958 233 972 l 233 14 q 224 0 233 1 q 163 -35 185 -10 q 140 -92 140 -61 q 165 -147 140 -126 q 235 -168 189 -168 l 251 -168 q 265 -182 265 -168 l 265 -229 q 251 -243 265 -243 l 203 -243 q 139 -235 169 -243 q 85 -212 108 -228 q 49 -174 63 -197 q 36 -117 36 -150 q 60 -43 36 -76 q 117 8 85 -10 l 117 958 z "},"į":{"ha":297,"x_min":6,"x_max":235,"o":"m 94 683 q 108 697 94 697 l 189 697 q 203 683 203 697 l 203 14 q 193 0 203 1 q 132 -35 154 -10 q 110 -92 110 -61 q 134 -147 110 -126 q 204 -168 158 -168 l 221 -168 q 235 -182 235 -168 l 235 -229 q 221 -243 235 -243 l 172 -243 q 108 -235 139 -243 q 55 -212 78 -228 q 19 -174 32 -197 q 6 -117 6 -150 q 33 -38 6 -72 q 94 13 61 -4 l 94 683 m 75 958 q 89 972 75 972 l 208 972 q 222 958 222 972 l 222 839 q 208 825 222 825 l 89 825 q 75 839 75 825 l 75 958 z "},"İ":{"ha":350,"x_min":101,"x_max":249,"o":"m 117 958 q 131 972 117 972 l 219 972 q 233 958 233 972 l 233 14 q 219 0 233 0 l 131 0 q 117 14 117 0 l 117 958 m 101 1233 q 115 1247 101 1247 l 235 1247 q 249 1233 249 1247 l 249 1114 q 235 1100 249 1100 l 115 1100 q 101 1114 101 1100 l 101 1233 z "},"ı":{"ha":297,"x_min":94,"x_max":203,"o":"m 94 683 q 108 697 94 697 l 189 697 q 203 683 203 697 l 203 14 q 189 0 203 0 l 108 0 q 94 14 94 0 l 94 683 z "},"Ĳ":{"ha":1101,"x_min":117,"x_max":1018,"o":"m 117 958 q 131 972 117 972 l 219 972 q 233 958 233 972 l 233 14 q 219 0 233 0 l 131 0 q 117 14 117 0 l 117 958 m 1018 343 q 994 181 1018 249 q 927 69 969 113 q 828 6 885 26 q 704 -14 771 -14 q 574 10 631 -14 q 477 75 517 33 q 417 174 438 117 q 396 296 396 231 q 410 310 396 310 l 499 310 q 513 296 513 310 q 526 217 513 253 q 564 154 539 181 q 624 113 589 128 q 704 97 660 97 q 853 156 806 97 q 901 342 901 215 l 901 958 q 915 972 901 972 l 1004 972 q 1018 958 1018 972 l 1018 343 z "},"ĳ":{"ha":594,"x_min":75,"x_max":519,"o":"m 94 683 q 108 697 94 697 l 189 697 q 203 683 203 697 l 203 14 q 189 0 203 0 l 108 0 q 94 14 94 0 l 94 683 m 75 958 q 89 972 75 972 l 208 972 q 222 958 222 972 l 222 839 q 208 825 222 825 l 89 825 q 75 839 75 825 l 75 958 m 392 683 q 406 697 392 697 l 486 697 q 500 683 500 697 l 500 -37 q 487 -178 500 -124 q 456 -278 474 -233 q 444 -289 451 -289 q 435 -286 442 -289 l 361 -260 q 351 -243 347 -256 q 381 -155 369 -194 q 392 -54 392 -115 l 392 683 m 372 958 q 386 972 372 972 l 506 972 q 519 958 519 972 l 519 839 q 506 825 519 825 l 386 825 q 372 839 372 825 l 372 958 z "},"Ĵ":{"ha":751,"x_min":46,"x_max":824,"o":"m 668 343 q 644 181 668 249 q 577 69 619 113 q 478 6 535 26 q 354 -14 421 -14 q 224 10 281 -14 q 127 75 167 33 q 67 174 88 117 q 46 296 46 231 q 60 310 46 310 l 149 310 q 163 296 163 310 q 176 217 163 253 q 214 154 189 181 q 274 113 239 128 q 354 97 310 97 q 503 156 456 97 q 551 342 551 215 l 551 958 q 565 972 551 972 l 654 972 q 668 958 668 972 l 668 343 m 819 1058 q 822 1049 824 1053 q 813 1044 819 1044 l 726 1044 q 713 1047 718 1044 q 701 1057 708 1050 l 614 1144 l 526 1057 q 515 1047 519 1050 q 501 1044 510 1044 l 415 1044 q 406 1049 408 1044 q 408 1058 404 1053 l 554 1236 q 575 1247 564 1247 l 653 1247 q 674 1236 664 1247 l 819 1058 z "},"ĵ":{"ha":297,"x_min":-61,"x_max":358,"o":"m 354 783 q 356 774 358 778 q 347 769 354 769 l 261 769 q 248 772 253 769 q 236 782 243 775 l 149 869 l 61 782 q 49 772 54 775 q 36 769 44 769 l -50 769 q -59 774 -57 769 q -57 783 -61 778 l 89 961 q 110 972 99 972 l 188 972 q 208 961 199 972 l 354 783 m 94 683 q 108 697 94 697 l 189 697 q 203 683 203 697 l 203 -37 q 190 -178 203 -124 q 158 -278 176 -233 q 147 -289 154 -289 q 138 -286 144 -289 l 64 -260 q 54 -243 50 -256 q 83 -155 72 -194 q 94 -54 94 -115 l 94 683 z "},"Ķ":{"ha":853,"x_min":117,"x_max":842,"o":"m 233 540 l 626 958 q 638 969 633 965 q 649 972 642 972 l 765 972 q 778 966 776 972 q 774 953 781 960 l 458 614 l 836 19 q 838 6 842 11 q 826 0 833 0 l 714 0 q 701 5 706 0 q 689 21 696 10 l 368 518 l 233 372 l 233 14 q 219 0 233 0 l 131 0 q 117 14 117 0 l 117 958 q 131 972 117 972 l 219 972 q 233 958 233 972 l 233 540 m 399 -267 q 451 -256 439 -267 q 463 -208 463 -246 l 463 -192 l 399 -192 q 385 -178 385 -192 l 385 -72 q 399 -58 385 -58 l 504 -58 q 518 -72 518 -58 l 518 -218 q 498 -292 518 -267 q 428 -317 478 -317 l 399 -317 q 385 -303 385 -317 l 385 -281 q 399 -267 385 -267 z "},"ķ":{"ha":733,"x_min":111,"x_max":703,"o":"m 419 446 l 700 21 q 703 11 703 17 q 690 0 703 0 l 593 0 q 571 13 578 0 l 335 367 l 219 257 l 219 14 q 206 0 219 0 l 125 0 q 111 14 111 0 l 111 958 q 125 972 111 972 l 206 972 q 219 958 219 972 l 219 400 l 524 685 q 534 694 529 690 q 546 697 539 697 l 661 697 q 672 688 672 697 q 667 676 672 682 l 419 446 m 343 -267 q 395 -256 383 -267 q 407 -208 407 -246 l 407 -192 l 343 -192 q 329 -178 329 -192 l 329 -72 q 343 -58 329 -58 l 449 -58 q 463 -72 463 -58 l 463 -218 q 442 -292 463 -267 q 372 -317 422 -317 l 343 -317 q 329 -303 329 -317 l 329 -281 q 343 -267 329 -267 z "},"ĸ":{"ha":739,"x_min":111,"x_max":708,"o":"m 422 442 l 706 21 q 708 11 708 17 q 696 0 708 0 l 597 0 q 575 13 582 0 l 338 361 l 219 250 l 219 14 q 206 0 219 0 l 125 0 q 111 14 111 0 l 111 683 q 125 697 111 697 l 206 697 q 219 683 219 697 l 219 393 l 528 685 q 538 694 533 690 q 550 697 543 697 l 665 697 q 676 688 676 697 q 671 676 676 682 l 422 442 z "},"Ĺ":{"ha":803,"x_min":117,"x_max":746,"o":"m 117 958 q 131 972 117 972 l 219 972 q 233 958 233 972 l 233 111 l 732 111 q 746 97 746 111 l 746 14 q 732 0 746 0 l 131 0 q 117 14 117 0 l 117 958 m 225 1233 q 246 1247 233 1247 l 378 1247 q 388 1240 388 1247 q 385 1233 388 1238 l 242 1057 q 231 1047 236 1050 q 217 1044 226 1044 l 136 1044 q 128 1053 128 1044 q 129 1058 128 1056 l 225 1233 z "},"ĺ":{"ha":331,"x_min":111,"x_max":383,"o":"m 111 958 q 125 972 111 972 l 206 972 q 219 958 219 972 l 219 14 q 206 0 219 0 l 125 0 q 111 14 111 0 l 111 958 m 221 1233 q 242 1247 229 1247 l 374 1247 q 383 1240 383 1247 q 381 1233 383 1238 l 238 1057 q 227 1047 232 1050 q 213 1044 222 1044 l 132 1044 q 124 1053 124 1044 q 125 1058 124 1056 l 221 1233 z "},"Ļ":{"ha":803,"x_min":117,"x_max":746,"o":"m 117 958 q 131 972 117 972 l 219 972 q 233 958 233 972 l 233 111 l 732 111 q 746 97 746 111 l 746 14 q 732 0 746 0 l 131 0 q 117 14 117 0 l 117 958 m 394 -267 q 447 -256 435 -267 q 458 -208 458 -246 l 458 -192 l 394 -192 q 381 -178 381 -192 l 381 -72 q 394 -58 381 -58 l 500 -58 q 514 -72 514 -58 l 514 -218 q 494 -292 514 -267 q 424 -317 474 -317 l 394 -317 q 381 -303 381 -317 l 381 -281 q 394 -267 381 -267 z "},"ļ":{"ha":331,"x_min":99,"x_max":232,"o":"m 113 958 q 126 972 113 972 l 207 972 q 221 958 221 972 l 221 14 q 207 0 221 0 l 126 0 q 113 14 113 0 l 113 958 m 113 -267 q 165 -256 153 -267 q 176 -208 176 -246 l 176 -192 l 113 -192 q 99 -178 99 -192 l 99 -72 q 113 -58 99 -58 l 218 -58 q 232 -72 232 -58 l 232 -218 q 212 -292 232 -267 q 142 -317 192 -317 l 113 -317 q 99 -303 99 -317 l 99 -281 q 113 -267 99 -267 z "},"Ľ":{"ha":803,"x_min":117,"x_max":746,"o":"m 117 958 q 131 972 117 972 l 219 972 q 233 958 233 972 l 233 111 l 732 111 q 746 97 746 111 l 746 14 q 732 0 746 0 l 131 0 q 117 14 117 0 l 117 958 m 440 735 q 497 749 482 735 q 511 810 511 764 l 511 839 l 450 839 q 436 853 436 839 l 436 958 q 450 972 436 972 l 564 972 q 578 958 578 972 l 578 801 q 544 713 578 742 q 461 685 511 685 l 440 685 q 426 699 426 685 l 426 721 q 440 735 426 735 z "},"ľ":{"ha":519,"x_min":111,"x_max":483,"o":"m 111 958 q 125 972 111 972 l 206 972 q 219 958 219 972 l 219 14 q 206 0 219 0 l 125 0 q 111 14 111 0 l 111 958 m 346 735 q 402 749 388 735 q 417 810 417 764 l 417 839 l 356 839 q 342 853 342 839 l 342 958 q 356 972 342 972 l 469 972 q 483 958 483 972 l 483 801 q 450 713 483 742 q 367 685 417 685 l 346 685 q 332 699 332 685 l 332 721 q 346 735 332 735 z "},"Ŀ":{"ha":803,"x_min":117,"x_max":746,"o":"m 117 958 q 131 972 117 972 l 219 972 q 233 958 233 972 l 233 111 l 732 111 q 746 97 746 111 l 746 14 q 732 0 746 0 l 131 0 q 117 14 117 0 l 117 958 m 517 550 q 531 536 531 550 l 531 431 q 517 417 531 417 l 411 417 q 397 431 397 417 l 397 536 q 411 550 397 550 l 517 550 z "},"ŀ":{"ha":528,"x_min":111,"x_max":475,"o":"m 111 958 q 125 972 111 972 l 206 972 q 219 958 219 972 l 219 14 q 206 0 219 0 l 125 0 q 111 14 111 0 l 111 958 m 461 550 q 475 536 475 550 l 475 431 q 461 417 475 417 l 356 417 q 342 431 342 417 l 342 536 q 356 550 342 550 l 461 550 z "},"Ł":{"ha":803,"x_min":-11,"x_max":746,"o":"m 131 342 l 50 300 q 31 307 38 294 l -4 372 q 1 392 -11 386 l 131 460 l 131 958 q 144 972 131 972 l 233 972 q 247 958 247 972 l 247 521 l 443 625 q 463 618 456 631 l 497 553 q 492 533 504 539 l 247 404 l 247 111 l 732 111 q 746 97 746 111 l 746 14 q 732 0 746 0 l 144 0 q 131 14 131 0 l 131 342 z "},"ł":{"ha":404,"x_min":-21,"x_max":425,"o":"m 150 385 l 40 328 q 21 335 28 322 l -14 400 q -8 419 -21 414 l 150 503 l 150 958 q 164 972 150 972 l 244 972 q 258 958 258 972 l 258 560 l 364 615 q 383 608 376 621 l 418 543 q 413 524 425 529 l 258 442 l 258 14 q 244 0 258 0 l 164 0 q 150 14 150 0 l 150 385 z "},"Ń":{"ha":967,"x_min":117,"x_max":850,"o":"m 729 0 q 716 2 722 0 q 707 11 710 4 l 233 789 l 233 14 q 219 0 233 0 l 131 0 q 117 14 117 0 l 117 958 q 131 972 117 972 l 238 972 q 251 970 244 972 q 260 961 257 968 l 733 183 l 733 958 q 747 972 733 972 l 836 972 q 850 958 850 972 l 850 14 q 836 0 850 0 l 729 0 m 500 1233 q 521 1247 508 1247 l 653 1247 q 663 1240 663 1247 q 660 1233 663 1238 l 517 1057 q 506 1047 511 1050 q 492 1044 501 1044 l 411 1044 q 403 1053 403 1044 q 404 1058 403 1056 l 500 1233 z "},"ń":{"ha":792,"x_min":111,"x_max":692,"o":"m 111 683 q 125 697 111 697 l 206 697 q 219 683 219 697 l 219 604 q 317 682 260 653 q 450 711 375 711 q 626 646 560 711 q 692 458 692 581 l 692 14 q 678 0 692 0 l 597 0 q 583 14 583 0 l 583 442 q 542 567 583 526 q 425 608 500 608 q 278 545 338 608 q 219 356 219 482 l 219 14 q 206 0 219 0 l 125 0 q 111 14 111 0 l 111 683 m 422 958 q 443 972 431 972 l 575 972 q 585 965 585 972 q 582 958 585 963 l 439 782 q 428 772 433 775 q 414 769 424 769 l 333 769 q 325 778 325 769 q 326 783 325 781 l 422 958 z "},"Ņ":{"ha":967,"x_min":117,"x_max":850,"o":"m 729 0 q 716 2 722 0 q 707 11 710 4 l 233 789 l 233 14 q 219 0 233 0 l 131 0 q 117 14 117 0 l 117 958 q 131 972 117 972 l 238 972 q 251 970 244 972 q 260 961 257 968 l 733 183 l 733 958 q 747 972 733 972 l 836 972 q 850 958 850 972 l 850 14 q 836 0 850 0 l 729 0 m 436 -267 q 488 -256 476 -267 q 500 -208 500 -246 l 500 -192 l 436 -192 q 422 -178 422 -192 l 422 -72 q 436 -58 422 -58 l 542 -58 q 556 -72 556 -58 l 556 -218 q 535 -292 556 -267 q 465 -317 515 -317 l 436 -317 q 422 -303 422 -317 l 422 -281 q 436 -267 422 -267 z "},"ņ":{"ha":792,"x_min":111,"x_max":692,"o":"m 111 683 q 125 697 111 697 l 206 697 q 219 683 219 697 l 219 604 q 317 682 260 653 q 450 711 375 711 q 626 646 560 711 q 692 458 692 581 l 692 14 q 678 0 692 0 l 597 0 q 583 14 583 0 l 583 442 q 542 567 583 526 q 425 608 500 608 q 278 545 338 608 q 219 356 219 482 l 219 14 q 206 0 219 0 l 125 0 q 111 14 111 0 l 111 683 m 357 -267 q 409 -256 397 -267 q 421 -208 421 -246 l 421 -192 l 357 -192 q 343 -178 343 -192 l 343 -72 q 357 -58 343 -58 l 463 -58 q 476 -72 476 -58 l 476 -218 q 456 -292 476 -267 q 386 -317 436 -317 l 357 -317 q 343 -303 343 -317 l 343 -281 q 357 -267 343 -267 z "},"Ň":{"ha":967,"x_min":117,"x_max":850,"o":"m 729 0 q 716 2 722 0 q 707 11 710 4 l 233 789 l 233 14 q 219 0 233 0 l 131 0 q 117 14 117 0 l 117 958 q 131 972 117 972 l 238 972 q 251 970 244 972 q 260 961 257 968 l 733 183 l 733 958 q 747 972 733 972 l 836 972 q 850 958 850 972 l 850 14 q 836 0 850 0 l 729 0 m 558 1056 q 538 1044 549 1044 l 460 1044 q 439 1056 449 1044 l 293 1233 q 291 1243 289 1239 q 300 1247 293 1247 l 386 1247 q 399 1244 394 1247 q 411 1235 404 1242 l 499 1147 l 586 1235 q 598 1244 593 1242 q 611 1247 603 1247 l 697 1247 q 706 1243 704 1247 q 704 1233 708 1239 l 558 1056 z "},"ň":{"ha":792,"x_min":111,"x_max":692,"o":"m 111 683 q 125 697 111 697 l 206 697 q 219 683 219 697 l 219 604 q 317 682 260 653 q 450 711 375 711 q 626 646 560 711 q 692 458 692 581 l 692 14 q 678 0 692 0 l 597 0 q 583 14 583 0 l 583 442 q 542 567 583 526 q 425 608 500 608 q 278 545 338 608 q 219 356 219 482 l 219 14 q 206 0 219 0 l 125 0 q 111 14 111 0 l 111 683 m 493 781 q 472 769 483 769 l 394 769 q 374 781 383 769 l 228 958 q 226 968 224 964 q 235 972 228 972 l 321 972 q 334 969 329 972 q 346 960 339 967 l 433 872 l 521 960 q 533 969 528 967 q 546 972 538 972 l 632 972 q 641 968 639 972 q 639 958 643 964 l 493 781 z "},"ŉ":{"ha":906,"x_min":36,"x_max":806,"o":"m 225 683 q 239 697 225 697 l 319 697 q 333 683 333 697 l 333 604 q 431 682 374 653 q 564 711 489 711 q 740 646 674 711 q 806 458 806 581 l 806 14 q 792 0 806 0 l 711 0 q 697 14 697 0 l 697 442 q 656 567 697 526 q 539 608 614 608 q 392 545 451 608 q 333 356 333 482 l 333 14 q 319 0 333 0 l 239 0 q 225 14 225 0 l 225 683 m 50 776 q 106 791 92 776 q 121 851 121 806 l 121 881 l 60 881 q 46 894 46 881 l 46 1000 q 60 1014 46 1014 l 174 1014 q 188 1000 188 1014 l 188 843 q 154 755 188 783 q 71 726 121 726 l 50 726 q 36 740 36 726 l 36 763 q 50 776 36 776 z "},"Ŋ":{"ha":967,"x_min":117,"x_max":850,"o":"m 733 958 q 747 972 733 972 l 836 972 q 850 958 850 972 l 850 -10 q 834 -144 850 -90 q 782 -230 818 -197 q 685 -276 746 -262 q 536 -289 625 -289 q 522 -275 522 -289 l 522 -192 q 536 -178 522 -178 q 628 -174 590 -178 q 690 -154 667 -171 q 723 -101 713 -137 q 733 0 733 -65 l 733 7 l 233 789 l 233 14 q 219 0 233 0 l 131 0 q 117 14 117 0 l 117 958 q 131 972 117 972 l 238 972 q 260 961 253 972 l 733 222 l 733 958 z "},"ŋ":{"ha":786,"x_min":111,"x_max":692,"o":"m 583 442 q 542 567 583 526 q 425 608 500 608 q 278 545 338 608 q 219 356 219 482 l 219 14 q 206 0 219 0 l 125 0 q 111 14 111 0 l 111 683 q 125 697 111 697 l 206 697 q 219 683 219 697 l 219 604 q 317 682 260 653 q 450 711 375 711 q 626 646 560 711 q 692 458 692 581 l 692 -37 q 678 -178 692 -124 q 647 -278 665 -233 q 636 -289 643 -289 q 626 -286 633 -289 l 553 -260 q 543 -243 539 -256 q 572 -155 561 -194 q 583 -54 583 -115 l 583 442 z "},"Ō":{"ha":1067,"x_min":72,"x_max":994,"o":"m 533 -14 q 365 17 447 -14 q 217 111 282 49 q 112 267 151 174 q 72 486 72 361 q 112 705 72 611 q 217 861 151 799 q 365 955 282 924 q 533 986 447 986 q 702 955 619 986 q 850 861 785 924 q 955 705 915 799 q 994 486 994 611 q 955 267 994 361 q 850 111 915 174 q 702 17 785 49 q 533 -14 619 -14 m 533 97 q 663 121 601 97 q 770 192 724 144 q 844 313 817 240 q 872 486 872 386 q 844 659 872 586 q 770 780 817 732 q 663 851 724 828 q 533 875 601 875 q 404 851 465 875 q 297 780 343 828 q 222 659 250 732 q 194 486 194 586 q 222 313 194 386 q 297 192 250 240 q 404 121 343 144 q 533 97 465 97 m 389 1186 q 403 1200 389 1200 l 664 1200 q 678 1186 678 1200 l 678 1117 q 664 1103 678 1103 l 403 1103 q 389 1117 389 1103 l 389 1186 z "},"ō":{"ha":847,"x_min":69,"x_max":778,"o":"m 69 349 q 97 499 69 432 q 172 613 124 565 q 284 685 219 660 q 424 711 349 711 q 563 685 499 711 q 676 613 628 660 q 751 499 724 565 q 778 349 778 432 q 751 199 778 265 q 676 85 724 132 q 563 12 628 38 q 424 -14 499 -14 q 284 12 349 -14 q 172 85 219 38 q 97 199 124 132 q 69 349 69 265 m 183 349 q 201 242 183 290 q 250 160 218 194 q 326 108 282 126 q 424 89 369 89 q 522 108 478 89 q 597 160 565 126 q 647 242 629 194 q 664 349 664 290 q 647 455 664 407 q 597 537 629 503 q 522 590 565 571 q 424 608 478 608 q 326 590 369 608 q 250 537 282 571 q 201 455 218 503 q 183 349 183 407 m 279 911 q 293 925 279 925 l 554 925 q 568 911 568 925 l 568 842 q 554 828 568 828 l 293 828 q 279 842 279 828 l 279 911 z "},"Ŏ":{"ha":1067,"x_min":72,"x_max":994,"o":"m 533 -14 q 365 17 447 -14 q 217 111 282 49 q 112 267 151 174 q 72 486 72 361 q 112 705 72 611 q 217 861 151 799 q 365 955 282 924 q 533 986 447 986 q 702 955 619 986 q 850 861 785 924 q 955 705 915 799 q 994 486 994 611 q 955 267 994 361 q 850 111 915 174 q 702 17 785 49 q 533 -14 619 -14 m 533 97 q 663 121 601 97 q 770 192 724 144 q 844 313 817 240 q 872 486 872 386 q 844 659 872 586 q 770 780 817 732 q 663 851 724 828 q 533 875 601 875 q 404 851 465 875 q 297 780 343 828 q 222 659 250 732 q 194 486 194 586 q 222 313 194 386 q 297 192 250 240 q 404 121 343 144 q 533 97 465 97 m 439 1231 q 453 1217 453 1231 q 474 1162 453 1183 q 533 1140 496 1140 q 592 1162 571 1140 q 614 1217 614 1183 q 628 1231 614 1231 l 694 1231 q 708 1217 708 1231 q 659 1094 708 1140 q 533 1049 610 1049 q 408 1094 457 1049 q 358 1217 358 1140 q 372 1231 358 1231 l 439 1231 z "},"ŏ":{"ha":847,"x_min":69,"x_max":778,"o":"m 69 349 q 97 499 69 432 q 172 613 124 565 q 284 685 219 660 q 424 711 349 711 q 563 685 499 711 q 676 613 628 660 q 751 499 724 565 q 778 349 778 432 q 751 199 778 265 q 676 85 724 132 q 563 12 628 38 q 424 -14 499 -14 q 284 12 349 -14 q 172 85 219 38 q 97 199 124 132 q 69 349 69 265 m 183 349 q 201 242 183 290 q 250 160 218 194 q 326 108 282 126 q 424 89 369 89 q 522 108 478 89 q 597 160 565 126 q 647 242 629 194 q 664 349 664 290 q 647 455 664 407 q 597 537 629 503 q 522 590 565 571 q 424 608 478 608 q 326 590 369 608 q 250 537 282 571 q 201 455 218 503 q 183 349 183 407 m 329 956 q 343 942 343 956 q 365 887 343 908 q 424 865 386 865 q 483 887 461 865 q 504 942 504 908 q 518 956 504 956 l 585 956 q 599 942 599 956 q 549 819 599 865 q 424 774 500 774 q 298 819 347 774 q 249 942 249 865 q 263 956 249 956 l 329 956 z "},"Ő":{"ha":1067,"x_min":72,"x_max":994,"o":"m 533 -14 q 365 17 447 -14 q 217 111 282 49 q 112 267 151 174 q 72 486 72 361 q 112 705 72 611 q 217 861 151 799 q 365 955 282 924 q 533 986 447 986 q 702 955 619 986 q 850 861 785 924 q 955 705 915 799 q 994 486 994 611 q 955 267 994 361 q 850 111 915 174 q 702 17 785 49 q 533 -14 619 -14 m 533 97 q 663 121 601 97 q 770 192 724 144 q 844 313 817 240 q 872 486 872 386 q 844 659 872 586 q 770 780 817 732 q 663 851 724 828 q 533 875 601 875 q 404 851 465 875 q 297 780 343 828 q 222 659 250 732 q 194 486 194 586 q 222 313 194 386 q 297 192 250 240 q 404 121 343 144 q 533 97 465 97 m 432 1233 q 453 1247 440 1247 l 585 1247 q 594 1243 592 1247 q 592 1233 596 1239 l 449 1057 q 438 1047 443 1050 q 424 1044 433 1044 l 343 1044 q 335 1049 336 1044 q 336 1058 333 1053 l 432 1233 m 689 1233 q 710 1247 697 1247 l 842 1247 q 851 1243 849 1247 q 849 1233 853 1239 l 706 1057 q 695 1047 700 1050 q 681 1044 690 1044 l 600 1044 q 592 1049 593 1044 q 593 1058 590 1053 l 689 1233 z "},"ő":{"ha":847,"x_min":69,"x_max":778,"o":"m 69 349 q 97 499 69 432 q 172 613 124 565 q 284 685 219 660 q 424 711 349 711 q 563 685 499 711 q 676 613 628 660 q 751 499 724 565 q 778 349 778 432 q 751 199 778 265 q 676 85 724 132 q 563 12 628 38 q 424 -14 499 -14 q 284 12 349 -14 q 172 85 219 38 q 97 199 124 132 q 69 349 69 265 m 183 349 q 201 242 183 290 q 250 160 218 194 q 326 108 282 126 q 424 89 369 89 q 522 108 478 89 q 597 160 565 126 q 647 242 629 194 q 664 349 664 290 q 647 455 664 407 q 597 537 629 503 q 522 590 565 571 q 424 608 478 608 q 326 590 369 608 q 250 537 282 571 q 201 455 218 503 q 183 349 183 407 m 306 958 q 326 972 314 972 l 458 972 q 467 968 465 972 q 465 958 469 964 l 322 782 q 312 772 317 775 q 297 769 307 769 l 217 769 q 208 774 210 769 q 210 783 207 778 l 306 958 m 563 958 q 583 972 571 972 l 715 972 q 724 968 722 972 q 722 958 726 964 l 579 782 q 569 772 574 775 q 554 769 564 769 l 474 769 q 465 774 467 769 q 467 783 464 778 l 563 958 z "},"Œ":{"ha":1572,"x_min":72,"x_max":1488,"o":"m 994 111 l 1474 111 q 1488 97 1488 111 l 1488 14 q 1474 0 1488 0 l 892 0 q 878 14 878 0 l 878 140 q 720 24 811 63 q 533 -14 629 -14 q 365 17 447 -14 q 217 111 282 49 q 112 267 151 174 q 72 486 72 361 q 112 705 72 611 q 217 861 151 799 q 365 955 282 924 q 533 986 447 986 q 720 947 629 986 q 878 831 811 908 l 878 958 q 892 972 878 972 l 1453 972 q 1467 958 1467 972 l 1467 875 q 1453 861 1467 861 l 994 861 l 994 567 l 1411 567 q 1425 553 1425 567 l 1425 469 q 1411 456 1425 456 l 994 456 l 994 111 m 533 97 q 663 121 601 97 q 770 192 724 144 q 844 313 817 240 q 872 486 872 386 q 844 659 872 586 q 770 780 817 732 q 663 851 724 828 q 533 875 601 875 q 404 851 465 875 q 297 780 343 828 q 222 659 250 732 q 194 486 194 586 q 222 313 194 386 q 297 192 250 240 q 404 121 343 144 q 533 97 465 97 z "},"œ":{"ha":1418,"x_min":69,"x_max":1351,"o":"m 781 315 q 850 151 789 213 q 1014 89 911 89 q 1138 119 1086 89 q 1218 217 1190 149 q 1226 227 1221 225 q 1238 229 1231 229 l 1328 229 q 1338 219 1338 229 q 1338 215 1338 217 q 1335 206 1338 213 q 1211 40 1294 94 q 1011 -14 1128 -14 q 839 28 913 -14 q 721 140 765 69 q 597 26 674 67 q 424 -14 519 -14 q 284 12 349 -14 q 172 85 219 38 q 97 199 124 132 q 69 349 69 265 q 97 499 69 432 q 172 613 124 565 q 284 685 219 660 q 424 711 349 711 q 597 670 519 711 q 722 554 675 629 q 842 669 767 626 q 1011 711 917 711 q 1153 682 1090 711 q 1260 603 1217 653 q 1328 489 1304 554 q 1351 351 1351 424 l 1351 329 q 1338 315 1351 315 l 781 315 m 183 349 q 201 242 183 290 q 250 160 218 194 q 326 108 282 126 q 424 89 369 89 q 519 108 475 89 q 596 160 564 126 q 646 242 628 194 q 664 349 664 290 q 646 455 664 407 q 596 537 628 503 q 519 590 564 571 q 424 608 475 608 q 326 590 369 608 q 250 537 282 571 q 201 455 218 503 q 183 349 183 407 m 1011 608 q 935 597 971 608 q 869 560 899 585 q 817 501 839 536 q 786 418 796 465 l 1235 418 q 1158 556 1218 504 q 1011 608 1097 608 z "},"Ŕ":{"ha":854,"x_min":117,"x_max":804,"o":"m 117 958 q 131 972 117 972 l 474 972 q 690 907 613 972 q 768 715 768 842 q 754 625 768 665 q 715 555 740 585 q 657 504 690 525 q 586 471 624 483 l 799 14 q 788 0 804 0 l 690 0 q 671 14 679 0 l 460 458 l 233 458 l 233 14 q 219 0 233 0 l 131 0 q 117 14 117 0 l 117 958 m 233 569 l 482 569 q 610 605 569 569 q 651 715 651 640 q 610 825 651 789 q 482 861 569 861 l 233 861 l 233 569 m 406 1233 q 426 1247 414 1247 l 558 1247 q 568 1240 568 1247 q 565 1233 568 1238 l 422 1057 q 412 1047 417 1050 q 397 1044 407 1044 l 317 1044 q 308 1053 308 1044 q 310 1058 308 1056 l 406 1233 z "},"ŕ":{"ha":600,"x_min":111,"x_max":554,"o":"m 554 581 q 539 565 554 565 q 464 598 496 588 q 389 608 432 608 q 320 592 351 608 q 267 546 289 575 q 232 477 244 517 q 219 392 219 438 l 219 14 q 206 0 219 0 l 125 0 q 111 14 111 0 l 111 683 q 125 697 111 697 l 206 697 q 219 683 219 697 l 219 607 q 301 681 251 650 q 422 711 351 711 q 483 705 457 711 q 538 689 510 699 q 554 664 553 683 l 554 581 m 335 958 q 356 972 343 972 l 488 972 q 497 965 497 972 q 494 958 497 963 l 351 782 q 341 772 346 775 q 326 769 336 769 l 246 769 q 238 778 238 769 q 239 783 238 781 l 335 958 z "},"Ŗ":{"ha":854,"x_min":117,"x_max":804,"o":"m 117 958 q 131 972 117 972 l 474 972 q 690 907 613 972 q 768 715 768 842 q 754 625 768 665 q 715 555 740 585 q 657 504 690 525 q 586 471 624 483 l 799 14 q 788 0 804 0 l 690 0 q 671 14 679 0 l 460 458 l 233 458 l 233 14 q 219 0 233 0 l 131 0 q 117 14 117 0 l 117 958 m 233 569 l 482 569 q 610 605 569 569 q 651 715 651 640 q 610 825 651 789 q 482 861 569 861 l 233 861 l 233 569 m 376 -267 q 428 -256 417 -267 q 440 -208 440 -246 l 440 -192 l 376 -192 q 363 -178 363 -192 l 363 -72 q 376 -58 363 -58 l 482 -58 q 496 -72 496 -58 l 496 -218 q 476 -292 496 -267 q 406 -317 456 -317 l 376 -317 q 363 -303 363 -317 l 363 -281 q 376 -267 363 -267 z "},"ŗ":{"ha":600,"x_min":111,"x_max":554,"o":"m 554 581 q 539 565 554 565 q 464 598 496 588 q 389 608 432 608 q 320 592 351 608 q 267 546 289 575 q 232 477 244 517 q 219 392 219 438 l 219 14 q 206 0 219 0 l 125 0 q 111 14 111 0 l 111 683 q 125 697 111 697 l 206 697 q 219 683 219 697 l 219 607 q 301 681 251 650 q 422 711 351 711 q 483 705 457 711 q 538 689 510 699 q 554 664 553 683 l 554 581 m 201 -267 q 253 -256 242 -267 q 265 -208 265 -246 l 265 -192 l 201 -192 q 188 -178 188 -192 l 188 -72 q 201 -58 188 -58 l 307 -58 q 321 -72 321 -58 l 321 -218 q 301 -292 321 -267 q 231 -317 281 -317 l 201 -317 q 188 -303 188 -317 l 188 -281 q 201 -267 188 -267 z "},"Ř":{"ha":854,"x_min":117,"x_max":804,"o":"m 117 958 q 131 972 117 972 l 474 972 q 690 907 613 972 q 768 715 768 842 q 754 625 768 665 q 715 555 740 585 q 657 504 690 525 q 586 471 624 483 l 799 14 q 788 0 804 0 l 690 0 q 671 14 679 0 l 460 458 l 233 458 l 233 14 q 219 0 233 0 l 131 0 q 117 14 117 0 l 117 958 m 233 569 l 482 569 q 610 605 569 569 q 651 715 651 640 q 610 825 651 789 q 482 861 569 861 l 233 861 l 233 569 m 468 1056 q 447 1044 458 1044 l 369 1044 q 349 1056 358 1044 l 203 1233 q 201 1243 199 1239 q 210 1247 203 1247 l 296 1247 q 309 1244 304 1247 q 321 1235 314 1242 l 408 1147 l 496 1235 q 508 1244 503 1242 q 521 1247 513 1247 l 607 1247 q 616 1243 614 1247 q 614 1233 618 1239 l 468 1056 z "},"ř":{"ha":600,"x_min":111,"x_max":554,"o":"m 554 581 q 539 565 554 565 q 464 598 496 588 q 389 608 432 608 q 320 592 351 608 q 267 546 289 575 q 232 477 244 517 q 219 392 219 438 l 219 14 q 206 0 219 0 l 125 0 q 111 14 111 0 l 111 683 q 125 697 111 697 l 206 697 q 219 683 219 697 l 219 607 q 301 681 251 650 q 422 711 351 711 q 483 705 457 711 q 538 689 510 699 q 554 664 553 683 l 554 581 m 385 781 q 364 769 375 769 l 286 769 q 265 781 275 769 l 119 958 q 117 968 115 964 q 126 972 119 972 l 213 972 q 226 969 221 972 q 238 960 231 967 l 325 872 l 413 960 q 424 969 419 967 q 438 972 429 972 l 524 972 q 533 968 531 972 q 531 958 535 964 l 385 781 z "},"Ś":{"ha":819,"x_min":50,"x_max":767,"o":"m 75 726 q 101 839 75 790 q 173 920 128 888 q 277 969 218 953 q 401 986 336 986 q 542 964 481 986 q 645 904 603 942 q 710 817 688 867 q 735 715 733 768 q 721 701 735 701 l 632 701 q 618 715 618 701 q 598 781 615 751 q 551 831 581 810 q 483 863 522 851 q 401 875 444 875 q 319 865 357 875 q 252 838 281 856 q 208 792 224 819 q 192 732 192 765 q 211 665 192 693 q 265 617 231 638 q 347 580 300 596 q 449 550 394 564 q 574 510 515 532 q 674 456 632 488 q 742 383 717 425 q 767 283 767 342 q 740 153 767 208 q 666 60 714 97 q 553 4 618 22 q 408 -14 488 -14 q 267 8 333 -14 q 153 72 201 31 q 78 169 106 113 q 50 294 50 225 q 64 308 50 308 l 153 308 q 167 294 167 308 q 186 217 168 253 q 235 154 204 181 q 310 113 267 128 q 408 97 354 97 q 585 140 521 97 q 650 276 650 183 q 629 339 650 313 q 574 385 608 365 q 492 419 539 404 q 396 446 446 433 q 266 487 325 464 q 165 542 207 510 q 99 620 122 575 q 75 726 75 665 m 418 1233 q 439 1247 426 1247 l 571 1247 q 581 1240 581 1247 q 578 1233 581 1238 l 435 1057 q 424 1047 429 1050 q 410 1044 419 1044 l 329 1044 q 321 1053 321 1044 q 322 1058 321 1056 l 418 1233 z "},"ś":{"ha":694,"x_min":57,"x_max":629,"o":"m 629 204 q 608 111 629 151 q 551 43 588 71 q 463 1 514 15 q 350 -14 411 -14 q 235 3 289 -14 q 142 50 182 19 q 80 122 103 81 q 57 213 57 164 q 71 226 57 226 l 160 226 q 174 213 172 226 q 228 120 182 151 q 354 89 275 89 q 470 113 425 89 q 515 190 515 136 q 467 269 515 244 q 313 310 419 293 q 131 375 188 329 q 75 513 75 421 q 96 597 75 560 q 152 660 117 635 q 235 698 188 685 q 339 711 283 711 q 526 657 457 711 q 607 511 594 603 q 593 497 607 497 l 515 497 q 506 501 508 497 q 501 511 504 504 q 439 585 486 563 q 335 608 392 608 q 226 585 268 608 q 183 515 183 563 q 194 472 183 490 q 229 441 206 454 q 290 418 253 428 q 379 399 326 408 q 474 377 429 390 q 554 342 519 364 q 609 287 589 319 q 629 204 629 254 m 368 958 q 389 972 376 972 l 521 972 q 531 965 531 972 q 528 958 531 963 l 385 782 q 374 772 379 775 q 360 769 369 769 l 279 769 q 271 778 271 769 q 272 783 271 781 l 368 958 z "},"Ŝ":{"ha":819,"x_min":50,"x_max":767,"o":"m 75 726 q 101 839 75 790 q 173 920 128 888 q 277 969 218 953 q 401 986 336 986 q 542 964 481 986 q 645 904 603 942 q 710 817 688 867 q 735 715 733 768 q 721 701 735 701 l 632 701 q 618 715 618 701 q 598 781 615 751 q 551 831 581 810 q 483 863 522 851 q 401 875 444 875 q 319 865 357 875 q 252 838 281 856 q 208 792 224 819 q 192 732 192 765 q 211 665 192 693 q 265 617 231 638 q 347 580 300 596 q 449 550 394 564 q 574 510 515 532 q 674 456 632 488 q 742 383 717 425 q 767 283 767 342 q 740 153 767 208 q 666 60 714 97 q 553 4 618 22 q 408 -14 488 -14 q 267 8 333 -14 q 153 72 201 31 q 78 169 106 113 q 50 294 50 225 q 64 308 50 308 l 153 308 q 167 294 167 308 q 186 217 168 253 q 235 154 204 181 q 310 113 267 128 q 408 97 354 97 q 585 140 521 97 q 650 276 650 183 q 629 339 650 313 q 574 385 608 365 q 492 419 539 404 q 396 446 446 433 q 266 487 325 464 q 165 542 207 510 q 99 620 122 575 q 75 726 75 665 m 607 1058 q 609 1049 611 1053 q 600 1044 607 1044 l 514 1044 q 501 1047 506 1044 q 489 1057 496 1050 l 401 1144 l 314 1057 q 302 1047 307 1050 q 289 1044 297 1044 l 203 1044 q 194 1049 196 1044 q 196 1058 192 1053 l 342 1236 q 363 1247 351 1247 l 440 1247 q 461 1236 451 1247 l 607 1058 z "},"ŝ":{"ha":694,"x_min":57,"x_max":629,"o":"m 629 204 q 608 111 629 151 q 551 43 588 71 q 463 1 514 15 q 350 -14 411 -14 q 235 3 289 -14 q 142 50 182 19 q 80 122 103 81 q 57 213 57 164 q 71 226 57 226 l 160 226 q 174 213 172 226 q 228 120 182 151 q 354 89 275 89 q 470 113 425 89 q 515 190 515 136 q 467 269 515 244 q 313 310 419 293 q 131 375 188 329 q 75 513 75 421 q 96 597 75 560 q 152 660 117 635 q 235 698 188 685 q 339 711 283 711 q 526 657 457 711 q 607 511 594 603 q 593 497 607 497 l 515 497 q 506 501 508 497 q 501 511 504 504 q 439 585 486 563 q 335 608 392 608 q 226 585 268 608 q 183 515 183 563 q 194 472 183 490 q 229 441 206 454 q 290 418 253 428 q 379 399 326 408 q 474 377 429 390 q 554 342 519 364 q 609 287 589 319 q 629 204 629 254 m 540 783 q 542 774 544 778 q 533 769 540 769 l 447 769 q 434 772 439 769 q 422 782 429 775 l 335 869 l 247 782 q 235 772 240 775 q 222 769 231 769 l 136 769 q 127 774 129 769 q 129 783 125 778 l 275 961 q 296 972 285 972 l 374 972 q 394 961 385 972 l 540 783 z "},"Ş":{"ha":819,"x_min":50,"x_max":767,"o":"m 304 -125 q 304 -110 300 -121 l 336 -8 q 222 27 274 1 q 131 92 169 53 q 72 183 93 132 q 50 294 50 233 q 64 308 50 308 l 153 308 q 167 294 167 308 q 186 217 168 253 q 235 154 204 181 q 310 113 267 128 q 408 97 354 97 q 585 140 521 97 q 650 276 650 183 q 629 339 650 313 q 574 385 608 365 q 492 419 539 404 q 396 446 446 433 q 266 487 325 464 q 165 542 207 510 q 99 620 122 575 q 75 726 75 665 q 101 839 75 790 q 173 920 128 888 q 277 969 218 953 q 401 986 336 986 q 542 964 481 986 q 645 904 603 942 q 710 817 688 867 q 735 715 733 768 q 721 701 735 701 l 632 701 q 618 715 618 701 q 598 781 615 751 q 551 831 581 810 q 483 863 522 851 q 401 875 444 875 q 319 865 357 875 q 252 838 281 856 q 208 792 224 819 q 192 732 192 765 q 211 665 192 693 q 265 617 231 638 q 347 580 300 596 q 449 550 394 564 q 574 510 515 532 q 674 456 632 488 q 742 383 717 425 q 767 283 767 342 q 741 153 767 208 q 668 62 715 99 q 556 6 621 25 q 415 -14 492 -12 l 385 -85 q 422 -78 400 -81 q 461 -75 444 -75 q 548 -102 517 -75 q 579 -174 579 -129 q 539 -260 579 -232 q 424 -289 499 -289 q 351 -285 383 -289 q 293 -275 319 -282 q 283 -270 286 -272 q 279 -261 279 -268 l 279 -221 q 293 -207 279 -207 q 330 -215 304 -207 q 414 -222 356 -222 q 467 -211 446 -222 q 488 -179 488 -200 q 415 -136 488 -136 q 377 -139 396 -136 q 342 -146 358 -142 q 322 -143 329 -150 l 304 -125 z "},"ş":{"ha":694,"x_min":57,"x_max":629,"o":"m 239 -125 q 239 -110 235 -121 l 271 -6 q 117 71 178 13 q 57 213 57 129 q 71 226 57 226 l 160 226 q 174 213 172 226 q 228 120 182 151 q 354 89 275 89 q 470 113 425 89 q 515 190 515 136 q 467 269 515 244 q 313 310 419 293 q 131 375 188 329 q 75 513 75 421 q 96 597 75 560 q 152 660 117 635 q 235 698 188 685 q 339 711 283 711 q 526 657 457 711 q 607 511 594 603 q 593 497 607 497 l 515 497 q 506 501 508 497 q 501 511 504 504 q 439 585 486 563 q 335 608 392 608 q 226 585 268 608 q 183 515 183 563 q 194 472 183 490 q 229 441 206 454 q 290 418 253 428 q 379 399 326 408 q 474 377 429 390 q 554 342 519 364 q 609 287 589 319 q 629 204 629 254 q 608 111 629 151 q 551 43 588 71 q 463 1 514 15 q 350 -14 411 -14 l 319 -85 q 357 -78 335 -81 q 396 -75 379 -75 q 483 -102 451 -75 q 514 -174 514 -129 q 474 -260 514 -232 q 358 -289 433 -289 q 286 -285 318 -289 q 228 -275 254 -282 q 217 -270 221 -272 q 214 -261 214 -268 l 214 -221 q 228 -207 214 -207 q 265 -215 239 -207 q 349 -222 290 -222 q 401 -211 381 -222 q 422 -179 422 -200 q 350 -136 422 -136 q 312 -139 331 -136 q 276 -146 293 -142 q 257 -143 264 -150 l 239 -125 z "},"Š":{"ha":819,"x_min":50,"x_max":767,"o":"m 75 726 q 101 839 75 790 q 173 920 128 888 q 277 969 218 953 q 401 986 336 986 q 542 964 481 986 q 645 904 603 942 q 710 817 688 867 q 735 715 733 768 q 721 701 735 701 l 632 701 q 618 715 618 701 q 598 781 615 751 q 551 831 581 810 q 483 863 522 851 q 401 875 444 875 q 319 865 357 875 q 252 838 281 856 q 208 792 224 819 q 192 732 192 765 q 211 665 192 693 q 265 617 231 638 q 347 580 300 596 q 449 550 394 564 q 574 510 515 532 q 674 456 632 488 q 742 383 717 425 q 767 283 767 342 q 740 153 767 208 q 666 60 714 97 q 553 4 618 22 q 408 -14 488 -14 q 267 8 333 -14 q 153 72 201 31 q 78 169 106 113 q 50 294 50 225 q 64 308 50 308 l 153 308 q 167 294 167 308 q 186 217 168 253 q 235 154 204 181 q 310 113 267 128 q 408 97 354 97 q 585 140 521 97 q 650 276 650 183 q 629 339 650 313 q 574 385 608 365 q 492 419 539 404 q 396 446 446 433 q 266 487 325 464 q 165 542 207 510 q 99 620 122 575 q 75 726 75 665 m 472 1056 q 451 1044 463 1044 l 374 1044 q 353 1056 363 1044 l 207 1233 q 205 1243 203 1239 q 214 1247 207 1247 l 300 1247 q 313 1244 308 1247 q 325 1235 318 1242 l 413 1147 l 500 1235 q 512 1244 507 1242 q 525 1247 517 1247 l 611 1247 q 620 1243 618 1247 q 618 1233 622 1239 l 472 1056 z "},"š":{"ha":694,"x_min":57,"x_max":629,"o":"m 629 204 q 608 111 629 151 q 551 43 588 71 q 463 1 514 15 q 350 -14 411 -14 q 235 3 289 -14 q 142 50 182 19 q 80 122 103 81 q 57 213 57 164 q 71 226 57 226 l 160 226 q 174 213 172 226 q 228 120 182 151 q 354 89 275 89 q 470 113 425 89 q 515 190 515 136 q 467 269 515 244 q 313 310 419 293 q 131 375 188 329 q 75 513 75 421 q 96 597 75 560 q 152 660 117 635 q 235 698 188 685 q 339 711 283 711 q 526 657 457 711 q 607 511 594 603 q 593 497 607 497 l 515 497 q 506 501 508 497 q 501 511 504 504 q 439 585 486 563 q 335 608 392 608 q 226 585 268 608 q 183 515 183 563 q 194 472 183 490 q 229 441 206 454 q 290 418 253 428 q 379 399 326 408 q 474 377 429 390 q 554 342 519 364 q 609 287 589 319 q 629 204 629 254 m 410 781 q 389 769 400 769 l 311 769 q 290 781 300 769 l 144 958 q 142 968 140 964 q 151 972 144 972 l 238 972 q 251 969 246 972 q 263 960 256 967 l 350 872 l 438 960 q 449 969 444 967 q 463 972 454 972 l 549 972 q 558 968 556 972 q 556 958 560 964 l 410 781 z "},"Ţ":{"ha":783,"x_min":35,"x_max":749,"o":"m 314 -125 q 311 -119 311 -122 q 314 -108 311 -117 l 353 0 l 347 0 q 333 14 333 0 l 333 861 l 49 861 q 35 875 35 861 l 35 958 q 49 972 35 972 l 735 972 q 749 958 749 972 l 749 875 q 735 861 749 861 l 450 861 l 450 14 q 436 0 450 0 l 431 0 l 394 -85 q 432 -78 410 -81 q 471 -75 454 -75 q 558 -102 526 -75 q 589 -174 589 -129 q 549 -260 589 -232 q 433 -289 508 -289 q 361 -285 393 -289 q 303 -275 329 -282 q 292 -270 296 -272 q 289 -261 289 -268 l 289 -221 q 303 -207 289 -207 q 340 -215 314 -207 q 424 -222 365 -222 q 476 -211 456 -222 q 497 -179 497 -200 q 425 -136 497 -136 q 387 -139 406 -136 q 351 -146 368 -142 q 343 -147 346 -147 q 332 -143 336 -147 l 314 -125 z "},"ţ":{"ha":583,"x_min":36,"x_max":543,"o":"m 232 -125 q 229 -119 229 -122 q 232 -108 229 -117 l 271 11 q 174 197 174 63 l 174 594 l 50 594 q 36 608 36 594 l 36 683 q 50 697 36 697 l 174 697 l 174 897 q 188 911 174 911 l 268 911 q 282 897 282 911 l 282 697 l 513 697 q 526 683 526 697 l 526 608 q 513 594 526 594 l 282 594 l 282 207 q 392 89 282 89 q 456 92 426 89 q 524 110 486 96 q 533 113 529 113 q 543 99 543 113 l 543 33 q 542 18 543 24 q 532 10 540 13 q 383 -14 469 -14 q 363 -13 372 -14 q 343 -11 353 -12 l 313 -85 q 350 -78 328 -81 q 389 -75 372 -75 q 476 -102 444 -75 q 507 -174 507 -129 q 467 -260 507 -232 q 351 -289 426 -289 q 279 -285 311 -289 q 221 -275 247 -282 q 210 -270 214 -272 q 207 -261 207 -268 l 207 -221 q 221 -207 207 -207 q 258 -215 232 -207 q 342 -222 283 -222 q 394 -211 374 -222 q 415 -179 415 -200 q 343 -136 415 -136 q 305 -139 324 -136 q 269 -146 286 -142 q 261 -147 264 -147 q 250 -143 254 -147 l 232 -125 z "},"Ť":{"ha":783,"x_min":35,"x_max":749,"o":"m 35 958 q 49 972 35 972 l 735 972 q 749 958 749 972 l 749 875 q 735 861 749 861 l 450 861 l 450 14 q 436 0 450 0 l 347 0 q 333 14 333 0 l 333 861 l 49 861 q 35 875 35 861 l 35 958 m 451 1056 q 431 1044 442 1044 l 353 1044 q 332 1056 342 1044 l 186 1233 q 184 1243 182 1239 q 193 1247 186 1247 l 279 1247 q 292 1244 288 1247 q 304 1235 297 1242 l 392 1147 l 479 1235 q 491 1244 486 1242 q 504 1247 496 1247 l 590 1247 q 599 1243 597 1247 q 597 1233 601 1239 l 451 1056 z "},"ť":{"ha":649,"x_min":36,"x_max":608,"o":"m 513 697 q 526 683 526 697 l 526 608 q 513 594 526 594 l 282 594 l 282 207 q 392 89 282 89 q 456 92 426 89 q 524 110 486 96 q 533 113 529 113 q 543 99 543 113 l 543 33 q 542 18 543 24 q 532 10 540 13 q 383 -14 469 -14 q 229 42 285 -14 q 174 197 174 97 l 174 594 l 50 594 q 36 608 36 594 l 36 683 q 50 697 36 697 l 174 697 l 174 897 q 188 911 174 911 l 268 911 q 282 897 282 911 l 282 697 l 513 697 m 471 821 q 527 835 513 821 q 542 896 542 850 l 542 925 l 481 925 q 467 939 467 925 l 467 1044 q 481 1058 467 1058 l 594 1058 q 608 1044 608 1058 l 608 888 q 575 799 608 828 q 492 771 542 771 l 471 771 q 457 785 457 771 l 457 807 q 471 821 457 821 z "},"Ŧ":{"ha":783,"x_min":35,"x_max":749,"o":"m 35 958 q 49 972 35 972 l 735 972 q 749 958 749 972 l 749 875 q 735 861 749 861 l 450 861 l 450 686 l 693 686 q 707 672 707 686 l 707 597 q 693 583 707 583 l 450 583 l 450 14 q 436 0 450 0 l 347 0 q 333 14 333 0 l 333 583 l 85 583 q 71 597 71 583 l 71 672 q 85 686 71 686 l 333 686 l 333 861 l 49 861 q 35 875 35 861 l 35 958 z "},"ŧ":{"ha":583,"x_min":36,"x_max":543,"o":"m 513 697 q 526 683 526 697 l 526 608 q 513 594 526 594 l 282 594 l 282 447 l 488 447 q 501 433 501 447 l 501 361 q 488 347 501 347 l 282 347 l 282 207 q 392 89 282 89 q 455 93 426 89 q 524 113 483 97 q 539 113 535 117 q 543 101 543 108 l 543 31 q 542 15 543 21 q 532 7 540 10 q 465 -9 501 -4 q 383 -14 428 -14 q 229 42 285 -14 q 174 197 174 97 l 174 347 l 74 347 q 60 361 60 347 l 60 433 q 74 447 60 447 l 174 447 l 174 594 l 50 594 q 36 608 36 594 l 36 683 q 50 697 36 697 l 174 697 l 174 897 q 188 911 174 911 l 268 911 q 282 897 282 911 l 282 697 l 513 697 z "},"Ũ":{"ha":889,"x_min":94,"x_max":794,"o":"m 94 958 q 108 972 94 972 l 197 972 q 211 958 211 972 l 211 351 q 272 162 211 226 q 444 97 332 97 q 617 162 557 97 q 678 351 678 226 l 678 958 q 692 972 678 972 l 781 972 q 794 958 794 972 l 794 336 q 767 188 794 253 q 694 78 740 122 q 583 10 647 33 q 444 -14 519 -14 q 306 10 369 -14 q 195 78 242 33 q 122 188 149 122 q 94 336 94 253 l 94 958 m 206 1197 q 273 1234 238 1221 q 342 1247 308 1247 q 403 1238 379 1247 q 444 1219 426 1229 q 481 1199 463 1208 q 526 1190 499 1190 q 565 1199 546 1190 q 611 1225 583 1207 q 621 1228 617 1228 q 635 1217 629 1228 l 674 1158 q 663 1135 681 1147 q 595 1098 631 1111 q 526 1085 560 1085 q 465 1094 488 1085 q 424 1113 442 1103 q 388 1133 406 1124 q 342 1142 369 1142 q 303 1133 322 1142 q 257 1107 285 1125 q 247 1104 251 1104 q 233 1115 240 1104 l 194 1174 q 206 1197 188 1185 z "},"ũ":{"ha":792,"x_min":100,"x_max":681,"o":"m 681 14 q 667 0 681 0 l 586 0 q 572 14 572 0 l 572 93 q 474 15 532 44 q 342 -14 417 -14 q 166 51 232 -14 q 100 239 100 117 l 100 683 q 114 697 100 697 l 194 697 q 208 683 208 697 l 208 256 q 250 130 208 171 q 367 89 292 89 q 513 152 454 89 q 572 342 572 215 l 572 683 q 586 697 572 697 l 667 697 q 681 683 681 697 l 681 14 m 153 922 q 220 959 185 946 q 289 972 256 972 q 350 963 326 972 q 392 944 374 954 q 428 924 410 933 q 474 915 446 915 q 512 924 493 915 q 558 950 531 932 q 568 953 564 953 q 582 942 576 953 l 621 883 q 610 860 628 872 q 542 823 578 836 q 474 810 507 810 q 412 819 435 810 q 371 838 389 828 q 335 858 353 849 q 289 867 317 867 q 251 858 269 867 q 204 832 232 850 q 194 829 199 829 q 181 840 188 829 l 142 899 q 153 922 135 910 z "},"Ū":{"ha":889,"x_min":94,"x_max":794,"o":"m 94 958 q 108 972 94 972 l 197 972 q 211 958 211 972 l 211 351 q 272 162 211 226 q 444 97 332 97 q 617 162 557 97 q 678 351 678 226 l 678 958 q 692 972 678 972 l 781 972 q 794 958 794 972 l 794 336 q 767 188 794 253 q 694 78 740 122 q 583 10 647 33 q 444 -14 519 -14 q 306 10 369 -14 q 195 78 242 33 q 122 188 149 122 q 94 336 94 253 l 94 958 m 300 1186 q 314 1200 300 1200 l 575 1200 q 589 1186 589 1200 l 589 1117 q 575 1103 589 1103 l 314 1103 q 300 1117 300 1103 l 300 1186 z "},"ū":{"ha":792,"x_min":100,"x_max":681,"o":"m 681 14 q 667 0 681 0 l 586 0 q 572 14 572 0 l 572 93 q 474 15 532 44 q 342 -14 417 -14 q 166 51 232 -14 q 100 239 100 117 l 100 683 q 114 697 100 697 l 194 697 q 208 683 208 697 l 208 256 q 250 130 208 171 q 367 89 292 89 q 513 152 454 89 q 572 342 572 215 l 572 683 q 586 697 572 697 l 667 697 q 681 683 681 697 l 681 14 m 238 911 q 251 925 238 925 l 513 925 q 526 911 526 925 l 526 842 q 513 828 526 828 l 251 828 q 238 842 238 828 l 238 911 z "},"Ŭ":{"ha":889,"x_min":94,"x_max":794,"o":"m 94 958 q 108 972 94 972 l 197 972 q 211 958 211 972 l 211 351 q 272 162 211 226 q 444 97 332 97 q 617 162 557 97 q 678 351 678 226 l 678 958 q 692 972 678 972 l 781 972 q 794 958 794 972 l 794 336 q 767 188 794 253 q 694 78 740 122 q 583 10 647 33 q 444 -14 519 -14 q 306 10 369 -14 q 195 78 242 33 q 122 188 149 122 q 94 336 94 253 l 94 958 m 350 1231 q 364 1217 364 1231 q 385 1162 364 1183 q 444 1140 407 1140 q 503 1162 482 1140 q 525 1217 525 1183 q 539 1231 525 1231 l 606 1231 q 619 1217 619 1231 q 570 1094 619 1140 q 444 1049 521 1049 q 319 1094 368 1049 q 269 1217 269 1140 q 283 1231 269 1231 l 350 1231 z "},"ŭ":{"ha":792,"x_min":100,"x_max":681,"o":"m 681 14 q 667 0 681 0 l 586 0 q 572 14 572 0 l 572 93 q 474 15 532 44 q 342 -14 417 -14 q 166 51 232 -14 q 100 239 100 117 l 100 683 q 114 697 100 697 l 194 697 q 208 683 208 697 l 208 256 q 250 130 208 171 q 367 89 292 89 q 513 152 454 89 q 572 342 572 215 l 572 683 q 586 697 572 697 l 667 697 q 681 683 681 697 l 681 14 m 294 956 q 308 942 308 956 q 330 887 308 908 q 389 865 351 865 q 448 887 426 865 q 469 942 469 908 q 483 956 469 956 l 550 956 q 564 942 564 956 q 515 819 564 865 q 389 774 465 774 q 263 819 313 774 q 214 942 214 865 q 228 956 214 956 l 294 956 z "},"Ů":{"ha":889,"x_min":94,"x_max":794,"o":"m 94 958 q 108 972 94 972 l 197 972 q 211 958 211 972 l 211 351 q 272 162 211 226 q 444 97 332 97 q 617 162 557 97 q 678 351 678 226 l 678 958 q 692 972 678 972 l 781 972 q 794 958 794 972 l 794 336 q 767 188 794 253 q 694 78 740 122 q 583 10 647 33 q 444 -14 519 -14 q 306 10 369 -14 q 195 78 242 33 q 122 188 149 122 q 94 336 94 253 l 94 958 m 324 1158 q 358 1242 324 1210 q 444 1275 392 1275 q 531 1242 497 1275 q 565 1158 565 1210 q 531 1074 565 1107 q 444 1042 497 1042 q 358 1074 392 1042 q 324 1158 324 1107 m 390 1158 q 406 1117 390 1132 q 444 1103 421 1103 q 483 1117 468 1103 q 499 1158 499 1132 q 483 1199 499 1185 q 444 1214 468 1214 q 406 1199 421 1214 q 390 1158 390 1185 z "},"ů":{"ha":792,"x_min":100,"x_max":681,"o":"m 681 14 q 667 0 681 0 l 586 0 q 572 14 572 0 l 572 93 q 474 15 532 44 q 342 -14 417 -14 q 166 51 232 -14 q 100 239 100 117 l 100 683 q 114 697 100 697 l 194 697 q 208 683 208 697 l 208 256 q 250 130 208 171 q 367 89 292 89 q 513 152 454 89 q 572 342 572 215 l 572 683 q 586 697 572 697 l 667 697 q 681 683 681 697 l 681 14 m 268 883 q 302 967 268 935 q 389 1000 336 1000 q 476 967 442 1000 q 510 883 510 935 q 476 799 510 832 q 389 767 442 767 q 302 799 336 767 q 268 883 268 832 m 335 883 q 350 842 335 857 q 389 828 365 828 q 428 842 413 828 q 443 883 443 857 q 428 924 443 910 q 389 939 413 939 q 350 924 365 939 q 335 883 335 910 z "},"Ű":{"ha":889,"x_min":94,"x_max":794,"o":"m 94 958 q 108 972 94 972 l 197 972 q 211 958 211 972 l 211 351 q 272 162 211 226 q 444 97 332 97 q 617 162 557 97 q 678 351 678 226 l 678 958 q 692 972 678 972 l 781 972 q 794 958 794 972 l 794 336 q 767 188 794 253 q 694 78 740 122 q 583 10 647 33 q 444 -14 519 -14 q 306 10 369 -14 q 195 78 242 33 q 122 188 149 122 q 94 336 94 253 l 94 958 m 328 1233 q 349 1247 336 1247 l 481 1247 q 490 1243 488 1247 q 488 1233 492 1239 l 344 1057 q 334 1047 339 1050 q 319 1044 329 1044 l 239 1044 q 231 1049 232 1044 q 232 1058 229 1053 l 328 1233 m 585 1233 q 606 1247 593 1247 l 738 1247 q 747 1243 744 1247 q 744 1233 749 1239 l 601 1057 q 591 1047 596 1050 q 576 1044 586 1044 l 496 1044 q 488 1049 489 1044 q 489 1058 486 1053 l 585 1233 z "},"ű":{"ha":792,"x_min":100,"x_max":681,"o":"m 681 14 q 667 0 681 0 l 586 0 q 572 14 572 0 l 572 93 q 474 15 532 44 q 342 -14 417 -14 q 166 51 232 -14 q 100 239 100 117 l 100 683 q 114 697 100 697 l 194 697 q 208 683 208 697 l 208 256 q 250 130 208 171 q 367 89 292 89 q 513 152 454 89 q 572 342 572 215 l 572 683 q 586 697 572 697 l 667 697 q 681 683 681 697 l 681 14 m 244 958 q 265 972 253 972 l 397 972 q 406 968 404 972 q 404 958 408 964 l 261 782 q 251 772 256 775 q 236 769 246 769 l 156 769 q 147 774 149 769 q 149 783 146 778 l 244 958 m 501 958 q 522 972 510 972 l 654 972 q 663 968 661 972 q 661 958 665 964 l 518 782 q 508 772 513 775 q 493 769 503 769 l 413 769 q 404 774 406 769 q 406 783 403 778 l 501 958 z "},"Ų":{"ha":889,"x_min":94,"x_max":794,"o":"m 94 958 q 108 972 94 972 l 197 972 q 211 958 211 972 l 211 351 q 272 162 211 226 q 444 97 332 97 q 617 162 557 97 q 678 351 678 226 l 678 958 q 692 972 678 972 l 781 972 q 794 958 794 972 l 794 336 q 776 213 794 269 q 726 115 758 157 q 650 43 694 72 q 554 0 606 14 q 492 -36 514 -11 q 469 -92 469 -61 q 494 -147 469 -126 q 564 -168 518 -168 l 581 -168 q 594 -182 594 -168 l 594 -229 q 581 -243 594 -243 l 532 -243 q 468 -235 499 -243 q 415 -212 438 -228 q 378 -174 392 -197 q 365 -117 365 -150 q 380 -58 365 -85 q 415 -11 394 -31 q 288 18 346 -7 q 186 88 229 43 q 119 194 143 132 q 94 336 94 257 l 94 958 z "},"ų":{"ha":792,"x_min":100,"x_max":713,"o":"m 681 14 q 671 0 681 1 q 610 -35 632 -10 q 588 -92 588 -61 q 612 -147 588 -126 q 682 -168 636 -168 l 699 -168 q 713 -182 713 -168 l 713 -229 q 699 -243 713 -243 l 650 -243 q 586 -235 617 -243 q 533 -212 556 -228 q 497 -174 510 -197 q 483 -117 483 -150 q 511 -38 483 -72 q 572 13 539 -4 l 572 93 q 474 15 532 44 q 342 -14 417 -14 q 166 51 232 -14 q 100 239 100 117 l 100 683 q 114 697 100 697 l 194 697 q 208 683 208 697 l 208 256 q 250 130 208 171 q 367 89 292 89 q 513 152 454 89 q 572 342 572 215 l 572 683 q 586 697 572 697 l 667 697 q 681 683 681 697 l 681 14 z "},"Ŵ":{"ha":1161,"x_min":19,"x_max":1142,"o":"m 922 14 q 907 0 918 0 l 781 0 q 765 14 769 0 l 581 738 l 396 14 q 381 0 392 0 l 254 0 q 239 14 243 0 l 24 958 q 35 972 19 972 l 133 972 q 150 958 146 972 l 326 154 l 513 892 q 529 906 517 906 l 632 906 q 649 892 644 906 l 835 154 l 1011 958 q 1028 972 1013 972 l 1126 972 q 1138 958 1142 972 l 922 14 m 786 1058 q 788 1049 790 1053 q 779 1044 786 1044 l 693 1044 q 680 1047 685 1044 q 668 1057 675 1050 l 581 1144 l 493 1057 q 481 1047 486 1050 q 468 1044 476 1044 l 382 1044 q 373 1049 375 1044 q 375 1058 371 1053 l 521 1236 q 542 1247 531 1247 l 619 1247 q 640 1236 631 1247 l 786 1058 z "},"ŵ":{"ha":1036,"x_min":17,"x_max":1019,"o":"m 806 14 q 788 0 801 0 l 689 0 q 671 14 675 0 l 518 524 l 365 14 q 347 0 361 0 l 249 0 q 231 14 233 0 l 18 676 q 17 688 17 682 q 28 697 17 697 l 124 697 q 138 694 135 697 q 143 683 140 690 l 296 142 l 450 650 q 455 660 453 657 q 465 664 457 664 l 571 664 q 581 660 579 664 q 586 650 583 657 l 740 142 l 893 683 q 899 694 896 690 q 913 697 901 697 l 1008 697 q 1019 688 1019 697 q 1018 676 1019 682 l 806 14 m 724 783 q 726 774 728 778 q 717 769 724 769 l 631 769 q 617 772 622 769 q 606 782 613 775 l 518 869 l 431 782 q 419 772 424 775 q 406 769 414 769 l 319 769 q 310 774 313 769 q 313 783 308 778 l 458 961 q 479 972 468 972 l 557 972 q 578 961 568 972 l 724 783 z "},"Ŷ":{"ha":758,"x_min":10,"x_max":749,"o":"m 438 358 l 438 14 q 424 0 438 0 l 335 0 q 321 14 321 0 l 321 358 l 13 958 q 13 969 10 965 q 21 972 15 972 l 131 972 q 147 961 142 972 l 379 500 l 611 961 q 628 972 617 972 l 738 972 q 746 969 743 972 q 746 958 749 965 l 438 358 m 585 1058 q 587 1049 589 1053 q 578 1044 585 1044 l 492 1044 q 478 1047 483 1044 q 467 1057 474 1050 l 379 1144 l 292 1057 q 280 1047 285 1050 q 267 1044 275 1044 l 181 1044 q 172 1049 174 1044 q 174 1058 169 1053 l 319 1236 q 340 1247 329 1247 l 418 1247 q 439 1236 429 1247 l 585 1058 z "},"ŷ":{"ha":672,"x_min":17,"x_max":651,"o":"m 128 697 q 146 683 142 697 l 351 153 l 526 683 q 532 694 529 690 q 544 697 535 697 l 640 697 q 651 688 651 697 q 650 678 651 682 l 396 -68 q 348 -174 374 -132 q 292 -242 322 -217 q 228 -278 263 -268 q 156 -289 194 -289 q 99 -283 121 -289 q 53 -267 76 -278 q 41 -256 43 -261 q 39 -244 39 -251 l 39 -169 q 50 -156 39 -156 q 66 -160 58 -156 q 85 -171 74 -165 q 111 -181 96 -176 q 150 -186 126 -186 q 239 -144 206 -186 q 297 -10 272 -101 l 19 675 q 17 686 17 683 q 28 697 17 697 l 128 697 l 128 697 m 549 783 q 551 774 553 778 q 542 769 549 769 l 456 769 q 442 772 447 769 q 431 782 438 775 l 343 869 l 256 782 q 244 772 249 775 q 231 769 239 769 l 144 769 q 135 774 138 769 q 138 783 133 778 l 283 961 q 304 972 293 972 l 382 972 q 403 961 393 972 l 549 783 z "},"Ÿ":{"ha":758,"x_min":10,"x_max":749,"o":"m 438 358 l 438 14 q 424 0 438 0 l 335 0 q 321 14 321 0 l 321 358 l 13 958 q 13 969 10 965 q 21 972 15 972 l 131 972 q 147 961 142 972 l 379 500 l 611 961 q 628 972 617 972 l 738 972 q 746 969 743 972 q 746 958 749 965 l 438 358 m 194 1233 q 208 1247 194 1247 l 319 1247 q 333 1233 333 1247 l 333 1122 q 319 1108 333 1108 l 208 1108 q 194 1122 194 1108 l 194 1233 m 425 1233 q 439 1247 425 1247 l 550 1247 q 564 1233 564 1247 l 564 1122 q 550 1108 564 1108 l 439 1108 q 425 1122 425 1108 l 425 1233 z "},"Ź":{"ha":842,"x_min":57,"x_max":781,"o":"m 81 958 q 94 972 81 972 l 738 972 q 751 958 751 972 l 751 875 q 743 851 751 864 l 199 111 l 767 111 q 781 97 781 111 l 781 14 q 767 0 781 0 l 71 0 q 57 14 57 0 l 57 97 q 65 121 57 108 l 611 861 l 94 861 q 81 875 81 861 l 81 958 m 404 1233 q 425 1247 413 1247 l 557 1247 q 567 1240 567 1247 q 564 1233 567 1238 l 421 1057 q 410 1047 415 1050 q 396 1044 406 1044 l 315 1044 q 307 1053 307 1044 q 308 1058 307 1056 l 404 1233 z "},"ź":{"ha":671,"x_min":46,"x_max":618,"o":"m 64 683 q 78 697 64 697 l 578 697 q 592 683 592 697 l 592 608 q 590 596 592 601 q 581 579 588 590 l 182 103 l 604 103 q 618 89 618 103 l 618 14 q 604 0 618 0 l 60 0 q 46 14 46 0 l 46 89 q 49 101 46 96 q 54 110 51 106 l 460 594 l 78 594 q 64 608 64 594 l 64 683 m 332 958 q 353 972 340 972 l 485 972 q 494 965 494 972 q 492 958 494 963 l 349 782 q 338 772 343 775 q 324 769 333 769 l 243 769 q 235 778 235 769 q 236 783 235 781 l 332 958 z "},"Ż":{"ha":842,"x_min":57,"x_max":781,"o":"m 81 958 q 94 972 81 972 l 738 972 q 751 958 751 972 l 751 875 q 743 851 751 864 l 199 111 l 767 111 q 781 97 781 111 l 781 14 q 767 0 781 0 l 71 0 q 57 14 57 0 l 57 97 q 65 121 57 108 l 611 861 l 94 861 q 81 875 81 861 l 81 958 m 338 1233 q 351 1247 338 1247 l 471 1247 q 485 1233 485 1247 l 485 1114 q 471 1100 485 1100 l 351 1100 q 338 1114 338 1100 l 338 1233 z "},"ż":{"ha":671,"x_min":46,"x_max":618,"o":"m 64 683 q 78 697 64 697 l 578 697 q 592 683 592 697 l 592 608 q 590 596 592 601 q 581 579 588 590 l 182 103 l 604 103 q 618 89 618 103 l 618 14 q 604 0 618 0 l 60 0 q 46 14 46 0 l 46 89 q 49 101 46 96 q 54 110 51 106 l 460 594 l 78 594 q 64 608 64 594 l 64 683 m 263 958 q 276 972 263 972 l 396 972 q 410 958 410 972 l 410 839 q 396 825 410 825 l 276 825 q 263 839 263 825 l 263 958 z "},"Ž":{"ha":842,"x_min":57,"x_max":781,"o":"m 81 958 q 94 972 81 972 l 738 972 q 751 958 751 972 l 751 875 q 743 851 751 864 l 199 111 l 767 111 q 781 97 781 111 l 781 14 q 767 0 781 0 l 71 0 q 57 14 57 0 l 57 97 q 65 121 57 108 l 611 861 l 94 861 q 81 875 81 861 l 81 958 m 483 1056 q 463 1044 474 1044 l 385 1044 q 364 1056 374 1044 l 218 1233 q 216 1243 214 1239 q 225 1247 218 1247 l 311 1247 q 324 1244 319 1247 q 336 1235 329 1242 l 424 1147 l 511 1235 q 523 1244 518 1242 q 536 1247 528 1247 l 622 1247 q 631 1243 629 1247 q 629 1233 633 1239 l 483 1056 z "},"ž":{"ha":671,"x_min":46,"x_max":618,"o":"m 64 683 q 78 697 64 697 l 578 697 q 592 683 592 697 l 592 608 q 590 596 592 601 q 581 579 588 590 l 182 103 l 604 103 q 618 89 618 103 l 618 14 q 604 0 618 0 l 60 0 q 46 14 46 0 l 46 89 q 49 101 46 96 q 54 110 51 106 l 460 594 l 78 594 q 64 608 64 594 l 64 683 m 382 781 q 361 769 372 769 l 283 769 q 263 781 272 769 l 117 958 q 115 968 113 964 q 124 972 117 972 l 210 972 q 223 969 218 972 q 235 960 228 967 l 322 872 l 410 960 q 422 969 417 967 q 435 972 426 972 l 521 972 q 530 968 528 972 q 528 958 532 964 l 382 781 z "},"ſ":{"ha":522,"x_min":51,"x_max":557,"o":"m 288 14 q 274 0 288 0 l 193 0 q 179 14 179 0 l 179 594 l 65 594 q 51 608 51 594 l 51 683 q 65 697 51 697 l 179 697 l 179 756 q 238 924 179 863 q 401 986 296 986 q 546 960 489 986 q 556 951 554 956 q 557 936 557 946 l 557 864 q 553 852 557 857 q 538 853 549 847 q 469 877 499 871 q 401 883 439 883 q 315 848 343 883 q 288 746 288 813 l 288 14 z "},"Ǝ":{"ha":811,"x_min":85,"x_max":696,"o":"m 578 861 l 99 861 q 85 875 85 861 l 85 958 q 99 972 85 972 l 681 972 q 694 958 694 972 l 694 14 q 681 0 694 0 l 119 0 q 106 14 106 0 l 106 97 q 119 111 106 111 l 578 111 l 578 406 l 161 406 q 147 419 147 406 l 147 503 q 161 517 147 517 l 578 517 l 578 861 z "},"Ə":{"ha":824,"x_min":67,"x_max":756,"o":"m 638 382 q 568 547 629 485 q 404 608 507 608 q 280 578 332 608 q 200 481 228 549 q 192 470 197 472 q 181 468 188 468 l 90 468 q 81 478 81 468 q 81 483 81 481 q 83 492 81 485 q 207 657 124 603 q 407 711 290 711 q 551 683 486 711 q 660 606 615 656 q 730 491 706 557 q 754 349 754 425 q 728 206 754 272 q 656 91 703 140 q 546 14 610 42 q 407 -14 482 -14 q 265 15 328 -14 q 158 94 201 44 q 90 208 114 143 q 67 346 67 274 l 67 368 q 81 382 67 382 l 638 382 m 407 89 q 483 101 447 89 q 549 137 519 113 q 601 197 579 161 q 632 279 622 232 l 183 279 q 260 141 200 193 q 407 89 321 89 z "},"ƒ":{"ha":656,"x_min":-69,"x_max":649,"o":"m 254 594 l 140 594 q 128 608 128 594 l 128 683 q 143 697 128 697 l 268 697 l 281 788 q 306 869 286 833 q 355 932 325 906 q 422 972 385 958 q 504 986 460 986 q 580 979 549 986 q 638 960 611 972 q 647 951 644 956 q 649 936 649 947 l 649 864 q 639 850 649 850 q 628 853 633 850 q 567 876 596 869 q 507 883 539 883 q 430 858 464 883 q 388 776 396 833 l 376 697 l 589 697 q 603 683 603 697 l 603 608 q 589 594 603 594 l 363 594 l 271 -89 q 213 -236 258 -183 q 79 -289 167 -289 q 4 -282 40 -289 q -58 -262 -32 -275 q -67 -254 -65 -258 q -69 -239 -69 -250 l -69 -167 q -60 -153 -69 -153 q -49 -156 -56 -153 q 10 -179 -17 -172 q 63 -186 36 -186 q 131 -165 106 -186 q 164 -79 156 -144 l 254 594 z "},"Ƶ":{"ha":842,"x_min":57,"x_max":781,"o":"m 81 958 q 94 972 81 972 l 738 972 q 751 958 751 972 l 751 875 q 743 851 751 864 l 508 533 l 724 533 q 738 519 738 533 l 738 444 q 724 431 738 431 l 433 431 l 199 111 l 767 111 q 781 97 781 111 l 781 14 q 767 0 781 0 l 71 0 q 57 14 57 0 l 57 97 q 65 121 57 108 l 293 431 l 113 431 q 99 444 99 431 l 99 519 q 113 533 99 533 l 369 533 l 611 861 l 94 861 q 81 875 81 861 l 81 958 z "},"ƶ":{"ha":671,"x_min":46,"x_max":618,"o":"m 115 318 q 101 332 101 318 l 101 404 q 115 418 101 418 l 311 418 l 460 594 l 78 594 q 64 608 64 594 l 64 683 q 78 697 64 697 l 578 697 q 592 683 592 697 l 592 608 q 590 596 592 601 q 581 579 588 590 l 446 418 l 544 418 q 558 404 558 418 l 558 332 q 544 318 558 318 l 361 318 l 182 103 l 604 103 q 618 89 618 103 l 618 14 q 604 0 618 0 l 60 0 q 46 14 46 0 l 46 89 q 49 101 46 96 q 54 110 51 106 l 228 318 l 115 318 l 115 318 z "},"Ǻ":{"ha":869,"x_min":15,"x_max":854,"o":"m 314 1028 q 348 1112 314 1079 q 435 1144 382 1144 q 522 1112 488 1144 q 556 1028 556 1079 q 515 938 556 971 l 853 22 q 854 14 854 18 q 839 0 854 0 l 746 0 q 735 3 738 0 q 729 14 732 7 l 633 282 l 236 282 l 140 14 q 135 3 138 7 q 124 0 132 0 l 31 0 q 15 14 15 0 q 17 22 15 18 l 353 938 q 314 1028 314 969 m 276 393 l 593 393 l 435 832 l 276 393 m 449 1372 q 469 1386 457 1386 l 601 1386 q 610 1382 608 1386 q 608 1372 613 1378 l 465 1196 q 455 1186 460 1189 q 440 1183 450 1183 l 360 1183 q 351 1188 353 1183 q 353 1197 350 1192 l 449 1372 m 381 1028 q 396 987 381 1001 q 435 972 411 972 q 474 987 458 972 q 489 1028 489 1001 q 474 1069 489 1054 q 435 1083 458 1083 q 396 1069 411 1083 q 381 1028 381 1054 z "},"ǻ":{"ha":749,"x_min":67,"x_max":679,"o":"m 104 490 q 94 499 94 490 q 94 505 94 501 q 96 513 94 508 q 128 588 106 551 q 186 651 151 624 q 268 695 221 679 q 376 711 315 711 q 488 694 436 711 q 575 644 539 676 q 632 567 611 613 q 653 468 653 522 l 653 133 q 654 91 653 108 q 658 61 656 74 q 665 38 661 49 q 676 14 669 26 q 679 7 679 8 q 668 0 679 0 l 558 0 q 544 14 544 0 l 544 86 q 451 13 511 40 q 317 -14 392 -14 q 226 0 271 -14 q 147 41 182 14 q 89 110 111 68 q 67 207 67 151 q 89 308 67 265 q 149 381 111 351 q 239 424 188 410 q 349 439 290 439 q 451 430 401 439 q 544 408 500 421 l 544 447 q 501 567 544 526 q 376 608 457 608 q 273 581 314 608 q 213 503 232 553 q 205 492 210 494 q 193 490 200 490 l 104 490 m 544 306 q 456 328 501 321 q 356 336 411 336 q 286 329 318 336 q 231 308 254 322 q 194 269 207 293 q 181 214 181 246 q 219 121 181 153 q 329 89 258 89 q 412 103 372 89 q 481 144 451 117 q 527 213 510 172 q 544 306 544 253 m 257 883 q 291 967 257 935 q 378 1000 325 1000 q 465 967 431 1000 q 499 883 499 935 q 465 799 499 832 q 378 767 431 767 q 291 799 325 767 q 257 883 257 832 m 324 883 q 339 842 324 857 q 378 828 354 828 q 417 842 401 828 q 432 883 432 857 q 417 924 432 910 q 378 939 401 939 q 339 924 354 939 q 324 883 324 910 m 383 1233 q 404 1247 392 1247 l 536 1247 q 546 1240 546 1247 q 543 1233 546 1238 l 400 1057 q 390 1047 394 1050 q 375 1044 385 1044 l 294 1044 q 286 1053 286 1044 q 288 1058 286 1056 l 383 1233 z "}}}
